%TF.GenerationSoftware,KiCad,Pcbnew,(5.1.9)-1*%
%TF.CreationDate,2021-03-28T16:49:31-07:00*%
%TF.ProjectId,millipad,6d696c6c-6970-4616-942e-6b696361645f,rev?*%
%TF.SameCoordinates,Original*%
%TF.FileFunction,Legend,Top*%
%TF.FilePolarity,Positive*%
%FSLAX46Y46*%
G04 Gerber Fmt 4.6, Leading zero omitted, Abs format (unit mm)*
G04 Created by KiCad (PCBNEW (5.1.9)-1) date 2021-03-28 16:49:31*
%MOMM*%
%LPD*%
G01*
G04 APERTURE LIST*
%ADD10C,0.010000*%
%ADD11C,0.150000*%
%ADD12C,0.120000*%
G04 APERTURE END LIST*
D10*
%TO.C,G\u002A\u002A\u002A*%
G36*
X104008996Y-58348482D02*
G01*
X104164360Y-58657965D01*
X104318095Y-58348482D01*
X104471831Y-58039000D01*
X104607540Y-58039000D01*
X104690262Y-58042381D01*
X104738329Y-58050890D01*
X104743250Y-58055209D01*
X104729844Y-58087281D01*
X104693073Y-58164961D01*
X104638101Y-58277930D01*
X104570096Y-58415867D01*
X104494225Y-58568452D01*
X104415654Y-58725366D01*
X104339549Y-58876287D01*
X104271077Y-59010897D01*
X104215404Y-59118874D01*
X104177698Y-59189900D01*
X104163246Y-59213750D01*
X104147301Y-59186703D01*
X104107437Y-59111151D01*
X104047954Y-58995471D01*
X103973150Y-58848045D01*
X103887324Y-58677251D01*
X103861899Y-58626375D01*
X103568720Y-58039000D01*
X103853632Y-58039000D01*
X104008996Y-58348482D01*
G37*
X104008996Y-58348482D02*
X104164360Y-58657965D01*
X104318095Y-58348482D01*
X104471831Y-58039000D01*
X104607540Y-58039000D01*
X104690262Y-58042381D01*
X104738329Y-58050890D01*
X104743250Y-58055209D01*
X104729844Y-58087281D01*
X104693073Y-58164961D01*
X104638101Y-58277930D01*
X104570096Y-58415867D01*
X104494225Y-58568452D01*
X104415654Y-58725366D01*
X104339549Y-58876287D01*
X104271077Y-59010897D01*
X104215404Y-59118874D01*
X104177698Y-59189900D01*
X104163246Y-59213750D01*
X104147301Y-59186703D01*
X104107437Y-59111151D01*
X104047954Y-58995471D01*
X103973150Y-58848045D01*
X103887324Y-58677251D01*
X103861899Y-58626375D01*
X103568720Y-58039000D01*
X103853632Y-58039000D01*
X104008996Y-58348482D01*
G36*
X105922811Y-57358171D02*
G01*
X106053883Y-57438199D01*
X106146886Y-57554863D01*
X106159717Y-57582325D01*
X106177417Y-57646726D01*
X106190195Y-57747507D01*
X106198517Y-57891899D01*
X106202845Y-58087129D01*
X106203750Y-58268663D01*
X106202979Y-58481380D01*
X106200096Y-58640864D01*
X106194241Y-58757371D01*
X106184555Y-58841154D01*
X106170180Y-58902470D01*
X106150257Y-58951572D01*
X106145838Y-58960245D01*
X106062537Y-59061835D01*
X105938753Y-59146218D01*
X105797355Y-59200514D01*
X105695750Y-59213750D01*
X105596992Y-59198725D01*
X105483196Y-59160957D01*
X105442889Y-59142312D01*
X105361311Y-59095895D01*
X105299128Y-59045163D01*
X105253744Y-58981157D01*
X105222565Y-58894915D01*
X105206728Y-58799890D01*
X105437754Y-58799890D01*
X105521540Y-58883676D01*
X105588802Y-58938603D01*
X105658247Y-58955951D01*
X105733758Y-58950237D01*
X105824233Y-58930897D01*
X105888920Y-58904329D01*
X105898031Y-58897246D01*
X105913144Y-58849646D01*
X105925671Y-58741183D01*
X105935422Y-58574451D01*
X105942205Y-58352042D01*
X105943489Y-58283553D01*
X105946508Y-58054827D01*
X105945152Y-57881811D01*
X105936737Y-57756737D01*
X105918579Y-57671837D01*
X105887993Y-57619344D01*
X105842296Y-57591490D01*
X105778803Y-57580507D01*
X105699896Y-57578625D01*
X105598009Y-57586468D01*
X105520707Y-57606500D01*
X105498900Y-57619819D01*
X105482249Y-57656981D01*
X105469221Y-57735191D01*
X105459323Y-57860303D01*
X105452066Y-58038170D01*
X105447689Y-58230452D01*
X105437754Y-58799890D01*
X105206728Y-58799890D01*
X105202992Y-58777476D01*
X105192431Y-58619879D01*
X105188286Y-58413162D01*
X105187799Y-58261745D01*
X105189328Y-58020827D01*
X105195583Y-57834434D01*
X105209131Y-57693627D01*
X105232542Y-57589467D01*
X105268383Y-57513015D01*
X105319223Y-57455333D01*
X105387630Y-57407481D01*
X105441750Y-57377922D01*
X105602687Y-57324031D01*
X105767727Y-57318781D01*
X105922811Y-57358171D01*
G37*
X105922811Y-57358171D02*
X106053883Y-57438199D01*
X106146886Y-57554863D01*
X106159717Y-57582325D01*
X106177417Y-57646726D01*
X106190195Y-57747507D01*
X106198517Y-57891899D01*
X106202845Y-58087129D01*
X106203750Y-58268663D01*
X106202979Y-58481380D01*
X106200096Y-58640864D01*
X106194241Y-58757371D01*
X106184555Y-58841154D01*
X106170180Y-58902470D01*
X106150257Y-58951572D01*
X106145838Y-58960245D01*
X106062537Y-59061835D01*
X105938753Y-59146218D01*
X105797355Y-59200514D01*
X105695750Y-59213750D01*
X105596992Y-59198725D01*
X105483196Y-59160957D01*
X105442889Y-59142312D01*
X105361311Y-59095895D01*
X105299128Y-59045163D01*
X105253744Y-58981157D01*
X105222565Y-58894915D01*
X105206728Y-58799890D01*
X105437754Y-58799890D01*
X105521540Y-58883676D01*
X105588802Y-58938603D01*
X105658247Y-58955951D01*
X105733758Y-58950237D01*
X105824233Y-58930897D01*
X105888920Y-58904329D01*
X105898031Y-58897246D01*
X105913144Y-58849646D01*
X105925671Y-58741183D01*
X105935422Y-58574451D01*
X105942205Y-58352042D01*
X105943489Y-58283553D01*
X105946508Y-58054827D01*
X105945152Y-57881811D01*
X105936737Y-57756737D01*
X105918579Y-57671837D01*
X105887993Y-57619344D01*
X105842296Y-57591490D01*
X105778803Y-57580507D01*
X105699896Y-57578625D01*
X105598009Y-57586468D01*
X105520707Y-57606500D01*
X105498900Y-57619819D01*
X105482249Y-57656981D01*
X105469221Y-57735191D01*
X105459323Y-57860303D01*
X105452066Y-58038170D01*
X105447689Y-58230452D01*
X105437754Y-58799890D01*
X105206728Y-58799890D01*
X105202992Y-58777476D01*
X105192431Y-58619879D01*
X105188286Y-58413162D01*
X105187799Y-58261745D01*
X105189328Y-58020827D01*
X105195583Y-57834434D01*
X105209131Y-57693627D01*
X105232542Y-57589467D01*
X105268383Y-57513015D01*
X105319223Y-57455333D01*
X105387630Y-57407481D01*
X105441750Y-57377922D01*
X105602687Y-57324031D01*
X105767727Y-57318781D01*
X105922811Y-57358171D01*
G36*
X106902250Y-59182000D02*
G01*
X106648250Y-59182000D01*
X106648250Y-58896250D01*
X106902250Y-58896250D01*
X106902250Y-59182000D01*
G37*
X106902250Y-59182000D02*
X106648250Y-59182000D01*
X106648250Y-58896250D01*
X106902250Y-58896250D01*
X106902250Y-59182000D01*
G36*
X107727750Y-59182000D02*
G01*
X107473750Y-59182000D01*
X107473750Y-58388250D01*
X107473580Y-58143713D01*
X107472682Y-57955352D01*
X107470469Y-57815844D01*
X107466355Y-57717864D01*
X107459755Y-57654089D01*
X107450081Y-57617196D01*
X107436750Y-57599859D01*
X107419174Y-57594756D01*
X107410250Y-57594500D01*
X107368705Y-57583849D01*
X107350345Y-57540804D01*
X107346750Y-57467500D01*
X107346750Y-57340500D01*
X107727750Y-57340500D01*
X107727750Y-59182000D01*
G37*
X107727750Y-59182000D02*
X107473750Y-59182000D01*
X107473750Y-58388250D01*
X107473580Y-58143713D01*
X107472682Y-57955352D01*
X107470469Y-57815844D01*
X107466355Y-57717864D01*
X107459755Y-57654089D01*
X107450081Y-57617196D01*
X107436750Y-57599859D01*
X107419174Y-57594756D01*
X107410250Y-57594500D01*
X107368705Y-57583849D01*
X107350345Y-57540804D01*
X107346750Y-57467500D01*
X107346750Y-57340500D01*
X107727750Y-57340500D01*
X107727750Y-59182000D01*
G36*
X114199071Y-56872187D02*
G01*
X114194378Y-57120325D01*
X114187329Y-57313772D01*
X114175847Y-57461335D01*
X114157856Y-57571822D01*
X114131277Y-57654042D01*
X114094035Y-57716802D01*
X114044051Y-57768910D01*
X113979249Y-57819175D01*
X113975041Y-57822184D01*
X113901803Y-57864037D01*
X113813464Y-57889613D01*
X113689971Y-57903800D01*
X113625312Y-57907424D01*
X113379250Y-57918723D01*
X113379250Y-57658000D01*
X113552381Y-57658000D01*
X113715396Y-57645477D01*
X113827714Y-57605404D01*
X113897513Y-57534019D01*
X113917419Y-57490135D01*
X113946879Y-57393133D01*
X113944496Y-57344381D01*
X113904211Y-57334100D01*
X113830407Y-57349693D01*
X113658924Y-57367011D01*
X113504623Y-57328767D01*
X113374292Y-57242041D01*
X113274722Y-57113915D01*
X113212704Y-56951470D01*
X113197178Y-56784875D01*
X113458625Y-56784875D01*
X113462717Y-56894015D01*
X113480412Y-56963313D01*
X113519835Y-57016190D01*
X113547707Y-57041624D01*
X113622892Y-57092939D01*
X113689831Y-57117811D01*
X113696750Y-57118250D01*
X113759973Y-57098406D01*
X113835926Y-57049815D01*
X113845792Y-57041624D01*
X113898028Y-56988417D01*
X113924773Y-56929633D01*
X113934153Y-56841852D01*
X113934875Y-56784875D01*
X113930782Y-56675734D01*
X113913087Y-56606436D01*
X113873664Y-56553559D01*
X113845792Y-56528125D01*
X113770607Y-56476810D01*
X113703668Y-56451938D01*
X113696750Y-56451500D01*
X113633526Y-56471343D01*
X113557573Y-56519934D01*
X113547707Y-56528125D01*
X113495471Y-56581332D01*
X113468726Y-56640116D01*
X113459346Y-56727897D01*
X113458625Y-56784875D01*
X113197178Y-56784875D01*
X113195026Y-56761788D01*
X113200299Y-56692550D01*
X113247177Y-56515917D01*
X113336403Y-56371819D01*
X113458400Y-56266897D01*
X113603594Y-56207795D01*
X113762406Y-56201156D01*
X113869308Y-56228464D01*
X113933844Y-56243398D01*
X113950750Y-56228464D01*
X113978951Y-56209213D01*
X114049540Y-56198374D01*
X114080008Y-56197500D01*
X114209267Y-56197500D01*
X114199071Y-56872187D01*
G37*
X114199071Y-56872187D02*
X114194378Y-57120325D01*
X114187329Y-57313772D01*
X114175847Y-57461335D01*
X114157856Y-57571822D01*
X114131277Y-57654042D01*
X114094035Y-57716802D01*
X114044051Y-57768910D01*
X113979249Y-57819175D01*
X113975041Y-57822184D01*
X113901803Y-57864037D01*
X113813464Y-57889613D01*
X113689971Y-57903800D01*
X113625312Y-57907424D01*
X113379250Y-57918723D01*
X113379250Y-57658000D01*
X113552381Y-57658000D01*
X113715396Y-57645477D01*
X113827714Y-57605404D01*
X113897513Y-57534019D01*
X113917419Y-57490135D01*
X113946879Y-57393133D01*
X113944496Y-57344381D01*
X113904211Y-57334100D01*
X113830407Y-57349693D01*
X113658924Y-57367011D01*
X113504623Y-57328767D01*
X113374292Y-57242041D01*
X113274722Y-57113915D01*
X113212704Y-56951470D01*
X113197178Y-56784875D01*
X113458625Y-56784875D01*
X113462717Y-56894015D01*
X113480412Y-56963313D01*
X113519835Y-57016190D01*
X113547707Y-57041624D01*
X113622892Y-57092939D01*
X113689831Y-57117811D01*
X113696750Y-57118250D01*
X113759973Y-57098406D01*
X113835926Y-57049815D01*
X113845792Y-57041624D01*
X113898028Y-56988417D01*
X113924773Y-56929633D01*
X113934153Y-56841852D01*
X113934875Y-56784875D01*
X113930782Y-56675734D01*
X113913087Y-56606436D01*
X113873664Y-56553559D01*
X113845792Y-56528125D01*
X113770607Y-56476810D01*
X113703668Y-56451938D01*
X113696750Y-56451500D01*
X113633526Y-56471343D01*
X113557573Y-56519934D01*
X113547707Y-56528125D01*
X113495471Y-56581332D01*
X113468726Y-56640116D01*
X113459346Y-56727897D01*
X113458625Y-56784875D01*
X113197178Y-56784875D01*
X113195026Y-56761788D01*
X113200299Y-56692550D01*
X113247177Y-56515917D01*
X113336403Y-56371819D01*
X113458400Y-56266897D01*
X113603594Y-56207795D01*
X113762406Y-56201156D01*
X113869308Y-56228464D01*
X113933844Y-56243398D01*
X113950750Y-56228464D01*
X113978951Y-56209213D01*
X114049540Y-56198374D01*
X114080008Y-56197500D01*
X114209267Y-56197500D01*
X114199071Y-56872187D01*
G36*
X110500536Y-56233304D02*
G01*
X110643220Y-56314847D01*
X110719967Y-56392401D01*
X110780883Y-56485472D01*
X110815303Y-56590740D01*
X110830474Y-56701963D01*
X110848069Y-56896000D01*
X110478534Y-56896000D01*
X110304545Y-56898782D01*
X110183216Y-56906880D01*
X110118728Y-56919917D01*
X110109000Y-56929193D01*
X110134484Y-56984710D01*
X110196126Y-57046922D01*
X110271705Y-57097533D01*
X110338617Y-57118250D01*
X110422107Y-57099979D01*
X110482126Y-57069391D01*
X110536954Y-57039141D01*
X110588078Y-57042725D01*
X110647940Y-57070206D01*
X110721419Y-57115893D01*
X110737413Y-57157674D01*
X110698416Y-57212498D01*
X110672562Y-57237600D01*
X110529486Y-57333494D01*
X110372138Y-57367861D01*
X110203013Y-57340421D01*
X110109629Y-57300812D01*
X109976856Y-57204251D01*
X109890845Y-57071553D01*
X109848872Y-56897462D01*
X109843549Y-56787339D01*
X109861054Y-56611892D01*
X110126814Y-56611892D01*
X110137635Y-56630676D01*
X110184379Y-56639402D01*
X110278599Y-56641893D01*
X110330132Y-56642000D01*
X110444568Y-56637823D01*
X110523691Y-56626622D01*
X110553498Y-56610387D01*
X110553500Y-56610250D01*
X110527848Y-56555167D01*
X110467154Y-56497826D01*
X110395807Y-56458331D01*
X110360912Y-56451500D01*
X110246865Y-56479178D01*
X110157603Y-56552285D01*
X110140360Y-56579227D01*
X110126814Y-56611892D01*
X109861054Y-56611892D01*
X109862105Y-56601361D01*
X109921098Y-56453830D01*
X110027006Y-56329534D01*
X110045294Y-56313670D01*
X110188334Y-56231170D01*
X110344494Y-56204897D01*
X110500536Y-56233304D01*
G37*
X110500536Y-56233304D02*
X110643220Y-56314847D01*
X110719967Y-56392401D01*
X110780883Y-56485472D01*
X110815303Y-56590740D01*
X110830474Y-56701963D01*
X110848069Y-56896000D01*
X110478534Y-56896000D01*
X110304545Y-56898782D01*
X110183216Y-56906880D01*
X110118728Y-56919917D01*
X110109000Y-56929193D01*
X110134484Y-56984710D01*
X110196126Y-57046922D01*
X110271705Y-57097533D01*
X110338617Y-57118250D01*
X110422107Y-57099979D01*
X110482126Y-57069391D01*
X110536954Y-57039141D01*
X110588078Y-57042725D01*
X110647940Y-57070206D01*
X110721419Y-57115893D01*
X110737413Y-57157674D01*
X110698416Y-57212498D01*
X110672562Y-57237600D01*
X110529486Y-57333494D01*
X110372138Y-57367861D01*
X110203013Y-57340421D01*
X110109629Y-57300812D01*
X109976856Y-57204251D01*
X109890845Y-57071553D01*
X109848872Y-56897462D01*
X109843549Y-56787339D01*
X109861054Y-56611892D01*
X110126814Y-56611892D01*
X110137635Y-56630676D01*
X110184379Y-56639402D01*
X110278599Y-56641893D01*
X110330132Y-56642000D01*
X110444568Y-56637823D01*
X110523691Y-56626622D01*
X110553498Y-56610387D01*
X110553500Y-56610250D01*
X110527848Y-56555167D01*
X110467154Y-56497826D01*
X110395807Y-56458331D01*
X110360912Y-56451500D01*
X110246865Y-56479178D01*
X110157603Y-56552285D01*
X110140360Y-56579227D01*
X110126814Y-56611892D01*
X109861054Y-56611892D01*
X109862105Y-56601361D01*
X109921098Y-56453830D01*
X110027006Y-56329534D01*
X110045294Y-56313670D01*
X110188334Y-56231170D01*
X110344494Y-56204897D01*
X110500536Y-56233304D01*
G36*
X108830653Y-55501485D02*
G01*
X108942975Y-55510904D01*
X109029054Y-55530205D01*
X109107455Y-55562334D01*
X109123610Y-55570437D01*
X109206915Y-55618184D01*
X109269977Y-55670810D01*
X109315566Y-55737533D01*
X109346449Y-55827571D01*
X109365397Y-55950142D01*
X109375179Y-56114464D01*
X109378564Y-56329756D01*
X109378750Y-56419750D01*
X109376963Y-56655256D01*
X109369758Y-56836536D01*
X109354366Y-56972808D01*
X109328016Y-57073289D01*
X109287940Y-57147197D01*
X109231369Y-57203752D01*
X109155534Y-57252169D01*
X109123610Y-57269062D01*
X109044532Y-57304068D01*
X108961436Y-57325665D01*
X108855757Y-57336799D01*
X108708929Y-57340418D01*
X108673522Y-57340500D01*
X108362750Y-57340500D01*
X108362750Y-57093897D01*
X108616750Y-57093897D01*
X108826963Y-57080512D01*
X108955008Y-57067267D01*
X109034425Y-57044738D01*
X109079887Y-57008693D01*
X109080963Y-57007244D01*
X109099031Y-56950156D01*
X109112755Y-56843311D01*
X109122135Y-56700306D01*
X109127173Y-56534737D01*
X109127867Y-56360197D01*
X109124217Y-56190284D01*
X109116224Y-56038593D01*
X109103887Y-55918718D01*
X109087207Y-55844256D01*
X109080963Y-55832255D01*
X109036360Y-55795698D01*
X108958278Y-55772796D01*
X108832047Y-55759316D01*
X108826963Y-55758987D01*
X108616750Y-55745602D01*
X108616750Y-57093897D01*
X108362750Y-57093897D01*
X108362750Y-55499000D01*
X108673522Y-55499000D01*
X108830653Y-55501485D01*
G37*
X108830653Y-55501485D02*
X108942975Y-55510904D01*
X109029054Y-55530205D01*
X109107455Y-55562334D01*
X109123610Y-55570437D01*
X109206915Y-55618184D01*
X109269977Y-55670810D01*
X109315566Y-55737533D01*
X109346449Y-55827571D01*
X109365397Y-55950142D01*
X109375179Y-56114464D01*
X109378564Y-56329756D01*
X109378750Y-56419750D01*
X109376963Y-56655256D01*
X109369758Y-56836536D01*
X109354366Y-56972808D01*
X109328016Y-57073289D01*
X109287940Y-57147197D01*
X109231369Y-57203752D01*
X109155534Y-57252169D01*
X109123610Y-57269062D01*
X109044532Y-57304068D01*
X108961436Y-57325665D01*
X108855757Y-57336799D01*
X108708929Y-57340418D01*
X108673522Y-57340500D01*
X108362750Y-57340500D01*
X108362750Y-57093897D01*
X108616750Y-57093897D01*
X108826963Y-57080512D01*
X108955008Y-57067267D01*
X109034425Y-57044738D01*
X109079887Y-57008693D01*
X109080963Y-57007244D01*
X109099031Y-56950156D01*
X109112755Y-56843311D01*
X109122135Y-56700306D01*
X109127173Y-56534737D01*
X109127867Y-56360197D01*
X109124217Y-56190284D01*
X109116224Y-56038593D01*
X109103887Y-55918718D01*
X109087207Y-55844256D01*
X109080963Y-55832255D01*
X109036360Y-55795698D01*
X108958278Y-55772796D01*
X108832047Y-55759316D01*
X108826963Y-55758987D01*
X108616750Y-55745602D01*
X108616750Y-57093897D01*
X108362750Y-57093897D01*
X108362750Y-55499000D01*
X108673522Y-55499000D01*
X108830653Y-55501485D01*
G36*
X111754584Y-56211651D02*
G01*
X111879062Y-56258127D01*
X111970065Y-56341580D01*
X111971571Y-56343849D01*
X112002875Y-56413301D01*
X111983470Y-56462407D01*
X111907540Y-56502837D01*
X111889010Y-56509541D01*
X111812998Y-56526148D01*
X111766154Y-56505675D01*
X111758064Y-56496792D01*
X111698901Y-56455921D01*
X111643751Y-56459512D01*
X111612353Y-56499537D01*
X111618101Y-56553720D01*
X111653374Y-56592991D01*
X111726738Y-56648157D01*
X111795845Y-56691522D01*
X111928284Y-56792044D01*
X112013292Y-56906095D01*
X112049671Y-57023863D01*
X112036223Y-57135532D01*
X111971751Y-57231292D01*
X111869589Y-57295562D01*
X111712231Y-57336723D01*
X111571228Y-57319010D01*
X111474260Y-57269062D01*
X111392914Y-57203603D01*
X111329769Y-57136149D01*
X111323490Y-57127199D01*
X111298110Y-57079375D01*
X111309740Y-57047687D01*
X111368039Y-57013620D01*
X111387692Y-57004155D01*
X111461997Y-56972360D01*
X111507598Y-56972108D01*
X111552314Y-57006001D01*
X111567470Y-57020970D01*
X111640254Y-57069067D01*
X111711422Y-57079324D01*
X111762288Y-57052783D01*
X111775875Y-57009364D01*
X111745476Y-56950732D01*
X111655840Y-56878828D01*
X111610350Y-56850614D01*
X111512155Y-56787003D01*
X111431886Y-56724816D01*
X111397047Y-56689625D01*
X111352735Y-56583465D01*
X111358967Y-56466971D01*
X111408408Y-56355928D01*
X111493721Y-56266120D01*
X111607572Y-56213330D01*
X111619568Y-56210821D01*
X111754584Y-56211651D01*
G37*
X111754584Y-56211651D02*
X111879062Y-56258127D01*
X111970065Y-56341580D01*
X111971571Y-56343849D01*
X112002875Y-56413301D01*
X111983470Y-56462407D01*
X111907540Y-56502837D01*
X111889010Y-56509541D01*
X111812998Y-56526148D01*
X111766154Y-56505675D01*
X111758064Y-56496792D01*
X111698901Y-56455921D01*
X111643751Y-56459512D01*
X111612353Y-56499537D01*
X111618101Y-56553720D01*
X111653374Y-56592991D01*
X111726738Y-56648157D01*
X111795845Y-56691522D01*
X111928284Y-56792044D01*
X112013292Y-56906095D01*
X112049671Y-57023863D01*
X112036223Y-57135532D01*
X111971751Y-57231292D01*
X111869589Y-57295562D01*
X111712231Y-57336723D01*
X111571228Y-57319010D01*
X111474260Y-57269062D01*
X111392914Y-57203603D01*
X111329769Y-57136149D01*
X111323490Y-57127199D01*
X111298110Y-57079375D01*
X111309740Y-57047687D01*
X111368039Y-57013620D01*
X111387692Y-57004155D01*
X111461997Y-56972360D01*
X111507598Y-56972108D01*
X111552314Y-57006001D01*
X111567470Y-57020970D01*
X111640254Y-57069067D01*
X111711422Y-57079324D01*
X111762288Y-57052783D01*
X111775875Y-57009364D01*
X111745476Y-56950732D01*
X111655840Y-56878828D01*
X111610350Y-56850614D01*
X111512155Y-56787003D01*
X111431886Y-56724816D01*
X111397047Y-56689625D01*
X111352735Y-56583465D01*
X111358967Y-56466971D01*
X111408408Y-56355928D01*
X111493721Y-56266120D01*
X111607572Y-56213330D01*
X111619568Y-56210821D01*
X111754584Y-56211651D01*
G36*
X112744250Y-57340500D02*
G01*
X112490250Y-57340500D01*
X112490250Y-56197500D01*
X112744250Y-56197500D01*
X112744250Y-57340500D01*
G37*
X112744250Y-57340500D02*
X112490250Y-57340500D01*
X112490250Y-56197500D01*
X112744250Y-56197500D01*
X112744250Y-57340500D01*
G36*
X114855780Y-56204367D02*
G01*
X114900013Y-56221524D01*
X114903250Y-56228464D01*
X114928711Y-56242408D01*
X114990562Y-56226135D01*
X115108479Y-56206466D01*
X115241662Y-56220708D01*
X115360708Y-56263790D01*
X115410102Y-56298495D01*
X115474476Y-56371717D01*
X115519810Y-56459742D01*
X115548941Y-56574280D01*
X115564707Y-56727041D01*
X115569944Y-56929736D01*
X115570000Y-56958480D01*
X115570000Y-57340500D01*
X115316000Y-57340500D01*
X115316000Y-56959500D01*
X115314929Y-56794863D01*
X115310534Y-56681271D01*
X115301037Y-56606287D01*
X115284662Y-56557474D01*
X115259632Y-56522397D01*
X115252500Y-56515000D01*
X115157237Y-56459867D01*
X115050434Y-56461872D01*
X114980755Y-56496499D01*
X114954652Y-56522215D01*
X114936401Y-56562219D01*
X114924149Y-56627923D01*
X114916044Y-56730742D01*
X114910232Y-56882089D01*
X114908598Y-56940999D01*
X114898071Y-57340500D01*
X114649250Y-57340500D01*
X114649250Y-56197500D01*
X114776250Y-56197500D01*
X114855780Y-56204367D01*
G37*
X114855780Y-56204367D02*
X114900013Y-56221524D01*
X114903250Y-56228464D01*
X114928711Y-56242408D01*
X114990562Y-56226135D01*
X115108479Y-56206466D01*
X115241662Y-56220708D01*
X115360708Y-56263790D01*
X115410102Y-56298495D01*
X115474476Y-56371717D01*
X115519810Y-56459742D01*
X115548941Y-56574280D01*
X115564707Y-56727041D01*
X115569944Y-56929736D01*
X115570000Y-56958480D01*
X115570000Y-57340500D01*
X115316000Y-57340500D01*
X115316000Y-56959500D01*
X115314929Y-56794863D01*
X115310534Y-56681271D01*
X115301037Y-56606287D01*
X115284662Y-56557474D01*
X115259632Y-56522397D01*
X115252500Y-56515000D01*
X115157237Y-56459867D01*
X115050434Y-56461872D01*
X114980755Y-56496499D01*
X114954652Y-56522215D01*
X114936401Y-56562219D01*
X114924149Y-56627923D01*
X114916044Y-56730742D01*
X114910232Y-56882089D01*
X114908598Y-56940999D01*
X114898071Y-57340500D01*
X114649250Y-57340500D01*
X114649250Y-56197500D01*
X114776250Y-56197500D01*
X114855780Y-56204367D01*
G36*
X112998250Y-48133000D02*
G01*
X112750600Y-48133000D01*
X112611173Y-48138030D01*
X112511127Y-48152011D01*
X112464850Y-48171099D01*
X112443181Y-48222835D01*
X112429380Y-48313566D01*
X112426750Y-48377474D01*
X112426750Y-48545750D01*
X111988600Y-48545750D01*
X111779687Y-48548403D01*
X111631660Y-48556493D01*
X111542121Y-48570210D01*
X111512350Y-48583849D01*
X111505267Y-48605919D01*
X111499036Y-48659124D01*
X111493615Y-48746521D01*
X111488961Y-48871169D01*
X111485032Y-49036127D01*
X111481785Y-49244453D01*
X111479179Y-49499205D01*
X111477172Y-49803441D01*
X111475721Y-50160221D01*
X111474784Y-50572602D01*
X111474320Y-51043643D01*
X111474250Y-51346100D01*
X111474203Y-51824955D01*
X111474008Y-52244255D01*
X111473582Y-52607943D01*
X111472842Y-52919963D01*
X111471706Y-53184259D01*
X111470091Y-53404775D01*
X111467913Y-53585455D01*
X111465091Y-53730243D01*
X111461541Y-53843083D01*
X111457181Y-53927919D01*
X111451928Y-53988696D01*
X111445699Y-54029356D01*
X111438412Y-54053845D01*
X111429984Y-54066105D01*
X111420331Y-54070082D01*
X111417099Y-54070250D01*
X111371150Y-54075224D01*
X111337074Y-54095568D01*
X111313129Y-54139414D01*
X111297568Y-54214893D01*
X111288649Y-54330136D01*
X111284626Y-54493275D01*
X111283750Y-54691837D01*
X111284643Y-54897074D01*
X111287814Y-55047703D01*
X111293996Y-55152599D01*
X111303923Y-55220635D01*
X111318330Y-55260685D01*
X111332203Y-55277437D01*
X111385129Y-55292750D01*
X111491256Y-55300681D01*
X111640761Y-55301616D01*
X111823819Y-55295939D01*
X112030608Y-55284037D01*
X112251304Y-55266292D01*
X112476086Y-55243092D01*
X112601375Y-55227692D01*
X112744178Y-55209258D01*
X112863310Y-55194337D01*
X112944945Y-55184632D01*
X112974437Y-55181756D01*
X112982723Y-55211582D01*
X112989756Y-55293938D01*
X112994985Y-55417857D01*
X112997864Y-55572373D01*
X112998250Y-55657750D01*
X112998250Y-56134000D01*
X112895062Y-56134056D01*
X112791875Y-56134113D01*
X112791875Y-55705375D01*
X112442625Y-55705375D01*
X112442625Y-56134113D01*
X110946136Y-56134056D01*
X109449647Y-56134000D01*
X109436520Y-55927850D01*
X109425182Y-55808428D01*
X109403676Y-55728115D01*
X109362669Y-55662522D01*
X109314660Y-55609517D01*
X109230609Y-55535465D01*
X109138122Y-55484874D01*
X109024053Y-55454431D01*
X108875257Y-55440820D01*
X108678589Y-55440728D01*
X108648500Y-55441545D01*
X108315125Y-55451375D01*
X108306113Y-55792687D01*
X108297101Y-56134000D01*
X104457500Y-56134000D01*
X104457500Y-54297081D01*
X104622455Y-54297081D01*
X104622646Y-54354367D01*
X104628869Y-54399212D01*
X104644615Y-54437605D01*
X104678218Y-54476640D01*
X104738013Y-54523414D01*
X104832335Y-54585025D01*
X104969517Y-54668567D01*
X105044071Y-54713187D01*
X105235965Y-54825027D01*
X105384678Y-54902669D01*
X105499637Y-54947477D01*
X105590269Y-54960816D01*
X105665999Y-54944051D01*
X105736256Y-54898545D01*
X105810465Y-54825664D01*
X105811710Y-54824312D01*
X106035036Y-54551787D01*
X106235890Y-54249024D01*
X106403073Y-53934957D01*
X106525387Y-53628520D01*
X106532859Y-53605027D01*
X106573988Y-53448907D01*
X106609692Y-53267618D01*
X106639034Y-53072662D01*
X106661076Y-52875542D01*
X106674882Y-52687760D01*
X106679514Y-52520819D01*
X106674034Y-52386221D01*
X106657506Y-52295468D01*
X106641900Y-52266850D01*
X106600518Y-52251090D01*
X106509743Y-52239719D01*
X106365497Y-52232473D01*
X106163705Y-52229086D01*
X106056325Y-52228750D01*
X105857624Y-52229082D01*
X105712768Y-52230840D01*
X105612104Y-52235164D01*
X105545977Y-52243197D01*
X105504733Y-52256078D01*
X105478718Y-52274951D01*
X105459425Y-52299314D01*
X105427164Y-52380749D01*
X105410893Y-52497289D01*
X105410000Y-52532360D01*
X105383523Y-52791943D01*
X105306602Y-53076039D01*
X105183001Y-53376092D01*
X105016483Y-53683543D01*
X104810810Y-53989833D01*
X104713519Y-54116242D01*
X104647778Y-54212853D01*
X104622455Y-54297081D01*
X104457500Y-54297081D01*
X104457500Y-50196430D01*
X104616250Y-50196430D01*
X104636208Y-50280110D01*
X104671812Y-50332256D01*
X104717138Y-50359848D01*
X104811109Y-50407552D01*
X104943902Y-50470714D01*
X105105689Y-50544679D01*
X105286647Y-50624792D01*
X105318872Y-50638802D01*
X105554833Y-50738972D01*
X105740069Y-50812575D01*
X105880512Y-50861714D01*
X105982095Y-50888494D01*
X106041830Y-50895250D01*
X106173290Y-50895250D01*
X106109145Y-51020985D01*
X106059706Y-51154625D01*
X106047581Y-51278240D01*
X106073127Y-51375596D01*
X106100562Y-51409723D01*
X106162650Y-51446589D01*
X106270822Y-51494681D01*
X106410707Y-51549140D01*
X106567934Y-51605109D01*
X106728134Y-51657729D01*
X106876933Y-51702140D01*
X106999963Y-51733485D01*
X107082853Y-51746905D01*
X107097411Y-51746742D01*
X107164067Y-51729816D01*
X107224219Y-51687566D01*
X107283772Y-51611898D01*
X107348631Y-51494716D01*
X107424699Y-51327925D01*
X107455025Y-51256422D01*
X107595249Y-50861749D01*
X107697638Y-50434401D01*
X107731125Y-50236437D01*
X107770486Y-49974500D01*
X109284250Y-49974500D01*
X109264010Y-50109437D01*
X109248808Y-50190895D01*
X109223237Y-50307868D01*
X109190741Y-50446603D01*
X109154767Y-50593349D01*
X109118762Y-50734353D01*
X109086170Y-50855864D01*
X109060438Y-50944129D01*
X109045012Y-50985396D01*
X109044282Y-50986301D01*
X109038353Y-50962889D01*
X109033558Y-50888110D01*
X109030436Y-50774091D01*
X109029500Y-50653606D01*
X109029495Y-50489140D01*
X109024094Y-50366386D01*
X109005214Y-50279258D01*
X108964775Y-50221668D01*
X108894693Y-50187531D01*
X108786888Y-50170760D01*
X108633278Y-50165269D01*
X108425782Y-50164971D01*
X108380712Y-50165000D01*
X108161220Y-50166446D01*
X107999153Y-50171060D01*
X107888496Y-50179251D01*
X107823233Y-50191430D01*
X107799366Y-50204687D01*
X107788382Y-50247833D01*
X107776907Y-50343675D01*
X107765815Y-50481425D01*
X107755982Y-50650294D01*
X107748535Y-50831750D01*
X107725322Y-51286340D01*
X107686369Y-51688723D01*
X107629693Y-52048684D01*
X107553311Y-52376008D01*
X107455240Y-52680481D01*
X107333496Y-52971887D01*
X107300998Y-53040018D01*
X107136315Y-53345122D01*
X106945648Y-53634028D01*
X106718122Y-53921903D01*
X106479633Y-54185520D01*
X106362559Y-54310645D01*
X106283649Y-54401833D01*
X106235705Y-54469581D01*
X106211527Y-54524387D01*
X106203917Y-54576748D01*
X106203750Y-54587823D01*
X106206416Y-54632205D01*
X106219339Y-54672145D01*
X106249905Y-54715320D01*
X106305501Y-54769402D01*
X106393513Y-54842066D01*
X106521328Y-54940987D01*
X106604677Y-55004365D01*
X106779659Y-55136182D01*
X106914654Y-55230250D01*
X107020719Y-55286591D01*
X107108911Y-55305230D01*
X107190286Y-55286190D01*
X107275901Y-55229495D01*
X107376812Y-55135168D01*
X107501168Y-55006276D01*
X107680869Y-54813803D01*
X107827901Y-54644165D01*
X107957232Y-54478207D01*
X108083831Y-54296776D01*
X108215438Y-54092262D01*
X108295292Y-53963353D01*
X108349778Y-53884821D01*
X108390731Y-53857113D01*
X108429983Y-53880679D01*
X108479367Y-53955967D01*
X108550717Y-54083424D01*
X108563119Y-54105432D01*
X108669606Y-54274607D01*
X108811665Y-54472175D01*
X108978038Y-54683643D01*
X109157470Y-54894515D01*
X109281684Y-55030687D01*
X109401052Y-55155458D01*
X109497099Y-55243627D01*
X109580521Y-55294875D01*
X109662015Y-55308887D01*
X109752277Y-55285346D01*
X109862005Y-55223934D01*
X110001896Y-55124336D01*
X110158608Y-55004724D01*
X110308140Y-54888905D01*
X110414305Y-54803468D01*
X110484494Y-54740634D01*
X110526092Y-54692623D01*
X110546490Y-54651655D01*
X110553075Y-54609952D01*
X110553500Y-54588914D01*
X110547881Y-54533889D01*
X110526117Y-54478127D01*
X110480846Y-54410552D01*
X110404706Y-54320091D01*
X110296384Y-54202126D01*
X109969437Y-53824848D01*
X109699731Y-53449391D01*
X109482655Y-53065524D01*
X109313598Y-52663019D01*
X109187951Y-52231645D01*
X109101102Y-51761172D01*
X109067577Y-51475589D01*
X109056383Y-51348889D01*
X109053772Y-51275202D01*
X109060840Y-51244483D01*
X109078685Y-51246687D01*
X109091496Y-51256572D01*
X109139384Y-51277321D01*
X109236131Y-51305392D01*
X109367924Y-51337894D01*
X109520947Y-51371936D01*
X109681387Y-51404629D01*
X109835429Y-51433081D01*
X109969260Y-51454404D01*
X110069064Y-51465705D01*
X110096141Y-51466773D01*
X110182827Y-51449411D01*
X110244129Y-51411187D01*
X110278350Y-51348953D01*
X110319840Y-51236252D01*
X110365301Y-51085231D01*
X110411436Y-50908038D01*
X110454947Y-50716822D01*
X110492537Y-50523728D01*
X110504846Y-50450750D01*
X110520794Y-50321048D01*
X110533801Y-50155700D01*
X110543800Y-49965071D01*
X110550728Y-49759521D01*
X110554517Y-49549413D01*
X110555104Y-49345110D01*
X110552422Y-49156974D01*
X110546407Y-48995367D01*
X110536994Y-48870653D01*
X110524116Y-48793192D01*
X110515399Y-48774349D01*
X110488050Y-48764318D01*
X110425136Y-48756022D01*
X110322547Y-48749347D01*
X110176174Y-48744178D01*
X109981905Y-48740401D01*
X109735631Y-48737900D01*
X109433241Y-48736561D01*
X109150149Y-48736250D01*
X107823000Y-48736250D01*
X107823000Y-48472724D01*
X107818207Y-48325544D01*
X107804706Y-48221189D01*
X107784899Y-48171099D01*
X107738866Y-48156295D01*
X107642451Y-48144880D01*
X107508683Y-48136855D01*
X107350589Y-48132220D01*
X107181197Y-48130975D01*
X107013535Y-48133120D01*
X106860630Y-48138656D01*
X106735512Y-48147581D01*
X106651207Y-48159896D01*
X106622850Y-48171099D01*
X106603805Y-48223602D01*
X106591325Y-48337023D01*
X106585328Y-48512291D01*
X106584723Y-48607662D01*
X106582518Y-48759616D01*
X106576482Y-48931373D01*
X106567451Y-49111077D01*
X106556265Y-49286871D01*
X106543762Y-49446900D01*
X106530780Y-49579307D01*
X106518158Y-49672236D01*
X106506734Y-49713832D01*
X106506488Y-49714094D01*
X106475124Y-49705610D01*
X106394249Y-49674997D01*
X106272452Y-49625753D01*
X106118321Y-49561378D01*
X105940445Y-49485372D01*
X105866967Y-49453539D01*
X105621992Y-49349142D01*
X105427552Y-49271671D01*
X105277483Y-49219459D01*
X105165620Y-49190840D01*
X105085799Y-49184148D01*
X105031855Y-49197718D01*
X105004469Y-49220437D01*
X104972687Y-49274875D01*
X104925664Y-49374259D01*
X104868729Y-49505184D01*
X104807216Y-49654249D01*
X104746454Y-49808049D01*
X104691776Y-49953183D01*
X104648513Y-50076245D01*
X104621996Y-50163834D01*
X104616250Y-50196430D01*
X104457500Y-50196430D01*
X104457500Y-47593250D01*
X112998250Y-47593250D01*
X112998250Y-48133000D01*
G37*
X112998250Y-48133000D02*
X112750600Y-48133000D01*
X112611173Y-48138030D01*
X112511127Y-48152011D01*
X112464850Y-48171099D01*
X112443181Y-48222835D01*
X112429380Y-48313566D01*
X112426750Y-48377474D01*
X112426750Y-48545750D01*
X111988600Y-48545750D01*
X111779687Y-48548403D01*
X111631660Y-48556493D01*
X111542121Y-48570210D01*
X111512350Y-48583849D01*
X111505267Y-48605919D01*
X111499036Y-48659124D01*
X111493615Y-48746521D01*
X111488961Y-48871169D01*
X111485032Y-49036127D01*
X111481785Y-49244453D01*
X111479179Y-49499205D01*
X111477172Y-49803441D01*
X111475721Y-50160221D01*
X111474784Y-50572602D01*
X111474320Y-51043643D01*
X111474250Y-51346100D01*
X111474203Y-51824955D01*
X111474008Y-52244255D01*
X111473582Y-52607943D01*
X111472842Y-52919963D01*
X111471706Y-53184259D01*
X111470091Y-53404775D01*
X111467913Y-53585455D01*
X111465091Y-53730243D01*
X111461541Y-53843083D01*
X111457181Y-53927919D01*
X111451928Y-53988696D01*
X111445699Y-54029356D01*
X111438412Y-54053845D01*
X111429984Y-54066105D01*
X111420331Y-54070082D01*
X111417099Y-54070250D01*
X111371150Y-54075224D01*
X111337074Y-54095568D01*
X111313129Y-54139414D01*
X111297568Y-54214893D01*
X111288649Y-54330136D01*
X111284626Y-54493275D01*
X111283750Y-54691837D01*
X111284643Y-54897074D01*
X111287814Y-55047703D01*
X111293996Y-55152599D01*
X111303923Y-55220635D01*
X111318330Y-55260685D01*
X111332203Y-55277437D01*
X111385129Y-55292750D01*
X111491256Y-55300681D01*
X111640761Y-55301616D01*
X111823819Y-55295939D01*
X112030608Y-55284037D01*
X112251304Y-55266292D01*
X112476086Y-55243092D01*
X112601375Y-55227692D01*
X112744178Y-55209258D01*
X112863310Y-55194337D01*
X112944945Y-55184632D01*
X112974437Y-55181756D01*
X112982723Y-55211582D01*
X112989756Y-55293938D01*
X112994985Y-55417857D01*
X112997864Y-55572373D01*
X112998250Y-55657750D01*
X112998250Y-56134000D01*
X112895062Y-56134056D01*
X112791875Y-56134113D01*
X112791875Y-55705375D01*
X112442625Y-55705375D01*
X112442625Y-56134113D01*
X110946136Y-56134056D01*
X109449647Y-56134000D01*
X109436520Y-55927850D01*
X109425182Y-55808428D01*
X109403676Y-55728115D01*
X109362669Y-55662522D01*
X109314660Y-55609517D01*
X109230609Y-55535465D01*
X109138122Y-55484874D01*
X109024053Y-55454431D01*
X108875257Y-55440820D01*
X108678589Y-55440728D01*
X108648500Y-55441545D01*
X108315125Y-55451375D01*
X108306113Y-55792687D01*
X108297101Y-56134000D01*
X104457500Y-56134000D01*
X104457500Y-54297081D01*
X104622455Y-54297081D01*
X104622646Y-54354367D01*
X104628869Y-54399212D01*
X104644615Y-54437605D01*
X104678218Y-54476640D01*
X104738013Y-54523414D01*
X104832335Y-54585025D01*
X104969517Y-54668567D01*
X105044071Y-54713187D01*
X105235965Y-54825027D01*
X105384678Y-54902669D01*
X105499637Y-54947477D01*
X105590269Y-54960816D01*
X105665999Y-54944051D01*
X105736256Y-54898545D01*
X105810465Y-54825664D01*
X105811710Y-54824312D01*
X106035036Y-54551787D01*
X106235890Y-54249024D01*
X106403073Y-53934957D01*
X106525387Y-53628520D01*
X106532859Y-53605027D01*
X106573988Y-53448907D01*
X106609692Y-53267618D01*
X106639034Y-53072662D01*
X106661076Y-52875542D01*
X106674882Y-52687760D01*
X106679514Y-52520819D01*
X106674034Y-52386221D01*
X106657506Y-52295468D01*
X106641900Y-52266850D01*
X106600518Y-52251090D01*
X106509743Y-52239719D01*
X106365497Y-52232473D01*
X106163705Y-52229086D01*
X106056325Y-52228750D01*
X105857624Y-52229082D01*
X105712768Y-52230840D01*
X105612104Y-52235164D01*
X105545977Y-52243197D01*
X105504733Y-52256078D01*
X105478718Y-52274951D01*
X105459425Y-52299314D01*
X105427164Y-52380749D01*
X105410893Y-52497289D01*
X105410000Y-52532360D01*
X105383523Y-52791943D01*
X105306602Y-53076039D01*
X105183001Y-53376092D01*
X105016483Y-53683543D01*
X104810810Y-53989833D01*
X104713519Y-54116242D01*
X104647778Y-54212853D01*
X104622455Y-54297081D01*
X104457500Y-54297081D01*
X104457500Y-50196430D01*
X104616250Y-50196430D01*
X104636208Y-50280110D01*
X104671812Y-50332256D01*
X104717138Y-50359848D01*
X104811109Y-50407552D01*
X104943902Y-50470714D01*
X105105689Y-50544679D01*
X105286647Y-50624792D01*
X105318872Y-50638802D01*
X105554833Y-50738972D01*
X105740069Y-50812575D01*
X105880512Y-50861714D01*
X105982095Y-50888494D01*
X106041830Y-50895250D01*
X106173290Y-50895250D01*
X106109145Y-51020985D01*
X106059706Y-51154625D01*
X106047581Y-51278240D01*
X106073127Y-51375596D01*
X106100562Y-51409723D01*
X106162650Y-51446589D01*
X106270822Y-51494681D01*
X106410707Y-51549140D01*
X106567934Y-51605109D01*
X106728134Y-51657729D01*
X106876933Y-51702140D01*
X106999963Y-51733485D01*
X107082853Y-51746905D01*
X107097411Y-51746742D01*
X107164067Y-51729816D01*
X107224219Y-51687566D01*
X107283772Y-51611898D01*
X107348631Y-51494716D01*
X107424699Y-51327925D01*
X107455025Y-51256422D01*
X107595249Y-50861749D01*
X107697638Y-50434401D01*
X107731125Y-50236437D01*
X107770486Y-49974500D01*
X109284250Y-49974500D01*
X109264010Y-50109437D01*
X109248808Y-50190895D01*
X109223237Y-50307868D01*
X109190741Y-50446603D01*
X109154767Y-50593349D01*
X109118762Y-50734353D01*
X109086170Y-50855864D01*
X109060438Y-50944129D01*
X109045012Y-50985396D01*
X109044282Y-50986301D01*
X109038353Y-50962889D01*
X109033558Y-50888110D01*
X109030436Y-50774091D01*
X109029500Y-50653606D01*
X109029495Y-50489140D01*
X109024094Y-50366386D01*
X109005214Y-50279258D01*
X108964775Y-50221668D01*
X108894693Y-50187531D01*
X108786888Y-50170760D01*
X108633278Y-50165269D01*
X108425782Y-50164971D01*
X108380712Y-50165000D01*
X108161220Y-50166446D01*
X107999153Y-50171060D01*
X107888496Y-50179251D01*
X107823233Y-50191430D01*
X107799366Y-50204687D01*
X107788382Y-50247833D01*
X107776907Y-50343675D01*
X107765815Y-50481425D01*
X107755982Y-50650294D01*
X107748535Y-50831750D01*
X107725322Y-51286340D01*
X107686369Y-51688723D01*
X107629693Y-52048684D01*
X107553311Y-52376008D01*
X107455240Y-52680481D01*
X107333496Y-52971887D01*
X107300998Y-53040018D01*
X107136315Y-53345122D01*
X106945648Y-53634028D01*
X106718122Y-53921903D01*
X106479633Y-54185520D01*
X106362559Y-54310645D01*
X106283649Y-54401833D01*
X106235705Y-54469581D01*
X106211527Y-54524387D01*
X106203917Y-54576748D01*
X106203750Y-54587823D01*
X106206416Y-54632205D01*
X106219339Y-54672145D01*
X106249905Y-54715320D01*
X106305501Y-54769402D01*
X106393513Y-54842066D01*
X106521328Y-54940987D01*
X106604677Y-55004365D01*
X106779659Y-55136182D01*
X106914654Y-55230250D01*
X107020719Y-55286591D01*
X107108911Y-55305230D01*
X107190286Y-55286190D01*
X107275901Y-55229495D01*
X107376812Y-55135168D01*
X107501168Y-55006276D01*
X107680869Y-54813803D01*
X107827901Y-54644165D01*
X107957232Y-54478207D01*
X108083831Y-54296776D01*
X108215438Y-54092262D01*
X108295292Y-53963353D01*
X108349778Y-53884821D01*
X108390731Y-53857113D01*
X108429983Y-53880679D01*
X108479367Y-53955967D01*
X108550717Y-54083424D01*
X108563119Y-54105432D01*
X108669606Y-54274607D01*
X108811665Y-54472175D01*
X108978038Y-54683643D01*
X109157470Y-54894515D01*
X109281684Y-55030687D01*
X109401052Y-55155458D01*
X109497099Y-55243627D01*
X109580521Y-55294875D01*
X109662015Y-55308887D01*
X109752277Y-55285346D01*
X109862005Y-55223934D01*
X110001896Y-55124336D01*
X110158608Y-55004724D01*
X110308140Y-54888905D01*
X110414305Y-54803468D01*
X110484494Y-54740634D01*
X110526092Y-54692623D01*
X110546490Y-54651655D01*
X110553075Y-54609952D01*
X110553500Y-54588914D01*
X110547881Y-54533889D01*
X110526117Y-54478127D01*
X110480846Y-54410552D01*
X110404706Y-54320091D01*
X110296384Y-54202126D01*
X109969437Y-53824848D01*
X109699731Y-53449391D01*
X109482655Y-53065524D01*
X109313598Y-52663019D01*
X109187951Y-52231645D01*
X109101102Y-51761172D01*
X109067577Y-51475589D01*
X109056383Y-51348889D01*
X109053772Y-51275202D01*
X109060840Y-51244483D01*
X109078685Y-51246687D01*
X109091496Y-51256572D01*
X109139384Y-51277321D01*
X109236131Y-51305392D01*
X109367924Y-51337894D01*
X109520947Y-51371936D01*
X109681387Y-51404629D01*
X109835429Y-51433081D01*
X109969260Y-51454404D01*
X110069064Y-51465705D01*
X110096141Y-51466773D01*
X110182827Y-51449411D01*
X110244129Y-51411187D01*
X110278350Y-51348953D01*
X110319840Y-51236252D01*
X110365301Y-51085231D01*
X110411436Y-50908038D01*
X110454947Y-50716822D01*
X110492537Y-50523728D01*
X110504846Y-50450750D01*
X110520794Y-50321048D01*
X110533801Y-50155700D01*
X110543800Y-49965071D01*
X110550728Y-49759521D01*
X110554517Y-49549413D01*
X110555104Y-49345110D01*
X110552422Y-49156974D01*
X110546407Y-48995367D01*
X110536994Y-48870653D01*
X110524116Y-48793192D01*
X110515399Y-48774349D01*
X110488050Y-48764318D01*
X110425136Y-48756022D01*
X110322547Y-48749347D01*
X110176174Y-48744178D01*
X109981905Y-48740401D01*
X109735631Y-48737900D01*
X109433241Y-48736561D01*
X109150149Y-48736250D01*
X107823000Y-48736250D01*
X107823000Y-48472724D01*
X107818207Y-48325544D01*
X107804706Y-48221189D01*
X107784899Y-48171099D01*
X107738866Y-48156295D01*
X107642451Y-48144880D01*
X107508683Y-48136855D01*
X107350589Y-48132220D01*
X107181197Y-48130975D01*
X107013535Y-48133120D01*
X106860630Y-48138656D01*
X106735512Y-48147581D01*
X106651207Y-48159896D01*
X106622850Y-48171099D01*
X106603805Y-48223602D01*
X106591325Y-48337023D01*
X106585328Y-48512291D01*
X106584723Y-48607662D01*
X106582518Y-48759616D01*
X106576482Y-48931373D01*
X106567451Y-49111077D01*
X106556265Y-49286871D01*
X106543762Y-49446900D01*
X106530780Y-49579307D01*
X106518158Y-49672236D01*
X106506734Y-49713832D01*
X106506488Y-49714094D01*
X106475124Y-49705610D01*
X106394249Y-49674997D01*
X106272452Y-49625753D01*
X106118321Y-49561378D01*
X105940445Y-49485372D01*
X105866967Y-49453539D01*
X105621992Y-49349142D01*
X105427552Y-49271671D01*
X105277483Y-49219459D01*
X105165620Y-49190840D01*
X105085799Y-49184148D01*
X105031855Y-49197718D01*
X105004469Y-49220437D01*
X104972687Y-49274875D01*
X104925664Y-49374259D01*
X104868729Y-49505184D01*
X104807216Y-49654249D01*
X104746454Y-49808049D01*
X104691776Y-49953183D01*
X104648513Y-50076245D01*
X104621996Y-50163834D01*
X104616250Y-50196430D01*
X104457500Y-50196430D01*
X104457500Y-47593250D01*
X112998250Y-47593250D01*
X112998250Y-48133000D01*
G36*
X112744250Y-56070500D02*
G01*
X112490250Y-56070500D01*
X112490250Y-55753000D01*
X112744250Y-55753000D01*
X112744250Y-56070500D01*
G37*
X112744250Y-56070500D02*
X112490250Y-56070500D01*
X112490250Y-55753000D01*
X112744250Y-55753000D01*
X112744250Y-56070500D01*
G36*
X113831383Y-52706237D02*
G01*
X113971879Y-52709646D01*
X114076296Y-52714772D01*
X114133652Y-52721162D01*
X114141250Y-52724662D01*
X114146090Y-52761110D01*
X114159697Y-52851630D01*
X114180696Y-52987610D01*
X114207715Y-53160438D01*
X114239381Y-53361500D01*
X114274321Y-53582186D01*
X114311162Y-53813881D01*
X114348530Y-54047973D01*
X114385053Y-54275851D01*
X114419357Y-54488900D01*
X114450070Y-54678509D01*
X114475818Y-54836065D01*
X114495229Y-54952955D01*
X114506929Y-55020568D01*
X114508883Y-55030687D01*
X114527295Y-55118000D01*
X113577865Y-55118000D01*
X113557965Y-54993550D01*
X113542225Y-54914460D01*
X113517634Y-54883899D01*
X113466265Y-54887549D01*
X113434845Y-54895218D01*
X113331925Y-54920458D01*
X113244312Y-54940898D01*
X113157000Y-54960459D01*
X113157000Y-54498483D01*
X113158589Y-54303547D01*
X113163729Y-54165379D01*
X113172976Y-54077317D01*
X113186890Y-54032700D01*
X113196687Y-54024280D01*
X113257061Y-54008395D01*
X113318013Y-53994346D01*
X113399651Y-53976638D01*
X113311724Y-53428131D01*
X113281831Y-53242607D01*
X113254292Y-53073461D01*
X113231129Y-52932974D01*
X113214362Y-52833427D01*
X113207067Y-52792312D01*
X113190337Y-52705000D01*
X113665793Y-52705000D01*
X113831383Y-52706237D01*
G37*
X113831383Y-52706237D02*
X113971879Y-52709646D01*
X114076296Y-52714772D01*
X114133652Y-52721162D01*
X114141250Y-52724662D01*
X114146090Y-52761110D01*
X114159697Y-52851630D01*
X114180696Y-52987610D01*
X114207715Y-53160438D01*
X114239381Y-53361500D01*
X114274321Y-53582186D01*
X114311162Y-53813881D01*
X114348530Y-54047973D01*
X114385053Y-54275851D01*
X114419357Y-54488900D01*
X114450070Y-54678509D01*
X114475818Y-54836065D01*
X114495229Y-54952955D01*
X114506929Y-55020568D01*
X114508883Y-55030687D01*
X114527295Y-55118000D01*
X113577865Y-55118000D01*
X113557965Y-54993550D01*
X113542225Y-54914460D01*
X113517634Y-54883899D01*
X113466265Y-54887549D01*
X113434845Y-54895218D01*
X113331925Y-54920458D01*
X113244312Y-54940898D01*
X113157000Y-54960459D01*
X113157000Y-54498483D01*
X113158589Y-54303547D01*
X113163729Y-54165379D01*
X113172976Y-54077317D01*
X113186890Y-54032700D01*
X113196687Y-54024280D01*
X113257061Y-54008395D01*
X113318013Y-53994346D01*
X113399651Y-53976638D01*
X113311724Y-53428131D01*
X113281831Y-53242607D01*
X113254292Y-53073461D01*
X113231129Y-52932974D01*
X113214362Y-52833427D01*
X113207067Y-52792312D01*
X113190337Y-52705000D01*
X113665793Y-52705000D01*
X113831383Y-52706237D01*
G36*
X117030500Y-49877970D02*
G01*
X116855875Y-50514250D01*
X116803233Y-50709056D01*
X116756951Y-50886053D01*
X116719578Y-51035024D01*
X116693660Y-51145754D01*
X116681743Y-51208028D01*
X116681250Y-51214654D01*
X116695180Y-51283639D01*
X116729721Y-51374302D01*
X116740375Y-51396577D01*
X116819296Y-51583636D01*
X116892851Y-51814224D01*
X116955100Y-52068372D01*
X116982047Y-52209096D01*
X117006381Y-52397662D01*
X117022004Y-52618110D01*
X117028910Y-52853393D01*
X117027090Y-53086464D01*
X117016538Y-53300275D01*
X116997245Y-53477778D01*
X116982632Y-53554920D01*
X116892286Y-53828004D01*
X116762004Y-54052846D01*
X116592967Y-54228325D01*
X116386360Y-54353321D01*
X116143364Y-54426711D01*
X116049206Y-54440075D01*
X115855750Y-54460295D01*
X115855750Y-54010592D01*
X115856070Y-53833560D01*
X115858158Y-53709511D01*
X115863699Y-53627926D01*
X115874383Y-53578288D01*
X115891896Y-53550078D01*
X115917925Y-53532779D01*
X115933594Y-53525420D01*
X116022001Y-53450847D01*
X116085669Y-53321247D01*
X116123904Y-53140367D01*
X116136011Y-52911951D01*
X116121296Y-52639744D01*
X116112657Y-52559415D01*
X116077546Y-52313125D01*
X116031980Y-52105533D01*
X115968708Y-51911918D01*
X115880477Y-51707559D01*
X115835909Y-51615938D01*
X115696676Y-51336501D01*
X115887338Y-50625977D01*
X115941765Y-50421010D01*
X115990138Y-50234746D01*
X116030117Y-50076536D01*
X116059361Y-49955732D01*
X116075529Y-49881686D01*
X116078000Y-49864265D01*
X116069129Y-49838451D01*
X116034322Y-49824220D01*
X115961282Y-49819480D01*
X115837714Y-49822136D01*
X115831937Y-49822351D01*
X115585875Y-49831625D01*
X115577755Y-52474812D01*
X115569635Y-55118000D01*
X114681000Y-55118000D01*
X114681000Y-48926750D01*
X117030500Y-48926750D01*
X117030500Y-49877970D01*
G37*
X117030500Y-49877970D02*
X116855875Y-50514250D01*
X116803233Y-50709056D01*
X116756951Y-50886053D01*
X116719578Y-51035024D01*
X116693660Y-51145754D01*
X116681743Y-51208028D01*
X116681250Y-51214654D01*
X116695180Y-51283639D01*
X116729721Y-51374302D01*
X116740375Y-51396577D01*
X116819296Y-51583636D01*
X116892851Y-51814224D01*
X116955100Y-52068372D01*
X116982047Y-52209096D01*
X117006381Y-52397662D01*
X117022004Y-52618110D01*
X117028910Y-52853393D01*
X117027090Y-53086464D01*
X117016538Y-53300275D01*
X116997245Y-53477778D01*
X116982632Y-53554920D01*
X116892286Y-53828004D01*
X116762004Y-54052846D01*
X116592967Y-54228325D01*
X116386360Y-54353321D01*
X116143364Y-54426711D01*
X116049206Y-54440075D01*
X115855750Y-54460295D01*
X115855750Y-54010592D01*
X115856070Y-53833560D01*
X115858158Y-53709511D01*
X115863699Y-53627926D01*
X115874383Y-53578288D01*
X115891896Y-53550078D01*
X115917925Y-53532779D01*
X115933594Y-53525420D01*
X116022001Y-53450847D01*
X116085669Y-53321247D01*
X116123904Y-53140367D01*
X116136011Y-52911951D01*
X116121296Y-52639744D01*
X116112657Y-52559415D01*
X116077546Y-52313125D01*
X116031980Y-52105533D01*
X115968708Y-51911918D01*
X115880477Y-51707559D01*
X115835909Y-51615938D01*
X115696676Y-51336501D01*
X115887338Y-50625977D01*
X115941765Y-50421010D01*
X115990138Y-50234746D01*
X116030117Y-50076536D01*
X116059361Y-49955732D01*
X116075529Y-49881686D01*
X116078000Y-49864265D01*
X116069129Y-49838451D01*
X116034322Y-49824220D01*
X115961282Y-49819480D01*
X115837714Y-49822136D01*
X115831937Y-49822351D01*
X115585875Y-49831625D01*
X115577755Y-52474812D01*
X115569635Y-55118000D01*
X114681000Y-55118000D01*
X114681000Y-48926750D01*
X117030500Y-48926750D01*
X117030500Y-49877970D01*
G36*
X112998250Y-53149500D02*
G01*
X112997645Y-53389253D01*
X112995558Y-53572377D01*
X112991579Y-53705730D01*
X112985297Y-53796172D01*
X112976303Y-53850566D01*
X112964186Y-53875769D01*
X112954593Y-53879750D01*
X112893610Y-53885719D01*
X112811718Y-53899593D01*
X112712500Y-53919437D01*
X112712500Y-52419250D01*
X112998250Y-52419250D01*
X112998250Y-53149500D01*
G37*
X112998250Y-53149500D02*
X112997645Y-53389253D01*
X112995558Y-53572377D01*
X112991579Y-53705730D01*
X112985297Y-53796172D01*
X112976303Y-53850566D01*
X112964186Y-53875769D01*
X112954593Y-53879750D01*
X112893610Y-53885719D01*
X112811718Y-53899593D01*
X112712500Y-53919437D01*
X112712500Y-52419250D01*
X112998250Y-52419250D01*
X112998250Y-53149500D01*
G36*
X113480986Y-48506062D02*
G01*
X113490375Y-48720375D01*
X113958687Y-48729161D01*
X114427000Y-48737947D01*
X114427000Y-52228750D01*
X113157000Y-52228750D01*
X113157000Y-51339750D01*
X113538000Y-51339750D01*
X113538000Y-50768250D01*
X113157000Y-50768250D01*
X113157000Y-50231668D01*
X113339562Y-50222146D01*
X113522125Y-50212625D01*
X113531253Y-49918937D01*
X113540382Y-49625249D01*
X113348691Y-49625249D01*
X113157000Y-49625250D01*
X113157000Y-48291750D01*
X113314299Y-48291749D01*
X113471598Y-48291749D01*
X113480986Y-48506062D01*
G37*
X113480986Y-48506062D02*
X113490375Y-48720375D01*
X113958687Y-48729161D01*
X114427000Y-48737947D01*
X114427000Y-52228750D01*
X113157000Y-52228750D01*
X113157000Y-51339750D01*
X113538000Y-51339750D01*
X113538000Y-50768250D01*
X113157000Y-50768250D01*
X113157000Y-50231668D01*
X113339562Y-50222146D01*
X113522125Y-50212625D01*
X113531253Y-49918937D01*
X113540382Y-49625249D01*
X113348691Y-49625249D01*
X113157000Y-49625250D01*
X113157000Y-48291750D01*
X113314299Y-48291749D01*
X113471598Y-48291749D01*
X113480986Y-48506062D01*
G36*
X112998250Y-51181000D02*
G01*
X112712500Y-51181000D01*
X112712500Y-50927000D01*
X112998250Y-50927000D01*
X112998250Y-51181000D01*
G37*
X112998250Y-51181000D02*
X112712500Y-51181000D01*
X112712500Y-50927000D01*
X112998250Y-50927000D01*
X112998250Y-51181000D01*
G36*
X112998250Y-50038000D02*
G01*
X112712500Y-50038000D01*
X112712500Y-49784000D01*
X112998250Y-49784000D01*
X112998250Y-50038000D01*
G37*
X112998250Y-50038000D02*
X112712500Y-50038000D01*
X112712500Y-49784000D01*
X112998250Y-49784000D01*
X112998250Y-50038000D01*
G36*
X108825886Y-55824656D02*
G01*
X108936548Y-55843293D01*
X109000517Y-55877347D01*
X109034594Y-55941244D01*
X109050681Y-56017677D01*
X109069558Y-56134000D01*
X108680250Y-56134000D01*
X108680250Y-55808241D01*
X108825886Y-55824656D01*
G37*
X108825886Y-55824656D02*
X108936548Y-55843293D01*
X109000517Y-55877347D01*
X109034594Y-55941244D01*
X109050681Y-56017677D01*
X109069558Y-56134000D01*
X108680250Y-56134000D01*
X108680250Y-55808241D01*
X108825886Y-55824656D01*
D11*
%TO.C,SW4*%
X142287500Y-106362500D02*
G75*
G03*
X142287500Y-106362500I-1000000J0D01*
G01*
X138687500Y-108962500D02*
X138687500Y-103762500D01*
X143887500Y-108962500D02*
X138687500Y-108962500D01*
X143887500Y-103762500D02*
X143887500Y-108962500D01*
X138687500Y-103762500D02*
X143887500Y-103762500D01*
%TO.C,SW3*%
X132762500Y-106362500D02*
G75*
G03*
X132762500Y-106362500I-1000000J0D01*
G01*
X129162500Y-108962500D02*
X129162500Y-103762500D01*
X134362500Y-108962500D02*
X129162500Y-108962500D01*
X134362500Y-103762500D02*
X134362500Y-108962500D01*
X129162500Y-103762500D02*
X134362500Y-103762500D01*
D12*
%TO.C,J1*%
X74096250Y-58515000D02*
X76716250Y-58515000D01*
X76716250Y-58515000D02*
X76716250Y-58815000D01*
X76716250Y-61835000D02*
X76716250Y-62135000D01*
X74096250Y-62135000D02*
X76716250Y-62135000D01*
X74096250Y-58515000D02*
X74096250Y-58815000D01*
X74096250Y-61835000D02*
X74096250Y-62135000D01*
X76716250Y-58815000D02*
X77796250Y-58815000D01*
%TO.C,Brd1*%
X123125000Y-35325000D02*
X150525000Y-35325000D01*
X150525000Y-35325000D02*
X150525000Y-62625000D01*
X150525000Y-62625000D02*
X123125000Y-62625000D01*
X123125000Y-62625000D02*
X123125000Y-35325000D01*
X146647000Y-55220000D02*
X123547000Y-55220000D01*
X123547000Y-55220000D02*
X123547000Y-38620000D01*
X123547000Y-38620000D02*
X146647000Y-38620000D01*
X131826000Y-35814000D02*
X141605000Y-35814000D01*
X141605000Y-35814000D02*
X141605000Y-38227000D01*
X141605000Y-38227000D02*
X131826000Y-38227000D01*
X131826000Y-35814000D02*
X131826000Y-38227000D01*
X146647000Y-38620000D02*
X149733000Y-38620000D01*
X146647000Y-55220000D02*
X149987000Y-55245000D01*
X149987000Y-55245000D02*
X149987000Y-38608000D01*
X149987000Y-38608000D02*
X149733000Y-38620000D01*
%TO.C,SW2*%
X186356250Y-49212500D02*
G75*
G03*
X186356250Y-49212500I-3000000J0D01*
G01*
X185356250Y-43312500D02*
X189456250Y-43312500D01*
X189456250Y-55112500D02*
X185356250Y-55112500D01*
X181356250Y-55112500D02*
X177256250Y-55112500D01*
X181356250Y-43312500D02*
X177256250Y-43312500D01*
X177256250Y-43312500D02*
X177256250Y-55112500D01*
X175856250Y-45412500D02*
X175556250Y-45112500D01*
X175556250Y-45112500D02*
X176156250Y-45112500D01*
X176156250Y-45112500D02*
X175856250Y-45412500D01*
X189456250Y-43312500D02*
X189456250Y-45712500D01*
X189456250Y-47912500D02*
X189456250Y-50512500D01*
X189456250Y-52712500D02*
X189456250Y-55112500D01*
X183356250Y-48712500D02*
X183356250Y-49712500D01*
X182856250Y-49212500D02*
X183856250Y-49212500D01*
D11*
%TO.C,SW1*%
X163560000Y-49530000D02*
G75*
G03*
X163560000Y-49530000I-1000000J0D01*
G01*
X159960000Y-52130000D02*
X159960000Y-46930000D01*
X165160000Y-52130000D02*
X159960000Y-52130000D01*
X165160000Y-46930000D02*
X165160000Y-52130000D01*
X159960000Y-46930000D02*
X165160000Y-46930000D01*
%TO.C,SW4*%
X139954166Y-110831261D02*
X140097023Y-110878880D01*
X140335119Y-110878880D01*
X140430357Y-110831261D01*
X140477976Y-110783642D01*
X140525595Y-110688404D01*
X140525595Y-110593166D01*
X140477976Y-110497928D01*
X140430357Y-110450309D01*
X140335119Y-110402690D01*
X140144642Y-110355071D01*
X140049404Y-110307452D01*
X140001785Y-110259833D01*
X139954166Y-110164595D01*
X139954166Y-110069357D01*
X140001785Y-109974119D01*
X140049404Y-109926500D01*
X140144642Y-109878880D01*
X140382738Y-109878880D01*
X140525595Y-109926500D01*
X140858928Y-109878880D02*
X141097023Y-110878880D01*
X141287500Y-110164595D01*
X141477976Y-110878880D01*
X141716071Y-109878880D01*
X142525595Y-110212214D02*
X142525595Y-110878880D01*
X142287500Y-109831261D02*
X142049404Y-110545547D01*
X142668452Y-110545547D01*
%TO.C,SW3*%
X130429166Y-110831261D02*
X130572023Y-110878880D01*
X130810119Y-110878880D01*
X130905357Y-110831261D01*
X130952976Y-110783642D01*
X131000595Y-110688404D01*
X131000595Y-110593166D01*
X130952976Y-110497928D01*
X130905357Y-110450309D01*
X130810119Y-110402690D01*
X130619642Y-110355071D01*
X130524404Y-110307452D01*
X130476785Y-110259833D01*
X130429166Y-110164595D01*
X130429166Y-110069357D01*
X130476785Y-109974119D01*
X130524404Y-109926500D01*
X130619642Y-109878880D01*
X130857738Y-109878880D01*
X131000595Y-109926500D01*
X131333928Y-109878880D02*
X131572023Y-110878880D01*
X131762500Y-110164595D01*
X131952976Y-110878880D01*
X132191071Y-109878880D01*
X132476785Y-109878880D02*
X133095833Y-109878880D01*
X132762500Y-110259833D01*
X132905357Y-110259833D01*
X133000595Y-110307452D01*
X133048214Y-110355071D01*
X133095833Y-110450309D01*
X133095833Y-110688404D01*
X133048214Y-110783642D01*
X133000595Y-110831261D01*
X132905357Y-110878880D01*
X132619642Y-110878880D01*
X132524404Y-110831261D01*
X132476785Y-110783642D01*
%TO.C,J1*%
X75072916Y-56527380D02*
X75072916Y-57241666D01*
X75025297Y-57384523D01*
X74930059Y-57479761D01*
X74787202Y-57527380D01*
X74691964Y-57527380D01*
X76072916Y-57527380D02*
X75501488Y-57527380D01*
X75787202Y-57527380D02*
X75787202Y-56527380D01*
X75691964Y-56670238D01*
X75596726Y-56765476D01*
X75501488Y-56813095D01*
%TO.C,Brd1*%
X135358333Y-47807571D02*
X135501190Y-47855190D01*
X135548809Y-47902809D01*
X135596428Y-47998047D01*
X135596428Y-48140904D01*
X135548809Y-48236142D01*
X135501190Y-48283761D01*
X135405952Y-48331380D01*
X135025000Y-48331380D01*
X135025000Y-47331380D01*
X135358333Y-47331380D01*
X135453571Y-47379000D01*
X135501190Y-47426619D01*
X135548809Y-47521857D01*
X135548809Y-47617095D01*
X135501190Y-47712333D01*
X135453571Y-47759952D01*
X135358333Y-47807571D01*
X135025000Y-47807571D01*
X136025000Y-48331380D02*
X136025000Y-47664714D01*
X136025000Y-47855190D02*
X136072619Y-47759952D01*
X136120238Y-47712333D01*
X136215476Y-47664714D01*
X136310714Y-47664714D01*
X137072619Y-48331380D02*
X137072619Y-47331380D01*
X137072619Y-48283761D02*
X136977380Y-48331380D01*
X136786904Y-48331380D01*
X136691666Y-48283761D01*
X136644047Y-48236142D01*
X136596428Y-48140904D01*
X136596428Y-47855190D01*
X136644047Y-47759952D01*
X136691666Y-47712333D01*
X136786904Y-47664714D01*
X136977380Y-47664714D01*
X137072619Y-47712333D01*
X138072619Y-48331380D02*
X137501190Y-48331380D01*
X137786904Y-48331380D02*
X137786904Y-47331380D01*
X137691666Y-47474238D01*
X137596428Y-47569476D01*
X137501190Y-47617095D01*
%TO.C,H4*%
X74168095Y-103908630D02*
X74168095Y-102908630D01*
X74168095Y-103384821D02*
X74739523Y-103384821D01*
X74739523Y-103908630D02*
X74739523Y-102908630D01*
X75644285Y-103241964D02*
X75644285Y-103908630D01*
X75406190Y-102861011D02*
X75168095Y-103575297D01*
X75787142Y-103575297D01*
%TO.C,H3*%
X197358095Y-35646130D02*
X197358095Y-34646130D01*
X197358095Y-35122321D02*
X197929523Y-35122321D01*
X197929523Y-35646130D02*
X197929523Y-34646130D01*
X198310476Y-34646130D02*
X198929523Y-34646130D01*
X198596190Y-35027083D01*
X198739047Y-35027083D01*
X198834285Y-35074702D01*
X198881904Y-35122321D01*
X198929523Y-35217559D01*
X198929523Y-35455654D01*
X198881904Y-35550892D01*
X198834285Y-35598511D01*
X198739047Y-35646130D01*
X198453333Y-35646130D01*
X198358095Y-35598511D01*
X198310476Y-35550892D01*
%TO.C,H2*%
X74168095Y-35646130D02*
X74168095Y-34646130D01*
X74168095Y-35122321D02*
X74739523Y-35122321D01*
X74739523Y-35646130D02*
X74739523Y-34646130D01*
X75168095Y-34741369D02*
X75215714Y-34693750D01*
X75310952Y-34646130D01*
X75549047Y-34646130D01*
X75644285Y-34693750D01*
X75691904Y-34741369D01*
X75739523Y-34836607D01*
X75739523Y-34931845D01*
X75691904Y-35074702D01*
X75120476Y-35646130D01*
X75739523Y-35646130D01*
%TO.C,H1*%
X197358095Y-103908630D02*
X197358095Y-102908630D01*
X197358095Y-103384821D02*
X197929523Y-103384821D01*
X197929523Y-103908630D02*
X197929523Y-102908630D01*
X198929523Y-103908630D02*
X198358095Y-103908630D01*
X198643809Y-103908630D02*
X198643809Y-102908630D01*
X198548571Y-103051488D01*
X198453333Y-103146726D01*
X198358095Y-103194345D01*
%TO.C,USB1*%
X85574404Y-43783630D02*
X85574404Y-44593154D01*
X85622023Y-44688392D01*
X85669642Y-44736011D01*
X85764880Y-44783630D01*
X85955357Y-44783630D01*
X86050595Y-44736011D01*
X86098214Y-44688392D01*
X86145833Y-44593154D01*
X86145833Y-43783630D01*
X86574404Y-44736011D02*
X86717261Y-44783630D01*
X86955357Y-44783630D01*
X87050595Y-44736011D01*
X87098214Y-44688392D01*
X87145833Y-44593154D01*
X87145833Y-44497916D01*
X87098214Y-44402678D01*
X87050595Y-44355059D01*
X86955357Y-44307440D01*
X86764880Y-44259821D01*
X86669642Y-44212202D01*
X86622023Y-44164583D01*
X86574404Y-44069345D01*
X86574404Y-43974107D01*
X86622023Y-43878869D01*
X86669642Y-43831250D01*
X86764880Y-43783630D01*
X87002976Y-43783630D01*
X87145833Y-43831250D01*
X87907738Y-44259821D02*
X88050595Y-44307440D01*
X88098214Y-44355059D01*
X88145833Y-44450297D01*
X88145833Y-44593154D01*
X88098214Y-44688392D01*
X88050595Y-44736011D01*
X87955357Y-44783630D01*
X87574404Y-44783630D01*
X87574404Y-43783630D01*
X87907738Y-43783630D01*
X88002976Y-43831250D01*
X88050595Y-43878869D01*
X88098214Y-43974107D01*
X88098214Y-44069345D01*
X88050595Y-44164583D01*
X88002976Y-44212202D01*
X87907738Y-44259821D01*
X87574404Y-44259821D01*
X89098214Y-44783630D02*
X88526785Y-44783630D01*
X88812500Y-44783630D02*
X88812500Y-43783630D01*
X88717261Y-43926488D01*
X88622023Y-44021726D01*
X88526785Y-44069345D01*
%TO.C,SW2*%
X177322916Y-42417261D02*
X177465773Y-42464880D01*
X177703869Y-42464880D01*
X177799107Y-42417261D01*
X177846726Y-42369642D01*
X177894345Y-42274404D01*
X177894345Y-42179166D01*
X177846726Y-42083928D01*
X177799107Y-42036309D01*
X177703869Y-41988690D01*
X177513392Y-41941071D01*
X177418154Y-41893452D01*
X177370535Y-41845833D01*
X177322916Y-41750595D01*
X177322916Y-41655357D01*
X177370535Y-41560119D01*
X177418154Y-41512500D01*
X177513392Y-41464880D01*
X177751488Y-41464880D01*
X177894345Y-41512500D01*
X178227678Y-41464880D02*
X178465773Y-42464880D01*
X178656250Y-41750595D01*
X178846726Y-42464880D01*
X179084821Y-41464880D01*
X179418154Y-41560119D02*
X179465773Y-41512500D01*
X179561011Y-41464880D01*
X179799107Y-41464880D01*
X179894345Y-41512500D01*
X179941964Y-41560119D01*
X179989583Y-41655357D01*
X179989583Y-41750595D01*
X179941964Y-41893452D01*
X179370535Y-42464880D01*
X179989583Y-42464880D01*
%TO.C,SW1*%
X161226666Y-53998761D02*
X161369523Y-54046380D01*
X161607619Y-54046380D01*
X161702857Y-53998761D01*
X161750476Y-53951142D01*
X161798095Y-53855904D01*
X161798095Y-53760666D01*
X161750476Y-53665428D01*
X161702857Y-53617809D01*
X161607619Y-53570190D01*
X161417142Y-53522571D01*
X161321904Y-53474952D01*
X161274285Y-53427333D01*
X161226666Y-53332095D01*
X161226666Y-53236857D01*
X161274285Y-53141619D01*
X161321904Y-53094000D01*
X161417142Y-53046380D01*
X161655238Y-53046380D01*
X161798095Y-53094000D01*
X162131428Y-53046380D02*
X162369523Y-54046380D01*
X162560000Y-53332095D01*
X162750476Y-54046380D01*
X162988571Y-53046380D01*
X163893333Y-54046380D02*
X163321904Y-54046380D01*
X163607619Y-54046380D02*
X163607619Y-53046380D01*
X163512380Y-53189238D01*
X163417142Y-53284476D01*
X163321904Y-53332095D01*
%TD*%
M02*
