%TF.GenerationSoftware,KiCad,Pcbnew,(5.1.9)-1*%
%TF.CreationDate,2021-03-29T02:27:37-07:00*%
%TF.ProjectId,millipad,6d696c6c-6970-4616-942e-6b696361645f,rev?*%
%TF.SameCoordinates,Original*%
%TF.FileFunction,Copper,L2,Bot*%
%TF.FilePolarity,Positive*%
%FSLAX46Y46*%
G04 Gerber Fmt 4.6, Leading zero omitted, Abs format (unit mm)*
G04 Created by KiCad (PCBNEW (5.1.9)-1) date 2021-03-29 02:27:37*
%MOMM*%
%LPD*%
G01*
G04 APERTURE LIST*
%TA.AperFunction,SMDPad,CuDef*%
%ADD10R,1.200000X0.900000*%
%TD*%
%TA.AperFunction,SMDPad,CuDef*%
%ADD11R,2.550000X2.500000*%
%TD*%
%TA.AperFunction,ComponentPad*%
%ADD12O,1.600000X2.000000*%
%TD*%
%TA.AperFunction,SMDPad,CuDef*%
%ADD13C,0.100000*%
%TD*%
%TA.AperFunction,ComponentPad*%
%ADD14O,1.000000X2.100000*%
%TD*%
%TA.AperFunction,ComponentPad*%
%ADD15O,1.000000X1.600000*%
%TD*%
%TA.AperFunction,SMDPad,CuDef*%
%ADD16R,0.482600X1.168400*%
%TD*%
%TA.AperFunction,SMDPad,CuDef*%
%ADD17R,0.889000X1.168400*%
%TD*%
%TA.AperFunction,ComponentPad*%
%ADD18C,2.000000*%
%TD*%
%TA.AperFunction,ComponentPad*%
%ADD19R,3.200000X2.000000*%
%TD*%
%TA.AperFunction,ComponentPad*%
%ADD20R,2.000000X2.000000*%
%TD*%
%TA.AperFunction,ViaPad*%
%ADD21C,0.800000*%
%TD*%
%TA.AperFunction,Conductor*%
%ADD22C,0.254000*%
%TD*%
%TA.AperFunction,Conductor*%
%ADD23C,0.381000*%
%TD*%
%TA.AperFunction,Conductor*%
%ADD24C,0.100000*%
%TD*%
G04 APERTURE END LIST*
D10*
%TO.P,D15,2*%
%TO.N,Net-(D15-Pad2)*%
X148431250Y-108012500D03*
%TO.P,D15,1*%
%TO.N,ROW2*%
X148431250Y-104712500D03*
%TD*%
%TO.P,D14,2*%
%TO.N,Net-(D14-Pad2)*%
X124618750Y-108012500D03*
%TO.P,D14,1*%
%TO.N,ROW2*%
X124618750Y-104712500D03*
%TD*%
D11*
%TO.P,MX1,2*%
%TO.N,Net-(D1-Pad2)*%
X94742000Y-67945000D03*
%TO.P,MX1,1*%
%TO.N,COL0*%
X81815000Y-70485000D03*
%TD*%
%TO.P,MX12,2*%
%TO.N,Net-(D12-Pad2)*%
X189992000Y-86995000D03*
%TO.P,MX12,1*%
%TO.N,COL5*%
X177065000Y-89535000D03*
%TD*%
%TO.P,MX11,2*%
%TO.N,Net-(D11-Pad2)*%
X189992000Y-67945000D03*
%TO.P,MX11,1*%
%TO.N,COL5*%
X177065000Y-70485000D03*
%TD*%
%TO.P,MX10,2*%
%TO.N,Net-(D10-Pad2)*%
X170942000Y-86995000D03*
%TO.P,MX10,1*%
%TO.N,COL4*%
X158015000Y-89535000D03*
%TD*%
%TO.P,MX9,2*%
%TO.N,Net-(D9-Pad2)*%
X170942000Y-67945000D03*
%TO.P,MX9,1*%
%TO.N,COL4*%
X158015000Y-70485000D03*
%TD*%
%TO.P,MX8,2*%
%TO.N,Net-(D8-Pad2)*%
X151892000Y-86995000D03*
%TO.P,MX8,1*%
%TO.N,COL3*%
X138965000Y-89535000D03*
%TD*%
%TO.P,MX7,2*%
%TO.N,Net-(D7-Pad2)*%
X151892000Y-67945000D03*
%TO.P,MX7,1*%
%TO.N,COL3*%
X138965000Y-70485000D03*
%TD*%
%TO.P,MX6,2*%
%TO.N,Net-(D6-Pad2)*%
X132842000Y-86995000D03*
%TO.P,MX6,1*%
%TO.N,COL2*%
X119915000Y-89535000D03*
%TD*%
%TO.P,MX5,2*%
%TO.N,Net-(D5-Pad2)*%
X132842000Y-67945000D03*
%TO.P,MX5,1*%
%TO.N,COL2*%
X119915000Y-70485000D03*
%TD*%
%TO.P,MX4,2*%
%TO.N,Net-(D4-Pad2)*%
X113792000Y-86995000D03*
%TO.P,MX4,1*%
%TO.N,COL1*%
X100865000Y-89535000D03*
%TD*%
%TO.P,MX3,2*%
%TO.N,Net-(D3-Pad2)*%
X113792000Y-67945000D03*
%TO.P,MX3,1*%
%TO.N,COL1*%
X100865000Y-70485000D03*
%TD*%
%TO.P,MX2,2*%
%TO.N,Net-(D2-Pad2)*%
X94742000Y-86995000D03*
%TO.P,MX2,1*%
%TO.N,COL0*%
X81815000Y-89535000D03*
%TD*%
D12*
%TO.P,Brd1,2*%
%TO.N,KEYBOARD_VCC*%
X135445000Y-37025000D03*
%TO.P,Brd1,1*%
%TO.N,KEYBOARD_GND*%
X132905000Y-37025000D03*
%TO.P,Brd1,3*%
%TO.N,SCL*%
X137985000Y-37025000D03*
%TO.P,Brd1,4*%
%TO.N,SDA*%
X140525000Y-37025000D03*
%TD*%
%TA.AperFunction,SMDPad,CuDef*%
D13*
%TO.P,Y1,4*%
%TO.N,KEYBOARD_GND*%
G36*
X117722488Y-43739403D02*
G01*
X118571016Y-44587931D01*
X117581066Y-45577881D01*
X116732538Y-44729353D01*
X117722488Y-43739403D01*
G37*
%TD.AperFunction*%
%TA.AperFunction,SMDPad,CuDef*%
%TO.P,Y1,3*%
%TO.N,Net-(C5-Pad1)*%
G36*
X116166853Y-45295038D02*
G01*
X117015381Y-46143566D01*
X116025431Y-47133516D01*
X115176903Y-46284988D01*
X116166853Y-45295038D01*
G37*
%TD.AperFunction*%
%TA.AperFunction,SMDPad,CuDef*%
%TO.P,Y1,2*%
%TO.N,KEYBOARD_GND*%
G36*
X117368934Y-46497119D02*
G01*
X118217462Y-47345647D01*
X117227512Y-48335597D01*
X116378984Y-47487069D01*
X117368934Y-46497119D01*
G37*
%TD.AperFunction*%
%TA.AperFunction,SMDPad,CuDef*%
%TO.P,Y1,1*%
%TO.N,Net-(C4-Pad1)*%
G36*
X118924569Y-44941484D02*
G01*
X119773097Y-45790012D01*
X118783147Y-46779962D01*
X117934619Y-45931434D01*
X118924569Y-44941484D01*
G37*
%TD.AperFunction*%
%TD*%
%TO.P,C4,2*%
%TO.N,KEYBOARD_GND*%
%TA.AperFunction,SMDPad,CuDef*%
G36*
G01*
X119202177Y-48401072D02*
X119873928Y-49072823D01*
G75*
G02*
X119873928Y-49426377I-176777J-176777D01*
G01*
X119520375Y-49779930D01*
G75*
G02*
X119166821Y-49779930I-176777J176777D01*
G01*
X118495070Y-49108179D01*
G75*
G02*
X118495070Y-48754625I176777J176777D01*
G01*
X118848623Y-48401072D01*
G75*
G02*
X119202177Y-48401072I176777J-176777D01*
G01*
G37*
%TD.AperFunction*%
%TO.P,C4,1*%
%TO.N,Net-(C4-Pad1)*%
%TA.AperFunction,SMDPad,CuDef*%
G36*
G01*
X120545679Y-47057570D02*
X121217430Y-47729321D01*
G75*
G02*
X121217430Y-48082875I-176777J-176777D01*
G01*
X120863877Y-48436428D01*
G75*
G02*
X120510323Y-48436428I-176777J176777D01*
G01*
X119838572Y-47764677D01*
G75*
G02*
X119838572Y-47411123I176777J176777D01*
G01*
X120192125Y-47057570D01*
G75*
G02*
X120545679Y-47057570I176777J-176777D01*
G01*
G37*
%TD.AperFunction*%
%TD*%
%TA.AperFunction,SMDPad,CuDef*%
%TO.P,U1,44*%
%TO.N,KEYBOARD_VCC*%
G36*
X103808190Y-53658548D02*
G01*
X104197098Y-54047456D01*
X103136438Y-55108116D01*
X102747530Y-54719208D01*
X103808190Y-53658548D01*
G37*
%TD.AperFunction*%
%TA.AperFunction,SMDPad,CuDef*%
%TO.P,U1,43*%
%TO.N,KEYBOARD_GND*%
G36*
X104373876Y-54224233D02*
G01*
X104762784Y-54613141D01*
X103702124Y-55673801D01*
X103313216Y-55284893D01*
X104373876Y-54224233D01*
G37*
%TD.AperFunction*%
%TA.AperFunction,SMDPad,CuDef*%
%TO.P,U1,42*%
%TO.N,Net-(U1-Pad42)*%
G36*
X104939561Y-54789918D02*
G01*
X105328469Y-55178826D01*
X104267809Y-56239486D01*
X103878901Y-55850578D01*
X104939561Y-54789918D01*
G37*
%TD.AperFunction*%
%TA.AperFunction,SMDPad,CuDef*%
%TO.P,U1,41*%
%TO.N,COL0*%
G36*
X105505246Y-55355604D02*
G01*
X105894154Y-55744512D01*
X104833494Y-56805172D01*
X104444586Y-56416264D01*
X105505246Y-55355604D01*
G37*
%TD.AperFunction*%
%TA.AperFunction,SMDPad,CuDef*%
%TO.P,U1,40*%
%TO.N,COL1*%
G36*
X106070932Y-55921289D02*
G01*
X106459840Y-56310197D01*
X105399180Y-57370857D01*
X105010272Y-56981949D01*
X106070932Y-55921289D01*
G37*
%TD.AperFunction*%
%TA.AperFunction,SMDPad,CuDef*%
%TO.P,U1,39*%
%TO.N,COL2*%
G36*
X106636617Y-56486975D02*
G01*
X107025525Y-56875883D01*
X105964865Y-57936543D01*
X105575957Y-57547635D01*
X106636617Y-56486975D01*
G37*
%TD.AperFunction*%
%TA.AperFunction,SMDPad,CuDef*%
%TO.P,U1,38*%
%TO.N,Net-(U1-Pad38)*%
G36*
X107202303Y-57052660D02*
G01*
X107591211Y-57441568D01*
X106530551Y-58502228D01*
X106141643Y-58113320D01*
X107202303Y-57052660D01*
G37*
%TD.AperFunction*%
%TA.AperFunction,SMDPad,CuDef*%
%TO.P,U1,37*%
%TO.N,ROW2*%
G36*
X107767988Y-57618346D02*
G01*
X108156896Y-58007254D01*
X107096236Y-59067914D01*
X106707328Y-58679006D01*
X107767988Y-57618346D01*
G37*
%TD.AperFunction*%
%TA.AperFunction,SMDPad,CuDef*%
%TO.P,U1,36*%
%TO.N,Net-(U1-Pad36)*%
G36*
X108333674Y-58184031D02*
G01*
X108722582Y-58572939D01*
X107661922Y-59633599D01*
X107273014Y-59244691D01*
X108333674Y-58184031D01*
G37*
%TD.AperFunction*%
%TA.AperFunction,SMDPad,CuDef*%
%TO.P,U1,35*%
%TO.N,KEYBOARD_GND*%
G36*
X108899359Y-58749716D02*
G01*
X109288267Y-59138624D01*
X108227607Y-60199284D01*
X107838699Y-59810376D01*
X108899359Y-58749716D01*
G37*
%TD.AperFunction*%
%TA.AperFunction,SMDPad,CuDef*%
%TO.P,U1,34*%
%TO.N,KEYBOARD_VCC*%
G36*
X109465044Y-59315402D02*
G01*
X109853952Y-59704310D01*
X108793292Y-60764970D01*
X108404384Y-60376062D01*
X109465044Y-59315402D01*
G37*
%TD.AperFunction*%
%TA.AperFunction,SMDPad,CuDef*%
%TO.P,U1,33*%
%TO.N,Net-(R4-Pad2)*%
G36*
X110808548Y-59704310D02*
G01*
X111197456Y-59315402D01*
X112258116Y-60376062D01*
X111869208Y-60764970D01*
X110808548Y-59704310D01*
G37*
%TD.AperFunction*%
%TA.AperFunction,SMDPad,CuDef*%
%TO.P,U1,32*%
%TO.N,ROW1*%
G36*
X111374233Y-59138624D02*
G01*
X111763141Y-58749716D01*
X112823801Y-59810376D01*
X112434893Y-60199284D01*
X111374233Y-59138624D01*
G37*
%TD.AperFunction*%
%TA.AperFunction,SMDPad,CuDef*%
%TO.P,U1,31*%
%TO.N,ROW0*%
G36*
X111939918Y-58572939D02*
G01*
X112328826Y-58184031D01*
X113389486Y-59244691D01*
X113000578Y-59633599D01*
X111939918Y-58572939D01*
G37*
%TD.AperFunction*%
%TA.AperFunction,SMDPad,CuDef*%
%TO.P,U1,30*%
%TO.N,Net-(U1-Pad30)*%
G36*
X112505604Y-58007254D02*
G01*
X112894512Y-57618346D01*
X113955172Y-58679006D01*
X113566264Y-59067914D01*
X112505604Y-58007254D01*
G37*
%TD.AperFunction*%
%TA.AperFunction,SMDPad,CuDef*%
%TO.P,U1,29*%
%TO.N,Net-(U1-Pad29)*%
G36*
X113071289Y-57441568D02*
G01*
X113460197Y-57052660D01*
X114520857Y-58113320D01*
X114131949Y-58502228D01*
X113071289Y-57441568D01*
G37*
%TD.AperFunction*%
%TA.AperFunction,SMDPad,CuDef*%
%TO.P,U1,28*%
%TO.N,Net-(U1-Pad28)*%
G36*
X113636975Y-56875883D02*
G01*
X114025883Y-56486975D01*
X115086543Y-57547635D01*
X114697635Y-57936543D01*
X113636975Y-56875883D01*
G37*
%TD.AperFunction*%
%TA.AperFunction,SMDPad,CuDef*%
%TO.P,U1,27*%
%TO.N,COL3*%
G36*
X114202660Y-56310197D02*
G01*
X114591568Y-55921289D01*
X115652228Y-56981949D01*
X115263320Y-57370857D01*
X114202660Y-56310197D01*
G37*
%TD.AperFunction*%
%TA.AperFunction,SMDPad,CuDef*%
%TO.P,U1,26*%
%TO.N,COL4*%
G36*
X114768346Y-55744512D02*
G01*
X115157254Y-55355604D01*
X116217914Y-56416264D01*
X115829006Y-56805172D01*
X114768346Y-55744512D01*
G37*
%TD.AperFunction*%
%TA.AperFunction,SMDPad,CuDef*%
%TO.P,U1,25*%
%TO.N,COL5*%
G36*
X115334031Y-55178826D02*
G01*
X115722939Y-54789918D01*
X116783599Y-55850578D01*
X116394691Y-56239486D01*
X115334031Y-55178826D01*
G37*
%TD.AperFunction*%
%TA.AperFunction,SMDPad,CuDef*%
%TO.P,U1,24*%
%TO.N,KEYBOARD_VCC*%
G36*
X115899716Y-54613141D02*
G01*
X116288624Y-54224233D01*
X117349284Y-55284893D01*
X116960376Y-55673801D01*
X115899716Y-54613141D01*
G37*
%TD.AperFunction*%
%TA.AperFunction,SMDPad,CuDef*%
%TO.P,U1,23*%
%TO.N,KEYBOARD_GND*%
G36*
X116465402Y-54047456D02*
G01*
X116854310Y-53658548D01*
X117914970Y-54719208D01*
X117526062Y-55108116D01*
X116465402Y-54047456D01*
G37*
%TD.AperFunction*%
%TA.AperFunction,SMDPad,CuDef*%
%TO.P,U1,22*%
%TO.N,COL6*%
G36*
X117526062Y-51254384D02*
G01*
X117914970Y-51643292D01*
X116854310Y-52703952D01*
X116465402Y-52315044D01*
X117526062Y-51254384D01*
G37*
%TD.AperFunction*%
%TA.AperFunction,SMDPad,CuDef*%
%TO.P,U1,21*%
%TO.N,ENC_B*%
G36*
X116960376Y-50688699D02*
G01*
X117349284Y-51077607D01*
X116288624Y-52138267D01*
X115899716Y-51749359D01*
X116960376Y-50688699D01*
G37*
%TD.AperFunction*%
%TA.AperFunction,SMDPad,CuDef*%
%TO.P,U1,20*%
%TO.N,ENC_A*%
G36*
X116394691Y-50123014D02*
G01*
X116783599Y-50511922D01*
X115722939Y-51572582D01*
X115334031Y-51183674D01*
X116394691Y-50123014D01*
G37*
%TD.AperFunction*%
%TA.AperFunction,SMDPad,CuDef*%
%TO.P,U1,19*%
%TO.N,SDA*%
G36*
X115829006Y-49557328D02*
G01*
X116217914Y-49946236D01*
X115157254Y-51006896D01*
X114768346Y-50617988D01*
X115829006Y-49557328D01*
G37*
%TD.AperFunction*%
%TA.AperFunction,SMDPad,CuDef*%
%TO.P,U1,18*%
%TO.N,SCL*%
G36*
X115263320Y-48991643D02*
G01*
X115652228Y-49380551D01*
X114591568Y-50441211D01*
X114202660Y-50052303D01*
X115263320Y-48991643D01*
G37*
%TD.AperFunction*%
%TA.AperFunction,SMDPad,CuDef*%
%TO.P,U1,17*%
%TO.N,Net-(C4-Pad1)*%
G36*
X114697635Y-48425957D02*
G01*
X115086543Y-48814865D01*
X114025883Y-49875525D01*
X113636975Y-49486617D01*
X114697635Y-48425957D01*
G37*
%TD.AperFunction*%
%TA.AperFunction,SMDPad,CuDef*%
%TO.P,U1,16*%
%TO.N,Net-(C5-Pad1)*%
G36*
X114131949Y-47860272D02*
G01*
X114520857Y-48249180D01*
X113460197Y-49309840D01*
X113071289Y-48920932D01*
X114131949Y-47860272D01*
G37*
%TD.AperFunction*%
%TA.AperFunction,SMDPad,CuDef*%
%TO.P,U1,15*%
%TO.N,KEYBOARD_GND*%
G36*
X113566264Y-47294586D02*
G01*
X113955172Y-47683494D01*
X112894512Y-48744154D01*
X112505604Y-48355246D01*
X113566264Y-47294586D01*
G37*
%TD.AperFunction*%
%TA.AperFunction,SMDPad,CuDef*%
%TO.P,U1,14*%
%TO.N,KEYBOARD_VCC*%
G36*
X113000578Y-46728901D02*
G01*
X113389486Y-47117809D01*
X112328826Y-48178469D01*
X111939918Y-47789561D01*
X113000578Y-46728901D01*
G37*
%TD.AperFunction*%
%TA.AperFunction,SMDPad,CuDef*%
%TO.P,U1,13*%
%TO.N,KEYBOARD_RESET*%
G36*
X112434893Y-46163216D02*
G01*
X112823801Y-46552124D01*
X111763141Y-47612784D01*
X111374233Y-47223876D01*
X112434893Y-46163216D01*
G37*
%TD.AperFunction*%
%TA.AperFunction,SMDPad,CuDef*%
%TO.P,U1,12*%
%TO.N,Net-(U1-Pad12)*%
G36*
X111869208Y-45597530D02*
G01*
X112258116Y-45986438D01*
X111197456Y-47047098D01*
X110808548Y-46658190D01*
X111869208Y-45597530D01*
G37*
%TD.AperFunction*%
%TA.AperFunction,SMDPad,CuDef*%
%TO.P,U1,11*%
%TO.N,B3_MISO*%
G36*
X108404384Y-45986438D02*
G01*
X108793292Y-45597530D01*
X109853952Y-46658190D01*
X109465044Y-47047098D01*
X108404384Y-45986438D01*
G37*
%TD.AperFunction*%
%TA.AperFunction,SMDPad,CuDef*%
%TO.P,U1,10*%
%TO.N,B2_MOSI*%
G36*
X107838699Y-46552124D02*
G01*
X108227607Y-46163216D01*
X109288267Y-47223876D01*
X108899359Y-47612784D01*
X107838699Y-46552124D01*
G37*
%TD.AperFunction*%
%TA.AperFunction,SMDPad,CuDef*%
%TO.P,U1,9*%
%TO.N,B1_SCLK*%
G36*
X107273014Y-47117809D02*
G01*
X107661922Y-46728901D01*
X108722582Y-47789561D01*
X108333674Y-48178469D01*
X107273014Y-47117809D01*
G37*
%TD.AperFunction*%
%TA.AperFunction,SMDPad,CuDef*%
%TO.P,U1,8*%
%TO.N,Net-(U1-Pad8)*%
G36*
X106707328Y-47683494D02*
G01*
X107096236Y-47294586D01*
X108156896Y-48355246D01*
X107767988Y-48744154D01*
X106707328Y-47683494D01*
G37*
%TD.AperFunction*%
%TA.AperFunction,SMDPad,CuDef*%
%TO.P,U1,7*%
%TO.N,KEYBOARD_VCC*%
G36*
X106141643Y-48249180D02*
G01*
X106530551Y-47860272D01*
X107591211Y-48920932D01*
X107202303Y-49309840D01*
X106141643Y-48249180D01*
G37*
%TD.AperFunction*%
%TA.AperFunction,SMDPad,CuDef*%
%TO.P,U1,6*%
%TO.N,Net-(C7-Pad1)*%
G36*
X105575957Y-48814865D02*
G01*
X105964865Y-48425957D01*
X107025525Y-49486617D01*
X106636617Y-49875525D01*
X105575957Y-48814865D01*
G37*
%TD.AperFunction*%
%TA.AperFunction,SMDPad,CuDef*%
%TO.P,U1,5*%
%TO.N,KEYBOARD_GND*%
G36*
X105010272Y-49380551D02*
G01*
X105399180Y-48991643D01*
X106459840Y-50052303D01*
X106070932Y-50441211D01*
X105010272Y-49380551D01*
G37*
%TD.AperFunction*%
%TA.AperFunction,SMDPad,CuDef*%
%TO.P,U1,4*%
%TO.N,Net-(R2-Pad1)*%
G36*
X104444586Y-49946236D02*
G01*
X104833494Y-49557328D01*
X105894154Y-50617988D01*
X105505246Y-51006896D01*
X104444586Y-49946236D01*
G37*
%TD.AperFunction*%
%TA.AperFunction,SMDPad,CuDef*%
%TO.P,U1,3*%
%TO.N,Net-(R1-Pad1)*%
G36*
X103878901Y-50511922D02*
G01*
X104267809Y-50123014D01*
X105328469Y-51183674D01*
X104939561Y-51572582D01*
X103878901Y-50511922D01*
G37*
%TD.AperFunction*%
%TA.AperFunction,SMDPad,CuDef*%
%TO.P,U1,2*%
%TO.N,KEYBOARD_VCC*%
G36*
X103313216Y-51077607D02*
G01*
X103702124Y-50688699D01*
X104762784Y-51749359D01*
X104373876Y-52138267D01*
X103313216Y-51077607D01*
G37*
%TD.AperFunction*%
%TA.AperFunction,SMDPad,CuDef*%
%TO.P,U1,1*%
%TO.N,Net-(U1-Pad1)*%
G36*
X102747530Y-51643292D02*
G01*
X103136438Y-51254384D01*
X104197098Y-52315044D01*
X103808190Y-52703952D01*
X102747530Y-51643292D01*
G37*
%TD.AperFunction*%
%TD*%
%TO.P,C1,2*%
%TO.N,KEYBOARD_GND*%
%TA.AperFunction,SMDPad,CuDef*%
G36*
G01*
X102392500Y-40348750D02*
X101442500Y-40348750D01*
G75*
G02*
X101192500Y-40098750I0J250000D01*
G01*
X101192500Y-39598750D01*
G75*
G02*
X101442500Y-39348750I250000J0D01*
G01*
X102392500Y-39348750D01*
G75*
G02*
X102642500Y-39598750I0J-250000D01*
G01*
X102642500Y-40098750D01*
G75*
G02*
X102392500Y-40348750I-250000J0D01*
G01*
G37*
%TD.AperFunction*%
%TO.P,C1,1*%
%TO.N,KEYBOARD_VCC*%
%TA.AperFunction,SMDPad,CuDef*%
G36*
G01*
X102392500Y-42248750D02*
X101442500Y-42248750D01*
G75*
G02*
X101192500Y-41998750I0J250000D01*
G01*
X101192500Y-41498750D01*
G75*
G02*
X101442500Y-41248750I250000J0D01*
G01*
X102392500Y-41248750D01*
G75*
G02*
X102642500Y-41498750I0J-250000D01*
G01*
X102642500Y-41998750D01*
G75*
G02*
X102392500Y-42248750I-250000J0D01*
G01*
G37*
%TD.AperFunction*%
%TD*%
D14*
%TO.P,USB1,13*%
%TO.N,KEYBOARD_GND*%
X91632500Y-40911250D03*
X82992500Y-40911250D03*
D15*
X91632500Y-36731250D03*
X82992500Y-36731250D03*
%TD*%
D16*
%TO.P,U2,4*%
%TO.N,KEYBOARD_VCC*%
X86315549Y-53086000D03*
%TO.P,U2,3*%
%TO.N,D-*%
X88215551Y-53086000D03*
%TO.P,U2,2*%
%TO.N,D+*%
X88215550Y-51054000D03*
D17*
%TO.P,U2,1*%
%TO.N,KEYBOARD_GND*%
X86518750Y-51054000D03*
%TD*%
D18*
%TO.P,SW2,S1*%
%TO.N,COL6*%
X190356250Y-51712500D03*
%TO.P,SW2,S2*%
%TO.N,Net-(D13-Pad2)*%
X190356250Y-46712500D03*
D19*
%TO.P,SW2,MP*%
%TO.N,N/C*%
X183356250Y-54812500D03*
X183356250Y-43612500D03*
D18*
%TO.P,SW2,B*%
%TO.N,ENC_B*%
X175856250Y-51712500D03*
%TO.P,SW2,C*%
%TO.N,KEYBOARD_GND*%
X175856250Y-49212500D03*
D20*
%TO.P,SW2,A*%
%TO.N,ENC_A*%
X175856250Y-46712500D03*
%TD*%
%TO.P,R6,2*%
%TO.N,KEYBOARD_GND*%
%TA.AperFunction,SMDPad,CuDef*%
G36*
G01*
X82099998Y-48025000D02*
X83000002Y-48025000D01*
G75*
G02*
X83250000Y-48274998I0J-249998D01*
G01*
X83250000Y-48800002D01*
G75*
G02*
X83000002Y-49050000I-249998J0D01*
G01*
X82099998Y-49050000D01*
G75*
G02*
X81850000Y-48800002I0J249998D01*
G01*
X81850000Y-48274998D01*
G75*
G02*
X82099998Y-48025000I249998J0D01*
G01*
G37*
%TD.AperFunction*%
%TO.P,R6,1*%
%TO.N,Net-(R6-Pad1)*%
%TA.AperFunction,SMDPad,CuDef*%
G36*
G01*
X82099998Y-46200000D02*
X83000002Y-46200000D01*
G75*
G02*
X83250000Y-46449998I0J-249998D01*
G01*
X83250000Y-46975002D01*
G75*
G02*
X83000002Y-47225000I-249998J0D01*
G01*
X82099998Y-47225000D01*
G75*
G02*
X81850000Y-46975002I0J249998D01*
G01*
X81850000Y-46449998D01*
G75*
G02*
X82099998Y-46200000I249998J0D01*
G01*
G37*
%TD.AperFunction*%
%TD*%
%TO.P,R5,2*%
%TO.N,KEYBOARD_GND*%
%TA.AperFunction,SMDPad,CuDef*%
G36*
G01*
X84481248Y-48025000D02*
X85381252Y-48025000D01*
G75*
G02*
X85631250Y-48274998I0J-249998D01*
G01*
X85631250Y-48800002D01*
G75*
G02*
X85381252Y-49050000I-249998J0D01*
G01*
X84481248Y-49050000D01*
G75*
G02*
X84231250Y-48800002I0J249998D01*
G01*
X84231250Y-48274998D01*
G75*
G02*
X84481248Y-48025000I249998J0D01*
G01*
G37*
%TD.AperFunction*%
%TO.P,R5,1*%
%TO.N,Net-(R5-Pad1)*%
%TA.AperFunction,SMDPad,CuDef*%
G36*
G01*
X84481248Y-46200000D02*
X85381252Y-46200000D01*
G75*
G02*
X85631250Y-46449998I0J-249998D01*
G01*
X85631250Y-46975002D01*
G75*
G02*
X85381252Y-47225000I-249998J0D01*
G01*
X84481248Y-47225000D01*
G75*
G02*
X84231250Y-46975002I0J249998D01*
G01*
X84231250Y-46449998D01*
G75*
G02*
X84481248Y-46200000I249998J0D01*
G01*
G37*
%TD.AperFunction*%
%TD*%
%TO.P,R4,2*%
%TO.N,Net-(R4-Pad2)*%
%TA.AperFunction,SMDPad,CuDef*%
G36*
G01*
X117667707Y-60289644D02*
X118304106Y-60926043D01*
G75*
G02*
X118304106Y-61279593I-176775J-176775D01*
G01*
X117932873Y-61650826D01*
G75*
G02*
X117579323Y-61650826I-176775J176775D01*
G01*
X116942924Y-61014427D01*
G75*
G02*
X116942924Y-60660877I176775J176775D01*
G01*
X117314157Y-60289644D01*
G75*
G02*
X117667707Y-60289644I176775J-176775D01*
G01*
G37*
%TD.AperFunction*%
%TO.P,R4,1*%
%TO.N,KEYBOARD_GND*%
%TA.AperFunction,SMDPad,CuDef*%
G36*
G01*
X118958177Y-58999174D02*
X119594576Y-59635573D01*
G75*
G02*
X119594576Y-59989123I-176775J-176775D01*
G01*
X119223343Y-60360356D01*
G75*
G02*
X118869793Y-60360356I-176775J176775D01*
G01*
X118233394Y-59723957D01*
G75*
G02*
X118233394Y-59370407I176775J176775D01*
G01*
X118604627Y-58999174D01*
G75*
G02*
X118958177Y-58999174I176775J-176775D01*
G01*
G37*
%TD.AperFunction*%
%TD*%
%TO.P,R3,2*%
%TO.N,KEYBOARD_RESET*%
%TA.AperFunction,SMDPad,CuDef*%
G36*
G01*
X155390002Y-53852500D02*
X154489998Y-53852500D01*
G75*
G02*
X154240000Y-53602502I0J249998D01*
G01*
X154240000Y-53077498D01*
G75*
G02*
X154489998Y-52827500I249998J0D01*
G01*
X155390002Y-52827500D01*
G75*
G02*
X155640000Y-53077498I0J-249998D01*
G01*
X155640000Y-53602502D01*
G75*
G02*
X155390002Y-53852500I-249998J0D01*
G01*
G37*
%TD.AperFunction*%
%TO.P,R3,1*%
%TO.N,KEYBOARD_VCC*%
%TA.AperFunction,SMDPad,CuDef*%
G36*
G01*
X155390002Y-55677500D02*
X154489998Y-55677500D01*
G75*
G02*
X154240000Y-55427502I0J249998D01*
G01*
X154240000Y-54902498D01*
G75*
G02*
X154489998Y-54652500I249998J0D01*
G01*
X155390002Y-54652500D01*
G75*
G02*
X155640000Y-54902498I0J-249998D01*
G01*
X155640000Y-55427502D01*
G75*
G02*
X155390002Y-55677500I-249998J0D01*
G01*
G37*
%TD.AperFunction*%
%TD*%
%TO.P,R2,2*%
%TO.N,D+*%
%TA.AperFunction,SMDPad,CuDef*%
G36*
G01*
X95643750Y-46381248D02*
X95643750Y-47281252D01*
G75*
G02*
X95393752Y-47531250I-249998J0D01*
G01*
X94868748Y-47531250D01*
G75*
G02*
X94618750Y-47281252I0J249998D01*
G01*
X94618750Y-46381248D01*
G75*
G02*
X94868748Y-46131250I249998J0D01*
G01*
X95393752Y-46131250D01*
G75*
G02*
X95643750Y-46381248I0J-249998D01*
G01*
G37*
%TD.AperFunction*%
%TO.P,R2,1*%
%TO.N,Net-(R2-Pad1)*%
%TA.AperFunction,SMDPad,CuDef*%
G36*
G01*
X97468750Y-46381248D02*
X97468750Y-47281252D01*
G75*
G02*
X97218752Y-47531250I-249998J0D01*
G01*
X96693748Y-47531250D01*
G75*
G02*
X96443750Y-47281252I0J249998D01*
G01*
X96443750Y-46381248D01*
G75*
G02*
X96693748Y-46131250I249998J0D01*
G01*
X97218752Y-46131250D01*
G75*
G02*
X97468750Y-46381248I0J-249998D01*
G01*
G37*
%TD.AperFunction*%
%TD*%
%TO.P,R1,2*%
%TO.N,D-*%
%TA.AperFunction,SMDPad,CuDef*%
G36*
G01*
X95643750Y-48762498D02*
X95643750Y-49662502D01*
G75*
G02*
X95393752Y-49912500I-249998J0D01*
G01*
X94868748Y-49912500D01*
G75*
G02*
X94618750Y-49662502I0J249998D01*
G01*
X94618750Y-48762498D01*
G75*
G02*
X94868748Y-48512500I249998J0D01*
G01*
X95393752Y-48512500D01*
G75*
G02*
X95643750Y-48762498I0J-249998D01*
G01*
G37*
%TD.AperFunction*%
%TO.P,R1,1*%
%TO.N,Net-(R1-Pad1)*%
%TA.AperFunction,SMDPad,CuDef*%
G36*
G01*
X97468750Y-48762498D02*
X97468750Y-49662502D01*
G75*
G02*
X97218752Y-49912500I-249998J0D01*
G01*
X96693748Y-49912500D01*
G75*
G02*
X96443750Y-49662502I0J249998D01*
G01*
X96443750Y-48762498D01*
G75*
G02*
X96693748Y-48512500I249998J0D01*
G01*
X97218752Y-48512500D01*
G75*
G02*
X97468750Y-48762498I0J-249998D01*
G01*
G37*
%TD.AperFunction*%
%TD*%
%TO.P,F1,2*%
%TO.N,VCC*%
%TA.AperFunction,SMDPad,CuDef*%
G36*
G01*
X93493750Y-51612500D02*
X92243750Y-51612500D01*
G75*
G02*
X91993750Y-51362500I0J250000D01*
G01*
X91993750Y-50612500D01*
G75*
G02*
X92243750Y-50362500I250000J0D01*
G01*
X93493750Y-50362500D01*
G75*
G02*
X93743750Y-50612500I0J-250000D01*
G01*
X93743750Y-51362500D01*
G75*
G02*
X93493750Y-51612500I-250000J0D01*
G01*
G37*
%TD.AperFunction*%
%TO.P,F1,1*%
%TO.N,KEYBOARD_VCC*%
%TA.AperFunction,SMDPad,CuDef*%
G36*
G01*
X93493750Y-54412500D02*
X92243750Y-54412500D01*
G75*
G02*
X91993750Y-54162500I0J250000D01*
G01*
X91993750Y-53412500D01*
G75*
G02*
X92243750Y-53162500I250000J0D01*
G01*
X93493750Y-53162500D01*
G75*
G02*
X93743750Y-53412500I0J-250000D01*
G01*
X93743750Y-54162500D01*
G75*
G02*
X93493750Y-54412500I-250000J0D01*
G01*
G37*
%TD.AperFunction*%
%TD*%
D10*
%TO.P,D13,2*%
%TO.N,Net-(D13-Pad2)*%
X196056250Y-57881250D03*
%TO.P,D13,1*%
%TO.N,ROW0*%
X196056250Y-61181250D03*
%TD*%
%TO.P,D12,2*%
%TO.N,Net-(D12-Pad2)*%
X192881250Y-94393750D03*
%TO.P,D12,1*%
%TO.N,ROW1*%
X192881250Y-97693750D03*
%TD*%
%TO.P,D11,2*%
%TO.N,Net-(D11-Pad2)*%
X192881250Y-75406250D03*
%TO.P,D11,1*%
%TO.N,ROW0*%
X192881250Y-78706250D03*
%TD*%
%TO.P,D10,2*%
%TO.N,Net-(D10-Pad2)*%
X173831250Y-94393750D03*
%TO.P,D10,1*%
%TO.N,ROW1*%
X173831250Y-97693750D03*
%TD*%
%TO.P,D9,2*%
%TO.N,Net-(D9-Pad2)*%
X173831250Y-75281250D03*
%TO.P,D9,1*%
%TO.N,ROW0*%
X173831250Y-78581250D03*
%TD*%
%TO.P,D8,2*%
%TO.N,Net-(D8-Pad2)*%
X154781250Y-94393750D03*
%TO.P,D8,1*%
%TO.N,ROW1*%
X154781250Y-97693750D03*
%TD*%
%TO.P,D7,2*%
%TO.N,Net-(D7-Pad2)*%
X155575000Y-75343750D03*
%TO.P,D7,1*%
%TO.N,ROW0*%
X155575000Y-78643750D03*
%TD*%
%TO.P,D6,2*%
%TO.N,Net-(D6-Pad2)*%
X135731250Y-94393750D03*
%TO.P,D6,1*%
%TO.N,ROW1*%
X135731250Y-97693750D03*
%TD*%
%TO.P,D5,2*%
%TO.N,Net-(D5-Pad2)*%
X135731250Y-75343750D03*
%TO.P,D5,1*%
%TO.N,ROW0*%
X135731250Y-78643750D03*
%TD*%
%TO.P,D4,2*%
%TO.N,Net-(D4-Pad2)*%
X116681250Y-94393750D03*
%TO.P,D4,1*%
%TO.N,ROW1*%
X116681250Y-97693750D03*
%TD*%
%TO.P,D3,2*%
%TO.N,Net-(D3-Pad2)*%
X116681250Y-75343750D03*
%TO.P,D3,1*%
%TO.N,ROW0*%
X116681250Y-78643750D03*
%TD*%
%TO.P,D2,2*%
%TO.N,Net-(D2-Pad2)*%
X97631250Y-94393750D03*
%TO.P,D2,1*%
%TO.N,ROW1*%
X97631250Y-97693750D03*
%TD*%
%TO.P,D1,2*%
%TO.N,Net-(D1-Pad2)*%
X97631250Y-75343750D03*
%TO.P,D1,1*%
%TO.N,ROW0*%
X97631250Y-78643750D03*
%TD*%
%TO.P,C9,2*%
%TO.N,KEYBOARD_GND*%
%TA.AperFunction,SMDPad,CuDef*%
G36*
G01*
X171925000Y-52890000D02*
X170975000Y-52890000D01*
G75*
G02*
X170725000Y-52640000I0J250000D01*
G01*
X170725000Y-52140000D01*
G75*
G02*
X170975000Y-51890000I250000J0D01*
G01*
X171925000Y-51890000D01*
G75*
G02*
X172175000Y-52140000I0J-250000D01*
G01*
X172175000Y-52640000D01*
G75*
G02*
X171925000Y-52890000I-250000J0D01*
G01*
G37*
%TD.AperFunction*%
%TO.P,C9,1*%
%TO.N,ENC_B*%
%TA.AperFunction,SMDPad,CuDef*%
G36*
G01*
X171925000Y-54790000D02*
X170975000Y-54790000D01*
G75*
G02*
X170725000Y-54540000I0J250000D01*
G01*
X170725000Y-54040000D01*
G75*
G02*
X170975000Y-53790000I250000J0D01*
G01*
X171925000Y-53790000D01*
G75*
G02*
X172175000Y-54040000I0J-250000D01*
G01*
X172175000Y-54540000D01*
G75*
G02*
X171925000Y-54790000I-250000J0D01*
G01*
G37*
%TD.AperFunction*%
%TD*%
%TO.P,C8,2*%
%TO.N,ENC_A*%
%TA.AperFunction,SMDPad,CuDef*%
G36*
G01*
X171925000Y-47810000D02*
X170975000Y-47810000D01*
G75*
G02*
X170725000Y-47560000I0J250000D01*
G01*
X170725000Y-47060000D01*
G75*
G02*
X170975000Y-46810000I250000J0D01*
G01*
X171925000Y-46810000D01*
G75*
G02*
X172175000Y-47060000I0J-250000D01*
G01*
X172175000Y-47560000D01*
G75*
G02*
X171925000Y-47810000I-250000J0D01*
G01*
G37*
%TD.AperFunction*%
%TO.P,C8,1*%
%TO.N,KEYBOARD_GND*%
%TA.AperFunction,SMDPad,CuDef*%
G36*
G01*
X171925000Y-49710000D02*
X170975000Y-49710000D01*
G75*
G02*
X170725000Y-49460000I0J250000D01*
G01*
X170725000Y-48960000D01*
G75*
G02*
X170975000Y-48710000I250000J0D01*
G01*
X171925000Y-48710000D01*
G75*
G02*
X172175000Y-48960000I0J-250000D01*
G01*
X172175000Y-49460000D01*
G75*
G02*
X171925000Y-49710000I-250000J0D01*
G01*
G37*
%TD.AperFunction*%
%TD*%
%TO.P,C7,2*%
%TO.N,KEYBOARD_GND*%
%TA.AperFunction,SMDPad,CuDef*%
G36*
G01*
X102533427Y-46813572D02*
X103205178Y-47485323D01*
G75*
G02*
X103205178Y-47838877I-176777J-176777D01*
G01*
X102851625Y-48192430D01*
G75*
G02*
X102498071Y-48192430I-176777J176777D01*
G01*
X101826320Y-47520679D01*
G75*
G02*
X101826320Y-47167125I176777J176777D01*
G01*
X102179873Y-46813572D01*
G75*
G02*
X102533427Y-46813572I176777J-176777D01*
G01*
G37*
%TD.AperFunction*%
%TO.P,C7,1*%
%TO.N,Net-(C7-Pad1)*%
%TA.AperFunction,SMDPad,CuDef*%
G36*
G01*
X103876929Y-45470070D02*
X104548680Y-46141821D01*
G75*
G02*
X104548680Y-46495375I-176777J-176777D01*
G01*
X104195127Y-46848928D01*
G75*
G02*
X103841573Y-46848928I-176777J176777D01*
G01*
X103169822Y-46177177D01*
G75*
G02*
X103169822Y-45823623I176777J176777D01*
G01*
X103523375Y-45470070D01*
G75*
G02*
X103876929Y-45470070I176777J-176777D01*
G01*
G37*
%TD.AperFunction*%
%TD*%
%TO.P,C6,2*%
%TO.N,KEYBOARD_GND*%
%TA.AperFunction,SMDPad,CuDef*%
G36*
G01*
X95248750Y-40505000D02*
X94298750Y-40505000D01*
G75*
G02*
X94048750Y-40255000I0J250000D01*
G01*
X94048750Y-39755000D01*
G75*
G02*
X94298750Y-39505000I250000J0D01*
G01*
X95248750Y-39505000D01*
G75*
G02*
X95498750Y-39755000I0J-250000D01*
G01*
X95498750Y-40255000D01*
G75*
G02*
X95248750Y-40505000I-250000J0D01*
G01*
G37*
%TD.AperFunction*%
%TO.P,C6,1*%
%TO.N,KEYBOARD_VCC*%
%TA.AperFunction,SMDPad,CuDef*%
G36*
G01*
X95248750Y-42405000D02*
X94298750Y-42405000D01*
G75*
G02*
X94048750Y-42155000I0J250000D01*
G01*
X94048750Y-41655000D01*
G75*
G02*
X94298750Y-41405000I250000J0D01*
G01*
X95248750Y-41405000D01*
G75*
G02*
X95498750Y-41655000I0J-250000D01*
G01*
X95498750Y-42155000D01*
G75*
G02*
X95248750Y-42405000I-250000J0D01*
G01*
G37*
%TD.AperFunction*%
%TD*%
%TO.P,C5,2*%
%TO.N,KEYBOARD_GND*%
%TA.AperFunction,SMDPad,CuDef*%
G36*
G01*
X115747823Y-43673928D02*
X115076072Y-43002177D01*
G75*
G02*
X115076072Y-42648623I176777J176777D01*
G01*
X115429625Y-42295070D01*
G75*
G02*
X115783179Y-42295070I176777J-176777D01*
G01*
X116454930Y-42966821D01*
G75*
G02*
X116454930Y-43320375I-176777J-176777D01*
G01*
X116101377Y-43673928D01*
G75*
G02*
X115747823Y-43673928I-176777J176777D01*
G01*
G37*
%TD.AperFunction*%
%TO.P,C5,1*%
%TO.N,Net-(C5-Pad1)*%
%TA.AperFunction,SMDPad,CuDef*%
G36*
G01*
X114404321Y-45017430D02*
X113732570Y-44345679D01*
G75*
G02*
X113732570Y-43992125I176777J176777D01*
G01*
X114086123Y-43638572D01*
G75*
G02*
X114439677Y-43638572I176777J-176777D01*
G01*
X115111428Y-44310323D01*
G75*
G02*
X115111428Y-44663877I-176777J-176777D01*
G01*
X114757875Y-45017430D01*
G75*
G02*
X114404321Y-45017430I-176777J176777D01*
G01*
G37*
%TD.AperFunction*%
%TD*%
%TO.P,C3,2*%
%TO.N,KEYBOARD_GND*%
%TA.AperFunction,SMDPad,CuDef*%
G36*
G01*
X97788750Y-40505000D02*
X96838750Y-40505000D01*
G75*
G02*
X96588750Y-40255000I0J250000D01*
G01*
X96588750Y-39755000D01*
G75*
G02*
X96838750Y-39505000I250000J0D01*
G01*
X97788750Y-39505000D01*
G75*
G02*
X98038750Y-39755000I0J-250000D01*
G01*
X98038750Y-40255000D01*
G75*
G02*
X97788750Y-40505000I-250000J0D01*
G01*
G37*
%TD.AperFunction*%
%TO.P,C3,1*%
%TO.N,KEYBOARD_VCC*%
%TA.AperFunction,SMDPad,CuDef*%
G36*
G01*
X97788750Y-42405000D02*
X96838750Y-42405000D01*
G75*
G02*
X96588750Y-42155000I0J250000D01*
G01*
X96588750Y-41655000D01*
G75*
G02*
X96838750Y-41405000I250000J0D01*
G01*
X97788750Y-41405000D01*
G75*
G02*
X98038750Y-41655000I0J-250000D01*
G01*
X98038750Y-42155000D01*
G75*
G02*
X97788750Y-42405000I-250000J0D01*
G01*
G37*
%TD.AperFunction*%
%TD*%
%TO.P,C2,2*%
%TO.N,KEYBOARD_GND*%
%TA.AperFunction,SMDPad,CuDef*%
G36*
G01*
X100011250Y-40505000D02*
X99061250Y-40505000D01*
G75*
G02*
X98811250Y-40255000I0J250000D01*
G01*
X98811250Y-39755000D01*
G75*
G02*
X99061250Y-39505000I250000J0D01*
G01*
X100011250Y-39505000D01*
G75*
G02*
X100261250Y-39755000I0J-250000D01*
G01*
X100261250Y-40255000D01*
G75*
G02*
X100011250Y-40505000I-250000J0D01*
G01*
G37*
%TD.AperFunction*%
%TO.P,C2,1*%
%TO.N,KEYBOARD_VCC*%
%TA.AperFunction,SMDPad,CuDef*%
G36*
G01*
X100011250Y-42405000D02*
X99061250Y-42405000D01*
G75*
G02*
X98811250Y-42155000I0J250000D01*
G01*
X98811250Y-41655000D01*
G75*
G02*
X99061250Y-41405000I250000J0D01*
G01*
X100011250Y-41405000D01*
G75*
G02*
X100261250Y-41655000I0J-250000D01*
G01*
X100261250Y-42155000D01*
G75*
G02*
X100011250Y-42405000I-250000J0D01*
G01*
G37*
%TD.AperFunction*%
%TD*%
D21*
%TO.N,Net-(C4-Pad1)*%
X119856250Y-45243750D03*
X115887500Y-48418750D03*
%TO.N,ENC_A*%
X114776226Y-51848038D03*
X169862500Y-48418750D03*
%TO.N,ENC_B*%
X115628705Y-52708663D03*
X169068750Y-55562500D03*
%TO.N,ROW0*%
X100012500Y-78581250D03*
X114300000Y-78581250D03*
X119062500Y-78581250D03*
X133350000Y-78581250D03*
X134937500Y-80962500D03*
X153193750Y-78581250D03*
X157162500Y-78581250D03*
X171450000Y-78581250D03*
X176212500Y-78581250D03*
X191293750Y-78581250D03*
%TO.N,ROW1*%
X191293750Y-97631250D03*
X175418750Y-97631250D03*
X171450000Y-97631250D03*
X157162500Y-97631250D03*
X152400000Y-97631250D03*
X138112500Y-97631250D03*
X133350000Y-97631250D03*
X119062500Y-97631250D03*
X115093750Y-97631250D03*
X100012500Y-97631250D03*
X116681250Y-69056250D03*
X112712500Y-76200000D03*
%TO.N,VCC*%
X91281250Y-50800000D03*
%TO.N,COL0*%
X82550000Y-62706250D03*
X97631250Y-62706250D03*
%TO.N,COL2*%
X119062500Y-65881250D03*
X102393750Y-65087500D03*
X128587500Y-102393750D03*
%TO.N,COL3*%
X136525000Y-63500000D03*
X115887500Y-60325000D03*
X138906250Y-101600000D03*
%TO.N,COL4*%
X153987500Y-62706250D03*
X116681250Y-59531250D03*
%TO.N,COL5*%
X165893750Y-61912500D03*
X117475000Y-58737500D03*
%TO.N,D-*%
X88106250Y-48418750D03*
%TO.N,D+*%
X87312500Y-46831250D03*
%TO.N,Net-(R4-Pad2)*%
X116681250Y-61912500D03*
X111918750Y-61912500D03*
%TO.N,Net-(R5-Pad1)*%
X85725000Y-45243750D03*
%TO.N,Net-(R6-Pad1)*%
X88106250Y-39687500D03*
%TO.N,COL6*%
X188912500Y-60325000D03*
X123031250Y-60325000D03*
%TO.N,SCL*%
X112712500Y-50006250D03*
%TO.N,SDA*%
X111918750Y-50800000D03*
%TO.N,KEYBOARD_VCC*%
X105494164Y-52343915D03*
X107950000Y-50800000D03*
X102393750Y-55562500D03*
X109537500Y-57943750D03*
X153987500Y-61118750D03*
X117937177Y-56364930D03*
X103981250Y-38893750D03*
X84931250Y-53181250D03*
%TO.N,KEYBOARD_GND*%
X165893750Y-52387500D03*
X107156250Y-60325000D03*
X110331250Y-57150000D03*
X114300000Y-46831250D03*
X116681250Y-42068750D03*
X125412500Y-53975000D03*
X123825000Y-57943750D03*
X120650000Y-57150000D03*
X80962500Y-42862500D03*
X98901250Y-46355000D03*
X102393750Y-38100000D03*
X76993750Y-57943750D03*
%TO.N,KEYBOARD_RESET*%
X154781250Y-47625000D03*
X110331250Y-48418750D03*
X153193750Y-53181250D03*
X121443750Y-64293750D03*
X126206250Y-59531250D03*
X153193750Y-59531250D03*
%TO.N,B1_SCLK*%
X106446468Y-45159782D03*
%TO.N,B2_MOSI*%
X106328986Y-44166705D03*
X79375000Y-60598000D03*
X72231250Y-61118750D03*
%TO.N,B3_MISO*%
X106394500Y-43168852D03*
%TO.N,Net-(D14-Pad2)*%
X126206250Y-109537500D03*
%TO.N,Net-(D15-Pad2)*%
X146843750Y-107950000D03*
%TD*%
D22*
%TO.N,Net-(C4-Pad1)*%
X118853858Y-46072856D02*
X118853858Y-45860723D01*
X120528001Y-47746999D02*
X118853858Y-46072856D01*
X119239277Y-45860723D02*
X119856250Y-45243750D01*
X118853858Y-45860723D02*
X119239277Y-45860723D01*
X115093750Y-48418750D02*
X114361759Y-49150741D01*
X115887500Y-48418750D02*
X115093750Y-48418750D01*
%TO.N,Net-(C5-Pad1)*%
X116096142Y-46002144D02*
X116096142Y-46214277D01*
X114421999Y-44328001D02*
X116096142Y-46002144D01*
X113796073Y-48514346D02*
X113796073Y-48585056D01*
X116096142Y-46214277D02*
X113796073Y-48514346D01*
%TO.N,Net-(C7-Pad1)*%
X103859251Y-46709251D02*
X106300741Y-49150741D01*
X103859251Y-46159499D02*
X103859251Y-46709251D01*
%TO.N,ENC_A*%
X115058575Y-51848038D02*
X114776226Y-51848038D01*
X116058815Y-50847798D02*
X115058575Y-51848038D01*
X170341250Y-48418750D02*
X171450000Y-47310000D01*
X169862500Y-48418750D02*
X170341250Y-48418750D01*
X175258750Y-47310000D02*
X175856250Y-46712500D01*
X171450000Y-47310000D02*
X175258750Y-47310000D01*
%TO.N,ENC_B*%
X115628705Y-52409278D02*
X115628705Y-52708663D01*
X116624500Y-51413483D02*
X115628705Y-52409278D01*
X170177500Y-55562500D02*
X171450000Y-54290000D01*
X169068750Y-55562500D02*
X170177500Y-55562500D01*
X173278750Y-54290000D02*
X175856250Y-51712500D01*
X171450000Y-54290000D02*
X173278750Y-54290000D01*
%TO.N,Net-(D1-Pad2)*%
X97631250Y-70834250D02*
X97631250Y-75343750D01*
X94742000Y-67945000D02*
X97631250Y-70834250D01*
%TO.N,ROW0*%
X99950000Y-78643750D02*
X100012500Y-78581250D01*
X97631250Y-78643750D02*
X99950000Y-78643750D01*
X116618750Y-78581250D02*
X116681250Y-78643750D01*
X114300000Y-78581250D02*
X116618750Y-78581250D01*
X119000000Y-78643750D02*
X119062500Y-78581250D01*
X116681250Y-78643750D02*
X119000000Y-78643750D01*
X135668750Y-78581250D02*
X135731250Y-78643750D01*
X133350000Y-78581250D02*
X135668750Y-78581250D01*
X135731250Y-80168750D02*
X134937500Y-80962500D01*
X135731250Y-78643750D02*
X135731250Y-80168750D01*
X155512500Y-78581250D02*
X155575000Y-78643750D01*
X153193750Y-78581250D02*
X155512500Y-78581250D01*
X157100000Y-78643750D02*
X157162500Y-78581250D01*
X155575000Y-78643750D02*
X157100000Y-78643750D01*
X171450000Y-78581250D02*
X173831250Y-78581250D01*
X173831250Y-78581250D02*
X176212500Y-78581250D01*
X192756250Y-78581250D02*
X192881250Y-78706250D01*
X191293750Y-78581250D02*
X192756250Y-78581250D01*
X196056250Y-75531250D02*
X196056250Y-61181250D01*
X192881250Y-78706250D02*
X196056250Y-75531250D01*
X118312999Y-77831749D02*
X119062500Y-78581250D01*
X118312999Y-64837110D02*
X118312999Y-77831749D01*
X112664702Y-59188813D02*
X118312999Y-64837110D01*
X112664702Y-58908815D02*
X112664702Y-59188813D01*
%TO.N,Net-(D2-Pad2)*%
X97631250Y-89884250D02*
X97631250Y-94393750D01*
X94742000Y-86995000D02*
X97631250Y-89884250D01*
%TO.N,ROW1*%
X191356250Y-97693750D02*
X191293750Y-97631250D01*
X192881250Y-97693750D02*
X191356250Y-97693750D01*
X173893750Y-97631250D02*
X173831250Y-97693750D01*
X175418750Y-97631250D02*
X173893750Y-97631250D01*
X171512500Y-97693750D02*
X171450000Y-97631250D01*
X173831250Y-97693750D02*
X171512500Y-97693750D01*
X154843750Y-97631250D02*
X154781250Y-97693750D01*
X157162500Y-97631250D02*
X154843750Y-97631250D01*
X152462500Y-97693750D02*
X152400000Y-97631250D01*
X154781250Y-97693750D02*
X152462500Y-97693750D01*
X135793750Y-97631250D02*
X135731250Y-97693750D01*
X138112500Y-97631250D02*
X135793750Y-97631250D01*
X133412500Y-97693750D02*
X133350000Y-97631250D01*
X135731250Y-97693750D02*
X133412500Y-97693750D01*
X116743750Y-97631250D02*
X116681250Y-97693750D01*
X119062500Y-97631250D02*
X116743750Y-97631250D01*
X115156250Y-97693750D02*
X115093750Y-97631250D01*
X116681250Y-97693750D02*
X115156250Y-97693750D01*
X97693750Y-97631250D02*
X97631250Y-97693750D01*
X100012500Y-97631250D02*
X97693750Y-97631250D01*
X112645751Y-60021234D02*
X112645751Y-63566749D01*
X112099017Y-59474500D02*
X112645751Y-60021234D01*
X116681250Y-67602248D02*
X116681250Y-69056250D01*
X112645751Y-63566749D02*
X116681250Y-67602248D01*
X119062500Y-93662500D02*
X119062500Y-97631250D01*
X117608251Y-92208251D02*
X119062500Y-93662500D01*
X117608251Y-82965463D02*
X117608251Y-92208251D01*
X112712500Y-78069712D02*
X117608251Y-82965463D01*
X112712500Y-76200000D02*
X112712500Y-78069712D01*
%TO.N,Net-(D3-Pad2)*%
X116681250Y-70834250D02*
X116681250Y-75343750D01*
X113792000Y-67945000D02*
X116681250Y-70834250D01*
%TO.N,Net-(D4-Pad2)*%
X116681250Y-89884250D02*
X116681250Y-94393750D01*
X113792000Y-86995000D02*
X116681250Y-89884250D01*
%TO.N,Net-(D5-Pad2)*%
X135731250Y-70834250D02*
X135731250Y-75343750D01*
X132842000Y-67945000D02*
X135731250Y-70834250D01*
%TO.N,Net-(D6-Pad2)*%
X135731250Y-89884250D02*
X135731250Y-94393750D01*
X132842000Y-86995000D02*
X135731250Y-89884250D01*
%TO.N,Net-(D7-Pad2)*%
X151892000Y-67945000D02*
X152876250Y-67945000D01*
X155575000Y-70643750D02*
X155575000Y-75343750D01*
X152876250Y-67945000D02*
X155575000Y-70643750D01*
%TO.N,Net-(D8-Pad2)*%
X154781250Y-89884250D02*
X154781250Y-94393750D01*
X151892000Y-86995000D02*
X154781250Y-89884250D01*
%TO.N,Net-(D9-Pad2)*%
X170942000Y-67945000D02*
X171132500Y-67945000D01*
X173831250Y-70643750D02*
X173831250Y-75281250D01*
X171132500Y-67945000D02*
X173831250Y-70643750D01*
%TO.N,Net-(D10-Pad2)*%
X173831250Y-89884250D02*
X173831250Y-94393750D01*
X170942000Y-86995000D02*
X173831250Y-89884250D01*
%TO.N,Net-(D11-Pad2)*%
X192881250Y-70834250D02*
X192881250Y-75406250D01*
X189992000Y-67945000D02*
X192881250Y-70834250D01*
%TO.N,Net-(D12-Pad2)*%
X192881250Y-89884250D02*
X192881250Y-94393750D01*
X189992000Y-86995000D02*
X192881250Y-89884250D01*
%TO.N,Net-(D13-Pad2)*%
X196056250Y-52412500D02*
X190356250Y-46712500D01*
X196056250Y-57881250D02*
X196056250Y-52412500D01*
D23*
%TO.N,VCC*%
X92681250Y-50800000D02*
X92868750Y-50987500D01*
X91281250Y-50800000D02*
X92681250Y-50800000D01*
D22*
%TO.N,COL0*%
X81815000Y-70485000D02*
X81815000Y-89535000D01*
X81815000Y-63441250D02*
X82550000Y-62706250D01*
X81815000Y-70485000D02*
X81815000Y-63441250D01*
X98543508Y-62706250D02*
X105169370Y-56080388D01*
X97631250Y-62706250D02*
X98543508Y-62706250D01*
%TO.N,COL1*%
X100865000Y-70485000D02*
X100865000Y-89535000D01*
X100865000Y-61516129D02*
X105735056Y-56646073D01*
X100865000Y-70485000D02*
X100865000Y-61516129D01*
%TO.N,COL2*%
X119915000Y-70485000D02*
X119915000Y-89535000D01*
X119915000Y-66733750D02*
X119062500Y-65881250D01*
X119915000Y-70485000D02*
X119915000Y-66733750D01*
X102393750Y-61118750D02*
X106300741Y-57211759D01*
X102393750Y-65087500D02*
X102393750Y-61118750D01*
X119915000Y-93721250D02*
X128587500Y-102393750D01*
X119915000Y-89535000D02*
X119915000Y-93721250D01*
%TO.N,COL3*%
X138965000Y-70485000D02*
X138965000Y-89535000D01*
X138965000Y-65940000D02*
X136525000Y-63500000D01*
X138965000Y-70485000D02*
X138965000Y-65940000D01*
X115887500Y-57606129D02*
X114927444Y-56646073D01*
X115887500Y-60325000D02*
X115887500Y-57606129D01*
X138965000Y-101541250D02*
X138906250Y-101600000D01*
X138965000Y-89535000D02*
X138965000Y-101541250D01*
%TO.N,COL4*%
X158015000Y-70485000D02*
X158015000Y-89535000D01*
X158015000Y-66733750D02*
X153987500Y-62706250D01*
X158015000Y-70485000D02*
X158015000Y-66733750D01*
X116681250Y-57268508D02*
X115493130Y-56080388D01*
X116681250Y-59531250D02*
X116681250Y-57268508D01*
%TO.N,COL5*%
X177065000Y-70485000D02*
X177065000Y-89535000D01*
X168492500Y-61912500D02*
X165893750Y-61912500D01*
X177065000Y-70485000D02*
X168492500Y-61912500D01*
X117475000Y-56930887D02*
X116058815Y-55514702D01*
X117475000Y-58737500D02*
X117475000Y-56930887D01*
%TO.N,D-*%
X88900000Y-49212500D02*
X95131250Y-49212500D01*
X88106250Y-48418750D02*
X88900000Y-49212500D01*
X88900000Y-52401551D02*
X88215551Y-53086000D01*
X88900000Y-49212500D02*
X88900000Y-52401551D01*
%TO.N,Net-(R1-Pad1)*%
X98105439Y-50361689D02*
X96956250Y-49212500D01*
X104117576Y-50361689D02*
X98105439Y-50361689D01*
X104603685Y-50847798D02*
X104117576Y-50361689D01*
%TO.N,D+*%
X87312500Y-46831250D02*
X95131250Y-46831250D01*
X87312500Y-50150950D02*
X88215550Y-51054000D01*
X87312500Y-46831250D02*
X87312500Y-50150950D01*
%TO.N,Net-(R2-Pad1)*%
X99921004Y-49796004D02*
X96956250Y-46831250D01*
X104683262Y-49796004D02*
X99921004Y-49796004D01*
X105169370Y-50282112D02*
X104683262Y-49796004D01*
%TO.N,Net-(R4-Pad2)*%
X117623515Y-60970235D02*
X116681250Y-61912500D01*
X111918750Y-60425604D02*
X111533332Y-60040186D01*
X111918750Y-61912500D02*
X111918750Y-60425604D01*
%TO.N,Net-(R5-Pad1)*%
X85725000Y-45918750D02*
X84931250Y-46712500D01*
X85725000Y-45243750D02*
X85725000Y-45918750D01*
%TO.N,Net-(R6-Pad1)*%
X82550000Y-45243750D02*
X88106250Y-39687500D01*
X82550000Y-46712500D02*
X82550000Y-45243750D01*
%TO.N,COL6*%
X190356250Y-58881250D02*
X188912500Y-60325000D01*
X190356250Y-53300000D02*
X190356250Y-58881250D01*
X123031250Y-57820232D02*
X117190186Y-51979168D01*
X123031250Y-60325000D02*
X123031250Y-57820232D01*
X190356250Y-53300000D02*
X190356250Y-51712500D01*
%TO.N,SCL*%
X114441336Y-50202535D02*
X114927444Y-49716427D01*
X112908785Y-50202535D02*
X114441336Y-50202535D01*
X112712500Y-50006250D02*
X112908785Y-50202535D01*
%TO.N,SDA*%
X114975242Y-50800000D02*
X111918750Y-50800000D01*
X115493130Y-50282112D02*
X114975242Y-50800000D01*
D23*
%TO.N,KEYBOARD_VCC*%
X99692500Y-41748750D02*
X99536250Y-41905000D01*
X101917500Y-41748750D02*
X99692500Y-41748750D01*
X99536250Y-41905000D02*
X97313750Y-41905000D01*
X97313750Y-41905000D02*
X94773750Y-41905000D01*
X104587608Y-53268038D02*
X103472314Y-54383332D01*
X104587608Y-51963091D02*
X104587608Y-53268038D01*
X104038000Y-51413483D02*
X104587608Y-51963091D01*
X104968432Y-52343915D02*
X105494164Y-52343915D01*
X104038000Y-51413483D02*
X104968432Y-52343915D01*
X107950000Y-49668629D02*
X106866427Y-48585056D01*
X107950000Y-50800000D02*
X107950000Y-49668629D01*
X109318387Y-50800000D02*
X112664702Y-47453685D01*
X107950000Y-50800000D02*
X109318387Y-50800000D01*
X103472314Y-54483936D02*
X102393750Y-55562500D01*
X103472314Y-54383332D02*
X103472314Y-54483936D01*
X109937499Y-59231855D02*
X109129168Y-60040186D01*
X109937499Y-58343749D02*
X109937499Y-59231855D01*
X109537500Y-57943750D02*
X109937499Y-58343749D01*
X114769946Y-54399408D02*
X109129168Y-60040186D01*
X116074891Y-54399408D02*
X114769946Y-54399408D01*
X116624500Y-54949017D02*
X116074891Y-54399408D01*
X154940000Y-60166250D02*
X153987500Y-61118750D01*
X154940000Y-55165000D02*
X154940000Y-60166250D01*
X117937177Y-56261694D02*
X116624500Y-54949017D01*
X117937177Y-56364930D02*
X117937177Y-56261694D01*
X92595549Y-54060701D02*
X92868750Y-53787500D01*
X87290250Y-54060701D02*
X92595549Y-54060701D01*
X86315549Y-53086000D02*
X87290250Y-54060701D01*
X100618750Y-53787500D02*
X102393750Y-55562500D01*
X92868750Y-53787500D02*
X100618750Y-53787500D01*
X106316818Y-46148068D02*
X101917500Y-41748750D01*
X106316818Y-48035447D02*
X106316818Y-46148068D01*
X106866427Y-48585056D02*
X106316818Y-48035447D01*
X103981250Y-39685000D02*
X101917500Y-41748750D01*
X103981250Y-38893750D02*
X103981250Y-39685000D01*
D22*
X85026500Y-53086000D02*
X84931250Y-53181250D01*
X86315549Y-53086000D02*
X85026500Y-53086000D01*
D23*
%TO.N,KEYBOARD_GND*%
X99692500Y-39848750D02*
X99536250Y-40005000D01*
X101917500Y-39848750D02*
X99692500Y-39848750D01*
X99536250Y-40005000D02*
X97313750Y-40005000D01*
X97313750Y-40005000D02*
X94773750Y-40005000D01*
X165896250Y-52390000D02*
X165893750Y-52387500D01*
X171450000Y-52390000D02*
X165896250Y-52390000D01*
X106284664Y-52702353D02*
X104038000Y-54949017D01*
X106284664Y-50266035D02*
X106284664Y-52702353D01*
X105735056Y-49716427D02*
X106284664Y-50266035D01*
X107712983Y-60325000D02*
X107156250Y-60325000D01*
X108563483Y-59474500D02*
X107712983Y-60325000D01*
X106284664Y-53103414D02*
X106284664Y-52702353D01*
X171450000Y-52390000D02*
X171450000Y-49210000D01*
X118972366Y-49090501D02*
X117298223Y-47416358D01*
X119184499Y-49090501D02*
X118972366Y-49090501D01*
X117405891Y-44904528D02*
X117651777Y-44658642D01*
X117405891Y-47308690D02*
X117405891Y-44904528D01*
X117298223Y-47416358D02*
X117405891Y-47308690D01*
X115977634Y-42984499D02*
X117651777Y-44658642D01*
X115765501Y-42984499D02*
X115977634Y-42984499D01*
X113230388Y-47900862D02*
X114300000Y-46831250D01*
X113230388Y-48019370D02*
X113230388Y-47900862D01*
X116681250Y-42068750D02*
X115765501Y-42984499D01*
X101367748Y-46355000D02*
X102515749Y-47503001D01*
X98901250Y-46355000D02*
X101367748Y-46355000D01*
X105670391Y-49716427D02*
X105735056Y-49716427D01*
X103456965Y-47503001D02*
X105670391Y-49716427D01*
X102515749Y-47503001D02*
X103456965Y-47503001D01*
X118913985Y-56107131D02*
X117190186Y-54383332D01*
X113662852Y-53818398D02*
X110331250Y-57150000D01*
X116625252Y-53818398D02*
X113662852Y-53818398D01*
X117190186Y-54383332D02*
X116625252Y-53818398D01*
X125412500Y-56356250D02*
X123825000Y-57943750D01*
X125412500Y-53975000D02*
X125412500Y-56356250D01*
X120004765Y-56504765D02*
X118913985Y-56504765D01*
X120650000Y-57150000D02*
X120004765Y-56504765D01*
X118913985Y-56504765D02*
X118913985Y-56107131D01*
X118913985Y-59679765D02*
X118913985Y-56504765D01*
X108068508Y-53181250D02*
X106362500Y-53181250D01*
X113230388Y-48019370D02*
X108068508Y-53181250D01*
X106362500Y-53181250D02*
X106284664Y-53103414D01*
X110331250Y-57150000D02*
X106362500Y-53181250D01*
X82550000Y-48537500D02*
X84931250Y-48537500D01*
X92538750Y-40005000D02*
X91632500Y-40911250D01*
X94773750Y-40005000D02*
X92538750Y-40005000D01*
X80962500Y-46950000D02*
X82550000Y-48537500D01*
X80962500Y-42862500D02*
X80962500Y-46950000D01*
X84931250Y-49466500D02*
X86518750Y-51054000D01*
X84931250Y-48537500D02*
X84931250Y-49466500D01*
X102393750Y-39372500D02*
X101917500Y-39848750D01*
X102393750Y-38100000D02*
X102393750Y-39372500D01*
X171452500Y-49212500D02*
X171450000Y-49210000D01*
X175856250Y-49212500D02*
X171452500Y-49212500D01*
D22*
X82550000Y-52387500D02*
X76993750Y-57943750D01*
X82550000Y-48537500D02*
X82550000Y-52387500D01*
%TO.N,KEYBOARD_RESET*%
X154781250Y-47625000D02*
X154781250Y-53181250D01*
X111862000Y-46888000D02*
X110331250Y-48418750D01*
X112099017Y-46888000D02*
X111862000Y-46888000D01*
X154781250Y-53181250D02*
X154940000Y-53340000D01*
X153193750Y-53181250D02*
X154781250Y-53181250D01*
X121443750Y-64293750D02*
X126206250Y-59531250D01*
X153193750Y-59531250D02*
X153193750Y-53181250D01*
%TO.N,B1_SCLK*%
X106846467Y-46302354D02*
X107997798Y-47453685D01*
X106846467Y-45559781D02*
X106846467Y-46302354D01*
X106446468Y-45159782D02*
X106846467Y-45559781D01*
%TO.N,B2_MOSI*%
X106529353Y-44166705D02*
X106328986Y-44166705D01*
X107173469Y-44810821D02*
X106529353Y-44166705D01*
X107173469Y-45217987D02*
X107173469Y-44810821D01*
X108563483Y-46608001D02*
X107173469Y-45217987D01*
X108563483Y-46888000D02*
X108563483Y-46608001D01*
X72752000Y-60598000D02*
X72231250Y-61118750D01*
X79375000Y-60598000D02*
X72752000Y-60598000D01*
%TO.N,B3_MISO*%
X109129168Y-45903520D02*
X109129168Y-46322314D01*
X106394500Y-43168852D02*
X109129168Y-45903520D01*
%TO.N,Net-(D14-Pad2)*%
X126143750Y-109537500D02*
X124618750Y-108012500D01*
X126206250Y-109537500D02*
X126143750Y-109537500D01*
%TO.N,ROW2*%
X148431250Y-104712500D02*
X124618750Y-104712500D01*
X107432112Y-58461638D02*
X107432112Y-58343130D01*
X106429249Y-59464501D02*
X107432112Y-58461638D01*
X110331250Y-71437500D02*
X106429249Y-67535499D01*
X107156250Y-80168750D02*
X111125000Y-76200000D01*
X111125000Y-71437500D02*
X110331250Y-71437500D01*
X107156250Y-87312500D02*
X107156250Y-80168750D01*
X111125000Y-76200000D02*
X111125000Y-71437500D01*
X111125000Y-91281250D02*
X107156250Y-87312500D01*
X111125000Y-94738462D02*
X111125000Y-91281250D01*
X106429249Y-67535499D02*
X106429249Y-59464501D01*
X121099038Y-104712500D02*
X111125000Y-94738462D01*
X124618750Y-104712500D02*
X121099038Y-104712500D01*
%TO.N,Net-(D15-Pad2)*%
X148368750Y-107950000D02*
X148431250Y-108012500D01*
X146843750Y-107950000D02*
X148368750Y-107950000D01*
%TD*%
%TO.N,KEYBOARD_GND*%
X122110500Y-47663452D02*
X122110500Y-49134010D01*
X119944108Y-50217206D01*
X119944108Y-50029716D01*
X119184499Y-49270106D01*
X118583989Y-49870617D01*
X118583989Y-50095123D01*
X118892413Y-50407892D01*
X118989104Y-50487245D01*
X119099418Y-50546209D01*
X119215611Y-50581455D01*
X119052756Y-50662882D01*
X117229016Y-50054969D01*
X116845876Y-49671829D01*
X116749185Y-49592477D01*
X116748707Y-49592222D01*
X116748451Y-49591742D01*
X116669099Y-49495051D01*
X116457032Y-49282984D01*
X116547274Y-49222687D01*
X116691437Y-49078524D01*
X116804705Y-48909006D01*
X116835289Y-48835171D01*
X116873018Y-48866135D01*
X116983333Y-48925099D01*
X117103031Y-48961408D01*
X117227512Y-48973669D01*
X117351994Y-48961408D01*
X117471692Y-48925099D01*
X117582006Y-48866135D01*
X117678697Y-48786782D01*
X117707440Y-48757610D01*
X117692482Y-48806921D01*
X117680221Y-48931402D01*
X117692482Y-49055883D01*
X117728791Y-49175582D01*
X117787755Y-49285896D01*
X117867108Y-49382587D01*
X118179877Y-49691011D01*
X118404383Y-49691011D01*
X119004894Y-49090501D01*
X118245284Y-48330892D01*
X118020778Y-48330892D01*
X117969444Y-48380775D01*
X117969444Y-48267184D01*
X117298223Y-47595963D01*
X117284081Y-47610106D01*
X117104476Y-47430501D01*
X117118618Y-47416358D01*
X117104476Y-47402216D01*
X117284081Y-47222611D01*
X117298223Y-47236753D01*
X117312366Y-47222611D01*
X117491971Y-47402216D01*
X117477828Y-47416358D01*
X118149049Y-48087579D01*
X118373556Y-48087579D01*
X118424890Y-48037001D01*
X118424890Y-48151286D01*
X119184499Y-48910896D01*
X119198642Y-48896754D01*
X119378247Y-49076359D01*
X119364104Y-49090501D01*
X120123714Y-49850110D01*
X120348220Y-49850110D01*
X120501890Y-49700785D01*
X120581243Y-49604094D01*
X120640207Y-49493780D01*
X120676516Y-49374081D01*
X120688777Y-49249600D01*
X120678661Y-49146892D01*
X120687100Y-49147723D01*
X120860354Y-49130659D01*
X121026950Y-49080123D01*
X121180486Y-48998056D01*
X121315062Y-48887613D01*
X121668615Y-48534060D01*
X121779058Y-48399484D01*
X121861125Y-48245948D01*
X121911661Y-48079352D01*
X121928725Y-47906098D01*
X121911661Y-47732844D01*
X121861125Y-47566248D01*
X121779058Y-47412712D01*
X121668615Y-47278136D01*
X120996864Y-46606385D01*
X120862288Y-46495942D01*
X120708752Y-46413875D01*
X120542156Y-46363339D01*
X120368902Y-46346275D01*
X120219611Y-46360979D01*
X120162056Y-46303423D01*
X120224282Y-46241197D01*
X120261103Y-46196330D01*
X120346506Y-46160955D01*
X120516024Y-46047687D01*
X120660187Y-45903524D01*
X120773455Y-45734006D01*
X120792903Y-45687056D01*
X122110500Y-47663452D01*
%TA.AperFunction,Conductor*%
D24*
G36*
X122110500Y-47663452D02*
G01*
X122110500Y-49134010D01*
X119944108Y-50217206D01*
X119944108Y-50029716D01*
X119184499Y-49270106D01*
X118583989Y-49870617D01*
X118583989Y-50095123D01*
X118892413Y-50407892D01*
X118989104Y-50487245D01*
X119099418Y-50546209D01*
X119215611Y-50581455D01*
X119052756Y-50662882D01*
X117229016Y-50054969D01*
X116845876Y-49671829D01*
X116749185Y-49592477D01*
X116748707Y-49592222D01*
X116748451Y-49591742D01*
X116669099Y-49495051D01*
X116457032Y-49282984D01*
X116547274Y-49222687D01*
X116691437Y-49078524D01*
X116804705Y-48909006D01*
X116835289Y-48835171D01*
X116873018Y-48866135D01*
X116983333Y-48925099D01*
X117103031Y-48961408D01*
X117227512Y-48973669D01*
X117351994Y-48961408D01*
X117471692Y-48925099D01*
X117582006Y-48866135D01*
X117678697Y-48786782D01*
X117707440Y-48757610D01*
X117692482Y-48806921D01*
X117680221Y-48931402D01*
X117692482Y-49055883D01*
X117728791Y-49175582D01*
X117787755Y-49285896D01*
X117867108Y-49382587D01*
X118179877Y-49691011D01*
X118404383Y-49691011D01*
X119004894Y-49090501D01*
X118245284Y-48330892D01*
X118020778Y-48330892D01*
X117969444Y-48380775D01*
X117969444Y-48267184D01*
X117298223Y-47595963D01*
X117284081Y-47610106D01*
X117104476Y-47430501D01*
X117118618Y-47416358D01*
X117104476Y-47402216D01*
X117284081Y-47222611D01*
X117298223Y-47236753D01*
X117312366Y-47222611D01*
X117491971Y-47402216D01*
X117477828Y-47416358D01*
X118149049Y-48087579D01*
X118373556Y-48087579D01*
X118424890Y-48037001D01*
X118424890Y-48151286D01*
X119184499Y-48910896D01*
X119198642Y-48896754D01*
X119378247Y-49076359D01*
X119364104Y-49090501D01*
X120123714Y-49850110D01*
X120348220Y-49850110D01*
X120501890Y-49700785D01*
X120581243Y-49604094D01*
X120640207Y-49493780D01*
X120676516Y-49374081D01*
X120688777Y-49249600D01*
X120678661Y-49146892D01*
X120687100Y-49147723D01*
X120860354Y-49130659D01*
X121026950Y-49080123D01*
X121180486Y-48998056D01*
X121315062Y-48887613D01*
X121668615Y-48534060D01*
X121779058Y-48399484D01*
X121861125Y-48245948D01*
X121911661Y-48079352D01*
X121928725Y-47906098D01*
X121911661Y-47732844D01*
X121861125Y-47566248D01*
X121779058Y-47412712D01*
X121668615Y-47278136D01*
X120996864Y-46606385D01*
X120862288Y-46495942D01*
X120708752Y-46413875D01*
X120542156Y-46363339D01*
X120368902Y-46346275D01*
X120219611Y-46360979D01*
X120162056Y-46303423D01*
X120224282Y-46241197D01*
X120261103Y-46196330D01*
X120346506Y-46160955D01*
X120516024Y-46047687D01*
X120660187Y-45903524D01*
X120773455Y-45734006D01*
X120792903Y-45687056D01*
X122110500Y-47663452D01*
G37*
%TD.AperFunction*%
D22*
X119498361Y-44271717D02*
X119365994Y-44326545D01*
X119257182Y-44399251D01*
X119168749Y-44351982D01*
X119162433Y-44350066D01*
X119160518Y-44343752D01*
X119101554Y-44233437D01*
X119022201Y-44136746D01*
X118797820Y-43916710D01*
X118573314Y-43916710D01*
X117831382Y-44658642D01*
X117845525Y-44672785D01*
X117665920Y-44852390D01*
X117651777Y-44838247D01*
X117637635Y-44852390D01*
X117458030Y-44672785D01*
X117472172Y-44658642D01*
X116800951Y-43987421D01*
X116576444Y-43987421D01*
X116525110Y-44037999D01*
X116525110Y-43923714D01*
X115765501Y-43164104D01*
X115751359Y-43178247D01*
X115571754Y-42998642D01*
X115585896Y-42984499D01*
X115945106Y-42984499D01*
X116704716Y-43744108D01*
X116929222Y-43744108D01*
X116980556Y-43694225D01*
X116980556Y-43807816D01*
X117651777Y-44479037D01*
X118393709Y-43737105D01*
X118393709Y-43512599D01*
X118173673Y-43288218D01*
X118076982Y-43208865D01*
X117966667Y-43149901D01*
X117846969Y-43113592D01*
X117722488Y-43101331D01*
X117598006Y-43113592D01*
X117478308Y-43149901D01*
X117367994Y-43208865D01*
X117271303Y-43288218D01*
X117242560Y-43317390D01*
X117257518Y-43268079D01*
X117269779Y-43143598D01*
X117257518Y-43019117D01*
X117221209Y-42899418D01*
X117162245Y-42789104D01*
X117082892Y-42692413D01*
X116770123Y-42383989D01*
X116545617Y-42383989D01*
X115945106Y-42984499D01*
X115585896Y-42984499D01*
X114826286Y-42224890D01*
X114601780Y-42224890D01*
X114448110Y-42374215D01*
X114368757Y-42470906D01*
X114309793Y-42581220D01*
X114273484Y-42700919D01*
X114261223Y-42825400D01*
X114271339Y-42928108D01*
X114262900Y-42927277D01*
X114089646Y-42944341D01*
X113923050Y-42994877D01*
X113769514Y-43076944D01*
X113634938Y-43187387D01*
X113281385Y-43540940D01*
X113170942Y-43675516D01*
X113088875Y-43829052D01*
X113038339Y-43995648D01*
X113021275Y-44168902D01*
X113038339Y-44342156D01*
X113088875Y-44508752D01*
X113170942Y-44662288D01*
X113281385Y-44796864D01*
X113953136Y-45468615D01*
X114087712Y-45579058D01*
X114241248Y-45661125D01*
X114407844Y-45711661D01*
X114581098Y-45728725D01*
X114730389Y-45714021D01*
X114787944Y-45771577D01*
X114725718Y-45833803D01*
X114646366Y-45930494D01*
X114587401Y-46040808D01*
X114551091Y-46160506D01*
X114538831Y-46284988D01*
X114551091Y-46409470D01*
X114587401Y-46529168D01*
X114627884Y-46604905D01*
X114201246Y-47031542D01*
X114119927Y-46950223D01*
X114020814Y-47049336D01*
X114015298Y-46993327D01*
X114007675Y-46968197D01*
X114007675Y-46837971D01*
X113920603Y-46764400D01*
X113920023Y-46763315D01*
X113840671Y-46666624D01*
X113514446Y-46340399D01*
X112853148Y-43695208D01*
X114727578Y-41820778D01*
X115005892Y-41820778D01*
X115005892Y-42045284D01*
X115765501Y-42804894D01*
X116366011Y-42204383D01*
X116366011Y-41979877D01*
X116057587Y-41667108D01*
X115960896Y-41587755D01*
X115850582Y-41528791D01*
X115730883Y-41492482D01*
X115606402Y-41480221D01*
X115481921Y-41492482D01*
X115362222Y-41528791D01*
X115251908Y-41587755D01*
X115155217Y-41667108D01*
X115005892Y-41820778D01*
X114727578Y-41820778D01*
X115146356Y-41402000D01*
X116628644Y-41402000D01*
X119498361Y-44271717D01*
%TA.AperFunction,Conductor*%
D24*
G36*
X119498361Y-44271717D02*
G01*
X119365994Y-44326545D01*
X119257182Y-44399251D01*
X119168749Y-44351982D01*
X119162433Y-44350066D01*
X119160518Y-44343752D01*
X119101554Y-44233437D01*
X119022201Y-44136746D01*
X118797820Y-43916710D01*
X118573314Y-43916710D01*
X117831382Y-44658642D01*
X117845525Y-44672785D01*
X117665920Y-44852390D01*
X117651777Y-44838247D01*
X117637635Y-44852390D01*
X117458030Y-44672785D01*
X117472172Y-44658642D01*
X116800951Y-43987421D01*
X116576444Y-43987421D01*
X116525110Y-44037999D01*
X116525110Y-43923714D01*
X115765501Y-43164104D01*
X115751359Y-43178247D01*
X115571754Y-42998642D01*
X115585896Y-42984499D01*
X115945106Y-42984499D01*
X116704716Y-43744108D01*
X116929222Y-43744108D01*
X116980556Y-43694225D01*
X116980556Y-43807816D01*
X117651777Y-44479037D01*
X118393709Y-43737105D01*
X118393709Y-43512599D01*
X118173673Y-43288218D01*
X118076982Y-43208865D01*
X117966667Y-43149901D01*
X117846969Y-43113592D01*
X117722488Y-43101331D01*
X117598006Y-43113592D01*
X117478308Y-43149901D01*
X117367994Y-43208865D01*
X117271303Y-43288218D01*
X117242560Y-43317390D01*
X117257518Y-43268079D01*
X117269779Y-43143598D01*
X117257518Y-43019117D01*
X117221209Y-42899418D01*
X117162245Y-42789104D01*
X117082892Y-42692413D01*
X116770123Y-42383989D01*
X116545617Y-42383989D01*
X115945106Y-42984499D01*
X115585896Y-42984499D01*
X114826286Y-42224890D01*
X114601780Y-42224890D01*
X114448110Y-42374215D01*
X114368757Y-42470906D01*
X114309793Y-42581220D01*
X114273484Y-42700919D01*
X114261223Y-42825400D01*
X114271339Y-42928108D01*
X114262900Y-42927277D01*
X114089646Y-42944341D01*
X113923050Y-42994877D01*
X113769514Y-43076944D01*
X113634938Y-43187387D01*
X113281385Y-43540940D01*
X113170942Y-43675516D01*
X113088875Y-43829052D01*
X113038339Y-43995648D01*
X113021275Y-44168902D01*
X113038339Y-44342156D01*
X113088875Y-44508752D01*
X113170942Y-44662288D01*
X113281385Y-44796864D01*
X113953136Y-45468615D01*
X114087712Y-45579058D01*
X114241248Y-45661125D01*
X114407844Y-45711661D01*
X114581098Y-45728725D01*
X114730389Y-45714021D01*
X114787944Y-45771577D01*
X114725718Y-45833803D01*
X114646366Y-45930494D01*
X114587401Y-46040808D01*
X114551091Y-46160506D01*
X114538831Y-46284988D01*
X114551091Y-46409470D01*
X114587401Y-46529168D01*
X114627884Y-46604905D01*
X114201246Y-47031542D01*
X114119927Y-46950223D01*
X114020814Y-47049336D01*
X114015298Y-46993327D01*
X114007675Y-46968197D01*
X114007675Y-46837971D01*
X113920603Y-46764400D01*
X113920023Y-46763315D01*
X113840671Y-46666624D01*
X113514446Y-46340399D01*
X112853148Y-43695208D01*
X114727578Y-41820778D01*
X115005892Y-41820778D01*
X115005892Y-42045284D01*
X115765501Y-42804894D01*
X116366011Y-42204383D01*
X116366011Y-41979877D01*
X116057587Y-41667108D01*
X115960896Y-41587755D01*
X115850582Y-41528791D01*
X115730883Y-41492482D01*
X115606402Y-41480221D01*
X115481921Y-41492482D01*
X115362222Y-41528791D01*
X115251908Y-41587755D01*
X115155217Y-41667108D01*
X115005892Y-41820778D01*
X114727578Y-41820778D01*
X115146356Y-41402000D01*
X116628644Y-41402000D01*
X119498361Y-44271717D01*
G37*
%TD.AperFunction*%
%TD*%
M02*
