M48
; DRILL file {KiCad (5.1.9)-1} date 03/29/21 02:27:42
; FORMAT={-:-/ absolute / inch / decimal}
; #@! TF.CreationDate,2021-03-29T02:27:42-07:00
; #@! TF.GenerationSoftware,Kicad,Pcbnew,(5.1.9)-1
; #@! TF.FileFunction,NonPlated,1,2,NPTH
FMAT,2
INCH
T1C0.0256
T2C0.0689
T3C0.1063
T4C0.1181
T5C0.1570
%
G90
G05
T1
X3.3237Y-1.5898
X3.5513Y-1.5898
T2
X3.3Y-2.875
X3.3Y-3.625
X3.7Y-2.875
X3.7Y-3.625
X4.05Y-2.875
X4.05Y-3.625
X4.45Y-2.875
X4.45Y-3.625
X4.8Y-2.875
X4.8Y-3.625
X5.2Y-2.875
X5.2Y-3.625
X5.55Y-2.875
X5.55Y-3.625
X5.95Y-2.875
X5.95Y-3.625
X6.3Y-2.875
X6.3Y-3.625
X6.7Y-2.875
X6.7Y-3.625
X7.05Y-2.875
X7.05Y-3.625
X7.45Y-2.875
X7.45Y-3.625
T3
X2.95Y-1.5312
X2.95Y-4.2188
X7.8Y-1.5312
X7.8Y-4.2188
T4
X3.35Y-2.775
X3.35Y-3.525
X3.6Y-2.675
X3.6Y-3.425
X4.1Y-2.775
X4.1Y-3.525
X4.35Y-2.675
X4.35Y-3.425
X4.85Y-2.775
X4.85Y-3.525
X5.1Y-2.675
X5.1Y-3.425
X5.6Y-2.775
X5.6Y-3.525
X5.85Y-2.675
X5.85Y-3.425
X6.35Y-2.775
X6.35Y-3.525
X6.6Y-2.675
X6.6Y-3.425
X7.1Y-2.775
X7.1Y-3.525
X7.35Y-2.675
X7.35Y-3.425
T5
X3.5Y-2.875
X3.5Y-3.625
X4.25Y-2.875
X4.25Y-3.625
X5.0Y-2.875
X5.0Y-3.625
X5.75Y-2.875
X5.75Y-3.625
X6.5Y-2.875
X6.5Y-3.625
X7.25Y-2.875
X7.25Y-3.625
T0
M30
