%TF.GenerationSoftware,KiCad,Pcbnew,(5.1.9)-1*%
%TF.CreationDate,2021-03-29T02:27:37-07:00*%
%TF.ProjectId,millipad,6d696c6c-6970-4616-942e-6b696361645f,rev?*%
%TF.SameCoordinates,Original*%
%TF.FileFunction,Soldermask,Top*%
%TF.FilePolarity,Negative*%
%FSLAX46Y46*%
G04 Gerber Fmt 4.6, Leading zero omitted, Abs format (unit mm)*
G04 Created by KiCad (PCBNEW (5.1.9)-1) date 2021-03-29 02:27:37*
%MOMM*%
%LPD*%
G01*
G04 APERTURE LIST*
%ADD10R,1.800000X1.100000*%
%ADD11R,1.850000X0.500000*%
%ADD12C,1.750000*%
%ADD13C,3.000000*%
%ADD14C,3.987800*%
%ADD15O,1.600000X2.000000*%
%ADD16C,2.700000*%
%ADD17R,0.600000X2.450000*%
%ADD18R,0.300000X2.450000*%
%ADD19C,0.650000*%
%ADD20C,2.000000*%
%ADD21R,3.200000X2.000000*%
%ADD22R,2.000000X2.000000*%
G04 APERTURE END LIST*
D10*
%TO.C,SW4*%
X138187500Y-108212500D03*
X144387500Y-104512500D03*
X138187500Y-104512500D03*
X144387500Y-108212500D03*
%TD*%
%TO.C,SW3*%
X128662500Y-108212500D03*
X134862500Y-104512500D03*
X128662500Y-104512500D03*
X134862500Y-108212500D03*
%TD*%
D11*
%TO.C,J1*%
X73881250Y-61325000D03*
X76931250Y-61325000D03*
X73881250Y-60325000D03*
X76931250Y-60325000D03*
X73881250Y-59325000D03*
X76931250Y-59325000D03*
%TD*%
D12*
%TO.C,MX1*%
X93980000Y-73025000D03*
X83820000Y-73025000D03*
D13*
X85090000Y-70485000D03*
D14*
X88900000Y-73025000D03*
D13*
X91440000Y-67945000D03*
%TD*%
D12*
%TO.C,MX12*%
X189230000Y-92075000D03*
X179070000Y-92075000D03*
D13*
X180340000Y-89535000D03*
D14*
X184150000Y-92075000D03*
D13*
X186690000Y-86995000D03*
%TD*%
D12*
%TO.C,MX11*%
X189230000Y-73025000D03*
X179070000Y-73025000D03*
D13*
X180340000Y-70485000D03*
D14*
X184150000Y-73025000D03*
D13*
X186690000Y-67945000D03*
%TD*%
D12*
%TO.C,MX10*%
X170180000Y-92075000D03*
X160020000Y-92075000D03*
D13*
X161290000Y-89535000D03*
D14*
X165100000Y-92075000D03*
D13*
X167640000Y-86995000D03*
%TD*%
D12*
%TO.C,MX9*%
X170180000Y-73025000D03*
X160020000Y-73025000D03*
D13*
X161290000Y-70485000D03*
D14*
X165100000Y-73025000D03*
D13*
X167640000Y-67945000D03*
%TD*%
D12*
%TO.C,MX8*%
X151130000Y-92075000D03*
X140970000Y-92075000D03*
D13*
X142240000Y-89535000D03*
D14*
X146050000Y-92075000D03*
D13*
X148590000Y-86995000D03*
%TD*%
D12*
%TO.C,MX7*%
X151130000Y-73025000D03*
X140970000Y-73025000D03*
D13*
X142240000Y-70485000D03*
D14*
X146050000Y-73025000D03*
D13*
X148590000Y-67945000D03*
%TD*%
D12*
%TO.C,MX6*%
X132080000Y-92075000D03*
X121920000Y-92075000D03*
D13*
X123190000Y-89535000D03*
D14*
X127000000Y-92075000D03*
D13*
X129540000Y-86995000D03*
%TD*%
D12*
%TO.C,MX5*%
X132080000Y-73025000D03*
X121920000Y-73025000D03*
D13*
X123190000Y-70485000D03*
D14*
X127000000Y-73025000D03*
D13*
X129540000Y-67945000D03*
%TD*%
D12*
%TO.C,MX4*%
X113030000Y-92075000D03*
X102870000Y-92075000D03*
D13*
X104140000Y-89535000D03*
D14*
X107950000Y-92075000D03*
D13*
X110490000Y-86995000D03*
%TD*%
D12*
%TO.C,MX3*%
X113030000Y-73025000D03*
X102870000Y-73025000D03*
D13*
X104140000Y-70485000D03*
D14*
X107950000Y-73025000D03*
D13*
X110490000Y-67945000D03*
%TD*%
D12*
%TO.C,MX2*%
X93980000Y-92075000D03*
X83820000Y-92075000D03*
D13*
X85090000Y-89535000D03*
D14*
X88900000Y-92075000D03*
D13*
X91440000Y-86995000D03*
%TD*%
D15*
%TO.C,Brd1*%
X135445000Y-37025000D03*
X132905000Y-37025000D03*
X137985000Y-37025000D03*
X140525000Y-37025000D03*
%TD*%
D16*
%TO.C,H4*%
X74930000Y-107156250D03*
%TD*%
%TO.C,H3*%
X198120000Y-38893750D03*
%TD*%
%TO.C,H2*%
X74930000Y-38893750D03*
%TD*%
%TO.C,H1*%
X198120000Y-107156250D03*
%TD*%
D17*
%TO.C,USB1*%
X84087500Y-42326250D03*
X90537500Y-42326250D03*
X84862500Y-42326250D03*
X89762500Y-42326250D03*
D18*
X89062500Y-42326250D03*
X85562500Y-42326250D03*
X88562500Y-42326250D03*
X86062500Y-42326250D03*
X88062500Y-42326250D03*
X86562500Y-42326250D03*
X87062500Y-42326250D03*
X87562500Y-42326250D03*
D19*
X84422500Y-40381250D03*
X90202500Y-40381250D03*
%TD*%
D20*
%TO.C,SW2*%
X190356250Y-51712500D03*
X190356250Y-46712500D03*
D21*
X183356250Y-54812500D03*
X183356250Y-43612500D03*
D20*
X175856250Y-51712500D03*
X175856250Y-49212500D03*
D22*
X175856250Y-46712500D03*
%TD*%
D10*
%TO.C,SW1*%
X159460000Y-51380000D03*
X165660000Y-47680000D03*
X159460000Y-47680000D03*
X165660000Y-51380000D03*
%TD*%
M02*
