%TF.GenerationSoftware,KiCad,Pcbnew,(5.1.9)-1*%
%TF.CreationDate,2021-03-29T02:27:37-07:00*%
%TF.ProjectId,millipad,6d696c6c-6970-4616-942e-6b696361645f,rev?*%
%TF.SameCoordinates,Original*%
%TF.FileFunction,Legend,Bot*%
%TF.FilePolarity,Positive*%
%FSLAX46Y46*%
G04 Gerber Fmt 4.6, Leading zero omitted, Abs format (unit mm)*
G04 Created by KiCad (PCBNEW (5.1.9)-1) date 2021-03-29 02:27:37*
%MOMM*%
%LPD*%
G01*
G04 APERTURE LIST*
%ADD10C,0.120000*%
%ADD11C,0.150000*%
%ADD12C,0.152400*%
G04 APERTURE END LIST*
D10*
%TO.C,D15*%
X147431250Y-104112500D02*
X147431250Y-108012500D01*
X149431250Y-104112500D02*
X149431250Y-108012500D01*
X147431250Y-104112500D02*
X149431250Y-104112500D01*
%TO.C,D14*%
X123618750Y-104112500D02*
X123618750Y-108012500D01*
X125618750Y-104112500D02*
X125618750Y-108012500D01*
X123618750Y-104112500D02*
X125618750Y-104112500D01*
%TO.C,Y1*%
X120055940Y-45790013D02*
X117227513Y-48618440D01*
X117722487Y-43456560D02*
X120055940Y-45790013D01*
%TO.C,C4*%
X120560707Y-48753740D02*
X120191240Y-49123207D01*
X119521260Y-47714293D02*
X119151793Y-48083760D01*
D11*
%TO.C,U1*%
X103419281Y-52774664D02*
X102517720Y-51873102D01*
X110331250Y-60499805D02*
X109853953Y-60022508D01*
X117649805Y-53181250D02*
X117172508Y-52703953D01*
X110331250Y-45862695D02*
X110808547Y-46339992D01*
X103012695Y-53181250D02*
X103489992Y-53658547D01*
X110331250Y-45862695D02*
X109853953Y-46339992D01*
X117649805Y-53181250D02*
X117172508Y-53658547D01*
X110331250Y-60499805D02*
X110808547Y-60022508D01*
X103012695Y-53181250D02*
X103419281Y-52774664D01*
D10*
%TO.C,C1*%
X101182500Y-41060002D02*
X101182500Y-40537498D01*
X102652500Y-41060002D02*
X102652500Y-40537498D01*
D12*
%TO.C,U2*%
X84623950Y-50825400D02*
G75*
G03*
X84623950Y-50825400I-127000J0D01*
G01*
X85766950Y-51765803D02*
X85766950Y-52374195D01*
X87641510Y-51371500D02*
X87295990Y-51371500D01*
X88764150Y-52374195D02*
X88764150Y-51765803D01*
X86889589Y-52768500D02*
X87641511Y-52768500D01*
D10*
%TO.C,R6*%
X83285000Y-47397936D02*
X83285000Y-47852064D01*
X81815000Y-47397936D02*
X81815000Y-47852064D01*
%TO.C,R5*%
X85666250Y-47397936D02*
X85666250Y-47852064D01*
X84196250Y-47397936D02*
X84196250Y-47852064D01*
%TO.C,R4*%
X118949032Y-60684165D02*
X118627915Y-61005282D01*
X117909585Y-59644718D02*
X117588468Y-59965835D01*
%TO.C,R3*%
X154205000Y-54479564D02*
X154205000Y-54025436D01*
X155675000Y-54479564D02*
X155675000Y-54025436D01*
%TO.C,R2*%
X96270814Y-47566250D02*
X95816686Y-47566250D01*
X96270814Y-46096250D02*
X95816686Y-46096250D01*
%TO.C,R1*%
X96270814Y-49947500D02*
X95816686Y-49947500D01*
X96270814Y-48477500D02*
X95816686Y-48477500D01*
%TO.C,F1*%
X91958750Y-52989564D02*
X91958750Y-51785436D01*
X93778750Y-52989564D02*
X93778750Y-51785436D01*
%TO.C,D13*%
X197056250Y-61781250D02*
X197056250Y-57881250D01*
X195056250Y-61781250D02*
X195056250Y-57881250D01*
X197056250Y-61781250D02*
X195056250Y-61781250D01*
%TO.C,D12*%
X193881250Y-98293750D02*
X193881250Y-94393750D01*
X191881250Y-98293750D02*
X191881250Y-94393750D01*
X193881250Y-98293750D02*
X191881250Y-98293750D01*
%TO.C,D11*%
X193881250Y-79306250D02*
X193881250Y-75406250D01*
X191881250Y-79306250D02*
X191881250Y-75406250D01*
X193881250Y-79306250D02*
X191881250Y-79306250D01*
%TO.C,D10*%
X174831250Y-98293750D02*
X174831250Y-94393750D01*
X172831250Y-98293750D02*
X172831250Y-94393750D01*
X174831250Y-98293750D02*
X172831250Y-98293750D01*
%TO.C,D9*%
X174831250Y-79181250D02*
X174831250Y-75281250D01*
X172831250Y-79181250D02*
X172831250Y-75281250D01*
X174831250Y-79181250D02*
X172831250Y-79181250D01*
%TO.C,D8*%
X155781250Y-98293750D02*
X155781250Y-94393750D01*
X153781250Y-98293750D02*
X153781250Y-94393750D01*
X155781250Y-98293750D02*
X153781250Y-98293750D01*
%TO.C,D7*%
X156575000Y-79243750D02*
X156575000Y-75343750D01*
X154575000Y-79243750D02*
X154575000Y-75343750D01*
X156575000Y-79243750D02*
X154575000Y-79243750D01*
%TO.C,D6*%
X136731250Y-98293750D02*
X136731250Y-94393750D01*
X134731250Y-98293750D02*
X134731250Y-94393750D01*
X136731250Y-98293750D02*
X134731250Y-98293750D01*
%TO.C,D5*%
X136731250Y-79243750D02*
X136731250Y-75343750D01*
X134731250Y-79243750D02*
X134731250Y-75343750D01*
X136731250Y-79243750D02*
X134731250Y-79243750D01*
%TO.C,D4*%
X117681250Y-98293750D02*
X117681250Y-94393750D01*
X115681250Y-98293750D02*
X115681250Y-94393750D01*
X117681250Y-98293750D02*
X115681250Y-98293750D01*
%TO.C,D3*%
X117681250Y-79243750D02*
X117681250Y-75343750D01*
X115681250Y-79243750D02*
X115681250Y-75343750D01*
X117681250Y-79243750D02*
X115681250Y-79243750D01*
%TO.C,D2*%
X98631250Y-98293750D02*
X98631250Y-94393750D01*
X96631250Y-98293750D02*
X96631250Y-94393750D01*
X98631250Y-98293750D02*
X96631250Y-98293750D01*
%TO.C,D1*%
X98631250Y-79243750D02*
X98631250Y-75343750D01*
X96631250Y-79243750D02*
X96631250Y-75343750D01*
X98631250Y-79243750D02*
X96631250Y-79243750D01*
%TO.C,C9*%
X170715000Y-53601252D02*
X170715000Y-53078748D01*
X172185000Y-53601252D02*
X172185000Y-53078748D01*
%TO.C,C8*%
X170715000Y-48521252D02*
X170715000Y-47998748D01*
X172185000Y-48521252D02*
X172185000Y-47998748D01*
%TO.C,C7*%
X103891957Y-47166240D02*
X103522490Y-47535707D01*
X102852510Y-46126793D02*
X102483043Y-46496260D01*
%TO.C,C6*%
X94038750Y-41216252D02*
X94038750Y-40693748D01*
X95508750Y-41216252D02*
X95508750Y-40693748D01*
%TO.C,C5*%
X114389293Y-43321260D02*
X114758760Y-42951793D01*
X115428740Y-44360707D02*
X115798207Y-43991240D01*
%TO.C,C3*%
X96578750Y-41216252D02*
X96578750Y-40693748D01*
X98048750Y-41216252D02*
X98048750Y-40693748D01*
%TO.C,C2*%
X98801250Y-41216252D02*
X98801250Y-40693748D01*
X100271250Y-41216252D02*
X100271250Y-40693748D01*
%TO.C,D15*%
D11*
X146883630Y-105148214D02*
X145883630Y-105148214D01*
X145883630Y-105386309D01*
X145931250Y-105529166D01*
X146026488Y-105624404D01*
X146121726Y-105672023D01*
X146312202Y-105719642D01*
X146455059Y-105719642D01*
X146645535Y-105672023D01*
X146740773Y-105624404D01*
X146836011Y-105529166D01*
X146883630Y-105386309D01*
X146883630Y-105148214D01*
X146883630Y-106672023D02*
X146883630Y-106100595D01*
X146883630Y-106386309D02*
X145883630Y-106386309D01*
X146026488Y-106291071D01*
X146121726Y-106195833D01*
X146169345Y-106100595D01*
X145883630Y-107576785D02*
X145883630Y-107100595D01*
X146359821Y-107052976D01*
X146312202Y-107100595D01*
X146264583Y-107195833D01*
X146264583Y-107433928D01*
X146312202Y-107529166D01*
X146359821Y-107576785D01*
X146455059Y-107624404D01*
X146693154Y-107624404D01*
X146788392Y-107576785D01*
X146836011Y-107529166D01*
X146883630Y-107433928D01*
X146883630Y-107195833D01*
X146836011Y-107100595D01*
X146788392Y-107052976D01*
%TO.C,D14*%
X123071130Y-105148214D02*
X122071130Y-105148214D01*
X122071130Y-105386309D01*
X122118750Y-105529166D01*
X122213988Y-105624404D01*
X122309226Y-105672023D01*
X122499702Y-105719642D01*
X122642559Y-105719642D01*
X122833035Y-105672023D01*
X122928273Y-105624404D01*
X123023511Y-105529166D01*
X123071130Y-105386309D01*
X123071130Y-105148214D01*
X123071130Y-106672023D02*
X123071130Y-106100595D01*
X123071130Y-106386309D02*
X122071130Y-106386309D01*
X122213988Y-106291071D01*
X122309226Y-106195833D01*
X122356845Y-106100595D01*
X122404464Y-107529166D02*
X123071130Y-107529166D01*
X122023511Y-107291071D02*
X122737797Y-107052976D01*
X122737797Y-107672023D01*
%TO.C,MX1*%
X90185714Y-76525380D02*
X90185714Y-75525380D01*
X89852380Y-76239666D01*
X89519047Y-75525380D01*
X89519047Y-76525380D01*
X89138095Y-75525380D02*
X88471428Y-76525380D01*
X88471428Y-75525380D02*
X89138095Y-76525380D01*
X87566666Y-76525380D02*
X88138095Y-76525380D01*
X87852380Y-76525380D02*
X87852380Y-75525380D01*
X87947619Y-75668238D01*
X88042857Y-75763476D01*
X88138095Y-75811095D01*
%TO.C,MX12*%
X185911904Y-95575380D02*
X185911904Y-94575380D01*
X185578571Y-95289666D01*
X185245238Y-94575380D01*
X185245238Y-95575380D01*
X184864285Y-94575380D02*
X184197619Y-95575380D01*
X184197619Y-94575380D02*
X184864285Y-95575380D01*
X183292857Y-95575380D02*
X183864285Y-95575380D01*
X183578571Y-95575380D02*
X183578571Y-94575380D01*
X183673809Y-94718238D01*
X183769047Y-94813476D01*
X183864285Y-94861095D01*
X182911904Y-94670619D02*
X182864285Y-94623000D01*
X182769047Y-94575380D01*
X182530952Y-94575380D01*
X182435714Y-94623000D01*
X182388095Y-94670619D01*
X182340476Y-94765857D01*
X182340476Y-94861095D01*
X182388095Y-95003952D01*
X182959523Y-95575380D01*
X182340476Y-95575380D01*
%TO.C,MX11*%
X185911904Y-76525380D02*
X185911904Y-75525380D01*
X185578571Y-76239666D01*
X185245238Y-75525380D01*
X185245238Y-76525380D01*
X184864285Y-75525380D02*
X184197619Y-76525380D01*
X184197619Y-75525380D02*
X184864285Y-76525380D01*
X183292857Y-76525380D02*
X183864285Y-76525380D01*
X183578571Y-76525380D02*
X183578571Y-75525380D01*
X183673809Y-75668238D01*
X183769047Y-75763476D01*
X183864285Y-75811095D01*
X182340476Y-76525380D02*
X182911904Y-76525380D01*
X182626190Y-76525380D02*
X182626190Y-75525380D01*
X182721428Y-75668238D01*
X182816666Y-75763476D01*
X182911904Y-75811095D01*
%TO.C,MX10*%
X166861904Y-95575380D02*
X166861904Y-94575380D01*
X166528571Y-95289666D01*
X166195238Y-94575380D01*
X166195238Y-95575380D01*
X165814285Y-94575380D02*
X165147619Y-95575380D01*
X165147619Y-94575380D02*
X165814285Y-95575380D01*
X164242857Y-95575380D02*
X164814285Y-95575380D01*
X164528571Y-95575380D02*
X164528571Y-94575380D01*
X164623809Y-94718238D01*
X164719047Y-94813476D01*
X164814285Y-94861095D01*
X163623809Y-94575380D02*
X163528571Y-94575380D01*
X163433333Y-94623000D01*
X163385714Y-94670619D01*
X163338095Y-94765857D01*
X163290476Y-94956333D01*
X163290476Y-95194428D01*
X163338095Y-95384904D01*
X163385714Y-95480142D01*
X163433333Y-95527761D01*
X163528571Y-95575380D01*
X163623809Y-95575380D01*
X163719047Y-95527761D01*
X163766666Y-95480142D01*
X163814285Y-95384904D01*
X163861904Y-95194428D01*
X163861904Y-94956333D01*
X163814285Y-94765857D01*
X163766666Y-94670619D01*
X163719047Y-94623000D01*
X163623809Y-94575380D01*
%TO.C,MX9*%
X166385714Y-76525380D02*
X166385714Y-75525380D01*
X166052380Y-76239666D01*
X165719047Y-75525380D01*
X165719047Y-76525380D01*
X165338095Y-75525380D02*
X164671428Y-76525380D01*
X164671428Y-75525380D02*
X165338095Y-76525380D01*
X164242857Y-76525380D02*
X164052380Y-76525380D01*
X163957142Y-76477761D01*
X163909523Y-76430142D01*
X163814285Y-76287285D01*
X163766666Y-76096809D01*
X163766666Y-75715857D01*
X163814285Y-75620619D01*
X163861904Y-75573000D01*
X163957142Y-75525380D01*
X164147619Y-75525380D01*
X164242857Y-75573000D01*
X164290476Y-75620619D01*
X164338095Y-75715857D01*
X164338095Y-75953952D01*
X164290476Y-76049190D01*
X164242857Y-76096809D01*
X164147619Y-76144428D01*
X163957142Y-76144428D01*
X163861904Y-76096809D01*
X163814285Y-76049190D01*
X163766666Y-75953952D01*
%TO.C,MX8*%
X147335714Y-95575380D02*
X147335714Y-94575380D01*
X147002380Y-95289666D01*
X146669047Y-94575380D01*
X146669047Y-95575380D01*
X146288095Y-94575380D02*
X145621428Y-95575380D01*
X145621428Y-94575380D02*
X146288095Y-95575380D01*
X145097619Y-95003952D02*
X145192857Y-94956333D01*
X145240476Y-94908714D01*
X145288095Y-94813476D01*
X145288095Y-94765857D01*
X145240476Y-94670619D01*
X145192857Y-94623000D01*
X145097619Y-94575380D01*
X144907142Y-94575380D01*
X144811904Y-94623000D01*
X144764285Y-94670619D01*
X144716666Y-94765857D01*
X144716666Y-94813476D01*
X144764285Y-94908714D01*
X144811904Y-94956333D01*
X144907142Y-95003952D01*
X145097619Y-95003952D01*
X145192857Y-95051571D01*
X145240476Y-95099190D01*
X145288095Y-95194428D01*
X145288095Y-95384904D01*
X145240476Y-95480142D01*
X145192857Y-95527761D01*
X145097619Y-95575380D01*
X144907142Y-95575380D01*
X144811904Y-95527761D01*
X144764285Y-95480142D01*
X144716666Y-95384904D01*
X144716666Y-95194428D01*
X144764285Y-95099190D01*
X144811904Y-95051571D01*
X144907142Y-95003952D01*
%TO.C,MX7*%
X147335714Y-76525380D02*
X147335714Y-75525380D01*
X147002380Y-76239666D01*
X146669047Y-75525380D01*
X146669047Y-76525380D01*
X146288095Y-75525380D02*
X145621428Y-76525380D01*
X145621428Y-75525380D02*
X146288095Y-76525380D01*
X145335714Y-75525380D02*
X144669047Y-75525380D01*
X145097619Y-76525380D01*
%TO.C,MX6*%
X128285714Y-95575380D02*
X128285714Y-94575380D01*
X127952380Y-95289666D01*
X127619047Y-94575380D01*
X127619047Y-95575380D01*
X127238095Y-94575380D02*
X126571428Y-95575380D01*
X126571428Y-94575380D02*
X127238095Y-95575380D01*
X125761904Y-94575380D02*
X125952380Y-94575380D01*
X126047619Y-94623000D01*
X126095238Y-94670619D01*
X126190476Y-94813476D01*
X126238095Y-95003952D01*
X126238095Y-95384904D01*
X126190476Y-95480142D01*
X126142857Y-95527761D01*
X126047619Y-95575380D01*
X125857142Y-95575380D01*
X125761904Y-95527761D01*
X125714285Y-95480142D01*
X125666666Y-95384904D01*
X125666666Y-95146809D01*
X125714285Y-95051571D01*
X125761904Y-95003952D01*
X125857142Y-94956333D01*
X126047619Y-94956333D01*
X126142857Y-95003952D01*
X126190476Y-95051571D01*
X126238095Y-95146809D01*
%TO.C,MX5*%
X128285714Y-76525380D02*
X128285714Y-75525380D01*
X127952380Y-76239666D01*
X127619047Y-75525380D01*
X127619047Y-76525380D01*
X127238095Y-75525380D02*
X126571428Y-76525380D01*
X126571428Y-75525380D02*
X127238095Y-76525380D01*
X125714285Y-75525380D02*
X126190476Y-75525380D01*
X126238095Y-76001571D01*
X126190476Y-75953952D01*
X126095238Y-75906333D01*
X125857142Y-75906333D01*
X125761904Y-75953952D01*
X125714285Y-76001571D01*
X125666666Y-76096809D01*
X125666666Y-76334904D01*
X125714285Y-76430142D01*
X125761904Y-76477761D01*
X125857142Y-76525380D01*
X126095238Y-76525380D01*
X126190476Y-76477761D01*
X126238095Y-76430142D01*
%TO.C,MX4*%
X109235714Y-95575380D02*
X109235714Y-94575380D01*
X108902380Y-95289666D01*
X108569047Y-94575380D01*
X108569047Y-95575380D01*
X108188095Y-94575380D02*
X107521428Y-95575380D01*
X107521428Y-94575380D02*
X108188095Y-95575380D01*
X106711904Y-94908714D02*
X106711904Y-95575380D01*
X106950000Y-94527761D02*
X107188095Y-95242047D01*
X106569047Y-95242047D01*
%TO.C,MX3*%
X109235714Y-76525380D02*
X109235714Y-75525380D01*
X108902380Y-76239666D01*
X108569047Y-75525380D01*
X108569047Y-76525380D01*
X108188095Y-75525380D02*
X107521428Y-76525380D01*
X107521428Y-75525380D02*
X108188095Y-76525380D01*
X107235714Y-75525380D02*
X106616666Y-75525380D01*
X106950000Y-75906333D01*
X106807142Y-75906333D01*
X106711904Y-75953952D01*
X106664285Y-76001571D01*
X106616666Y-76096809D01*
X106616666Y-76334904D01*
X106664285Y-76430142D01*
X106711904Y-76477761D01*
X106807142Y-76525380D01*
X107092857Y-76525380D01*
X107188095Y-76477761D01*
X107235714Y-76430142D01*
%TO.C,MX2*%
X90185714Y-95575380D02*
X90185714Y-94575380D01*
X89852380Y-95289666D01*
X89519047Y-94575380D01*
X89519047Y-95575380D01*
X89138095Y-94575380D02*
X88471428Y-95575380D01*
X88471428Y-94575380D02*
X89138095Y-95575380D01*
X88138095Y-94670619D02*
X88090476Y-94623000D01*
X87995238Y-94575380D01*
X87757142Y-94575380D01*
X87661904Y-94623000D01*
X87614285Y-94670619D01*
X87566666Y-94765857D01*
X87566666Y-94861095D01*
X87614285Y-95003952D01*
X88185714Y-95575380D01*
X87566666Y-95575380D01*
%TO.C,Y1*%
X116062469Y-43951534D02*
X116399187Y-44288252D01*
X115927782Y-43345443D02*
X116062469Y-43951534D01*
X115456378Y-43816847D01*
X115557393Y-45130045D02*
X115961454Y-44725984D01*
X115759423Y-44928015D02*
X115052317Y-44220908D01*
X115220675Y-44254580D01*
X115355362Y-44254580D01*
X115456378Y-44220908D01*
%TO.C,C4*%
X119038700Y-47365498D02*
X119106043Y-47365498D01*
X119240730Y-47298154D01*
X119308074Y-47230811D01*
X119375417Y-47096123D01*
X119375417Y-46961436D01*
X119341746Y-46860421D01*
X119240730Y-46692062D01*
X119139715Y-46591047D01*
X118971356Y-46490032D01*
X118870341Y-46456360D01*
X118735654Y-46456360D01*
X118600967Y-46523704D01*
X118533623Y-46591047D01*
X118466280Y-46725734D01*
X118466280Y-46793078D01*
X118028547Y-47567528D02*
X118499952Y-48038933D01*
X117927532Y-47129795D02*
X118600967Y-47466513D01*
X118163234Y-47904246D01*
%TO.C,U1*%
X105989277Y-58600718D02*
X105416857Y-59173138D01*
X105315842Y-59206810D01*
X105248498Y-59206810D01*
X105147483Y-59173138D01*
X105012796Y-59038451D01*
X104979124Y-58937436D01*
X104979124Y-58870092D01*
X105012796Y-58769077D01*
X105585216Y-58196657D01*
X104171002Y-58196657D02*
X104575063Y-58600718D01*
X104373033Y-58398688D02*
X105080139Y-57691581D01*
X105046468Y-57859940D01*
X105046468Y-57994627D01*
X105080139Y-58095642D01*
%TO.C,C1*%
X103954642Y-40632083D02*
X104002261Y-40584464D01*
X104049880Y-40441607D01*
X104049880Y-40346369D01*
X104002261Y-40203511D01*
X103907023Y-40108273D01*
X103811785Y-40060654D01*
X103621309Y-40013035D01*
X103478452Y-40013035D01*
X103287976Y-40060654D01*
X103192738Y-40108273D01*
X103097500Y-40203511D01*
X103049880Y-40346369D01*
X103049880Y-40441607D01*
X103097500Y-40584464D01*
X103145119Y-40632083D01*
X104049880Y-41584464D02*
X104049880Y-41013035D01*
X104049880Y-41298750D02*
X103049880Y-41298750D01*
X103192738Y-41203511D01*
X103287976Y-41108273D01*
X103335595Y-41013035D01*
%TO.C,U2*%
X83589880Y-51625595D02*
X84399404Y-51625595D01*
X84494642Y-51673214D01*
X84542261Y-51720833D01*
X84589880Y-51816071D01*
X84589880Y-52006547D01*
X84542261Y-52101785D01*
X84494642Y-52149404D01*
X84399404Y-52197023D01*
X83589880Y-52197023D01*
X83685119Y-52625595D02*
X83637500Y-52673214D01*
X83589880Y-52768452D01*
X83589880Y-53006547D01*
X83637500Y-53101785D01*
X83685119Y-53149404D01*
X83780357Y-53197023D01*
X83875595Y-53197023D01*
X84018452Y-53149404D01*
X84589880Y-52577976D01*
X84589880Y-53197023D01*
X87265550Y-51522380D02*
X87265550Y-51760476D01*
X87503645Y-51665238D02*
X87265550Y-51760476D01*
X87027454Y-51665238D01*
X87408407Y-51950952D02*
X87265550Y-51760476D01*
X87122692Y-51950952D01*
%TO.C,R6*%
X81352380Y-47458333D02*
X80876190Y-47125000D01*
X81352380Y-46886904D02*
X80352380Y-46886904D01*
X80352380Y-47267857D01*
X80400000Y-47363095D01*
X80447619Y-47410714D01*
X80542857Y-47458333D01*
X80685714Y-47458333D01*
X80780952Y-47410714D01*
X80828571Y-47363095D01*
X80876190Y-47267857D01*
X80876190Y-46886904D01*
X80352380Y-48315476D02*
X80352380Y-48125000D01*
X80400000Y-48029761D01*
X80447619Y-47982142D01*
X80590476Y-47886904D01*
X80780952Y-47839285D01*
X81161904Y-47839285D01*
X81257142Y-47886904D01*
X81304761Y-47934523D01*
X81352380Y-48029761D01*
X81352380Y-48220238D01*
X81304761Y-48315476D01*
X81257142Y-48363095D01*
X81161904Y-48410714D01*
X80923809Y-48410714D01*
X80828571Y-48363095D01*
X80780952Y-48315476D01*
X80733333Y-48220238D01*
X80733333Y-48029761D01*
X80780952Y-47934523D01*
X80828571Y-47886904D01*
X80923809Y-47839285D01*
%TO.C,R5*%
X84304166Y-45696130D02*
X84637500Y-45219940D01*
X84875595Y-45696130D02*
X84875595Y-44696130D01*
X84494642Y-44696130D01*
X84399404Y-44743750D01*
X84351785Y-44791369D01*
X84304166Y-44886607D01*
X84304166Y-45029464D01*
X84351785Y-45124702D01*
X84399404Y-45172321D01*
X84494642Y-45219940D01*
X84875595Y-45219940D01*
X83399404Y-44696130D02*
X83875595Y-44696130D01*
X83923214Y-45172321D01*
X83875595Y-45124702D01*
X83780357Y-45077083D01*
X83542261Y-45077083D01*
X83447023Y-45124702D01*
X83399404Y-45172321D01*
X83351785Y-45267559D01*
X83351785Y-45505654D01*
X83399404Y-45600892D01*
X83447023Y-45648511D01*
X83542261Y-45696130D01*
X83780357Y-45696130D01*
X83875595Y-45648511D01*
X83923214Y-45600892D01*
%TO.C,R4*%
X117539756Y-59360304D02*
X117438741Y-58787884D01*
X117943817Y-58956243D02*
X117236711Y-58249136D01*
X116967336Y-58518510D01*
X116933665Y-58619525D01*
X116933665Y-58686869D01*
X116967336Y-58787884D01*
X117068352Y-58888899D01*
X117169367Y-58922571D01*
X117236711Y-58922571D01*
X117337726Y-58888899D01*
X117607100Y-58619525D01*
X116462260Y-59494991D02*
X116933665Y-59966396D01*
X116361245Y-59057258D02*
X117034680Y-59393976D01*
X116596947Y-59831709D01*
%TO.C,R3*%
X157042380Y-54085833D02*
X156566190Y-53752500D01*
X157042380Y-53514404D02*
X156042380Y-53514404D01*
X156042380Y-53895357D01*
X156090000Y-53990595D01*
X156137619Y-54038214D01*
X156232857Y-54085833D01*
X156375714Y-54085833D01*
X156470952Y-54038214D01*
X156518571Y-53990595D01*
X156566190Y-53895357D01*
X156566190Y-53514404D01*
X156042380Y-54419166D02*
X156042380Y-55038214D01*
X156423333Y-54704880D01*
X156423333Y-54847738D01*
X156470952Y-54942976D01*
X156518571Y-54990595D01*
X156613809Y-55038214D01*
X156851904Y-55038214D01*
X156947142Y-54990595D01*
X156994761Y-54942976D01*
X157042380Y-54847738D01*
X157042380Y-54562023D01*
X156994761Y-54466785D01*
X156947142Y-54419166D01*
%TO.C,R2*%
X96210416Y-45633630D02*
X96543750Y-45157440D01*
X96781845Y-45633630D02*
X96781845Y-44633630D01*
X96400892Y-44633630D01*
X96305654Y-44681250D01*
X96258035Y-44728869D01*
X96210416Y-44824107D01*
X96210416Y-44966964D01*
X96258035Y-45062202D01*
X96305654Y-45109821D01*
X96400892Y-45157440D01*
X96781845Y-45157440D01*
X95829464Y-44728869D02*
X95781845Y-44681250D01*
X95686607Y-44633630D01*
X95448511Y-44633630D01*
X95353273Y-44681250D01*
X95305654Y-44728869D01*
X95258035Y-44824107D01*
X95258035Y-44919345D01*
X95305654Y-45062202D01*
X95877083Y-45633630D01*
X95258035Y-45633630D01*
%TO.C,R1*%
X96210416Y-51252380D02*
X96543750Y-50776190D01*
X96781845Y-51252380D02*
X96781845Y-50252380D01*
X96400892Y-50252380D01*
X96305654Y-50300000D01*
X96258035Y-50347619D01*
X96210416Y-50442857D01*
X96210416Y-50585714D01*
X96258035Y-50680952D01*
X96305654Y-50728571D01*
X96400892Y-50776190D01*
X96781845Y-50776190D01*
X95258035Y-51252380D02*
X95829464Y-51252380D01*
X95543750Y-51252380D02*
X95543750Y-50252380D01*
X95638988Y-50395238D01*
X95734226Y-50490476D01*
X95829464Y-50538095D01*
%TO.C,F1*%
X94617321Y-52054166D02*
X94617321Y-51720833D01*
X95141130Y-51720833D02*
X94141130Y-51720833D01*
X94141130Y-52197023D01*
X95141130Y-53101785D02*
X95141130Y-52530357D01*
X95141130Y-52816071D02*
X94141130Y-52816071D01*
X94283988Y-52720833D01*
X94379226Y-52625595D01*
X94426845Y-52530357D01*
%TO.C,D13*%
X198508630Y-58316964D02*
X197508630Y-58316964D01*
X197508630Y-58555059D01*
X197556250Y-58697916D01*
X197651488Y-58793154D01*
X197746726Y-58840773D01*
X197937202Y-58888392D01*
X198080059Y-58888392D01*
X198270535Y-58840773D01*
X198365773Y-58793154D01*
X198461011Y-58697916D01*
X198508630Y-58555059D01*
X198508630Y-58316964D01*
X198508630Y-59840773D02*
X198508630Y-59269345D01*
X198508630Y-59555059D02*
X197508630Y-59555059D01*
X197651488Y-59459821D01*
X197746726Y-59364583D01*
X197794345Y-59269345D01*
X197508630Y-60174107D02*
X197508630Y-60793154D01*
X197889583Y-60459821D01*
X197889583Y-60602678D01*
X197937202Y-60697916D01*
X197984821Y-60745535D01*
X198080059Y-60793154D01*
X198318154Y-60793154D01*
X198413392Y-60745535D01*
X198461011Y-60697916D01*
X198508630Y-60602678D01*
X198508630Y-60316964D01*
X198461011Y-60221726D01*
X198413392Y-60174107D01*
%TO.C,D12*%
X195333630Y-94829464D02*
X194333630Y-94829464D01*
X194333630Y-95067559D01*
X194381250Y-95210416D01*
X194476488Y-95305654D01*
X194571726Y-95353273D01*
X194762202Y-95400892D01*
X194905059Y-95400892D01*
X195095535Y-95353273D01*
X195190773Y-95305654D01*
X195286011Y-95210416D01*
X195333630Y-95067559D01*
X195333630Y-94829464D01*
X195333630Y-96353273D02*
X195333630Y-95781845D01*
X195333630Y-96067559D02*
X194333630Y-96067559D01*
X194476488Y-95972321D01*
X194571726Y-95877083D01*
X194619345Y-95781845D01*
X194428869Y-96734226D02*
X194381250Y-96781845D01*
X194333630Y-96877083D01*
X194333630Y-97115178D01*
X194381250Y-97210416D01*
X194428869Y-97258035D01*
X194524107Y-97305654D01*
X194619345Y-97305654D01*
X194762202Y-97258035D01*
X195333630Y-96686607D01*
X195333630Y-97305654D01*
%TO.C,D11*%
X195333630Y-75841964D02*
X194333630Y-75841964D01*
X194333630Y-76080059D01*
X194381250Y-76222916D01*
X194476488Y-76318154D01*
X194571726Y-76365773D01*
X194762202Y-76413392D01*
X194905059Y-76413392D01*
X195095535Y-76365773D01*
X195190773Y-76318154D01*
X195286011Y-76222916D01*
X195333630Y-76080059D01*
X195333630Y-75841964D01*
X195333630Y-77365773D02*
X195333630Y-76794345D01*
X195333630Y-77080059D02*
X194333630Y-77080059D01*
X194476488Y-76984821D01*
X194571726Y-76889583D01*
X194619345Y-76794345D01*
X195333630Y-78318154D02*
X195333630Y-77746726D01*
X195333630Y-78032440D02*
X194333630Y-78032440D01*
X194476488Y-77937202D01*
X194571726Y-77841964D01*
X194619345Y-77746726D01*
%TO.C,D10*%
X176283630Y-94829464D02*
X175283630Y-94829464D01*
X175283630Y-95067559D01*
X175331250Y-95210416D01*
X175426488Y-95305654D01*
X175521726Y-95353273D01*
X175712202Y-95400892D01*
X175855059Y-95400892D01*
X176045535Y-95353273D01*
X176140773Y-95305654D01*
X176236011Y-95210416D01*
X176283630Y-95067559D01*
X176283630Y-94829464D01*
X176283630Y-96353273D02*
X176283630Y-95781845D01*
X176283630Y-96067559D02*
X175283630Y-96067559D01*
X175426488Y-95972321D01*
X175521726Y-95877083D01*
X175569345Y-95781845D01*
X175283630Y-96972321D02*
X175283630Y-97067559D01*
X175331250Y-97162797D01*
X175378869Y-97210416D01*
X175474107Y-97258035D01*
X175664583Y-97305654D01*
X175902678Y-97305654D01*
X176093154Y-97258035D01*
X176188392Y-97210416D01*
X176236011Y-97162797D01*
X176283630Y-97067559D01*
X176283630Y-96972321D01*
X176236011Y-96877083D01*
X176188392Y-96829464D01*
X176093154Y-96781845D01*
X175902678Y-96734226D01*
X175664583Y-96734226D01*
X175474107Y-96781845D01*
X175378869Y-96829464D01*
X175331250Y-96877083D01*
X175283630Y-96972321D01*
%TO.C,D9*%
X176283630Y-76193154D02*
X175283630Y-76193154D01*
X175283630Y-76431250D01*
X175331250Y-76574107D01*
X175426488Y-76669345D01*
X175521726Y-76716964D01*
X175712202Y-76764583D01*
X175855059Y-76764583D01*
X176045535Y-76716964D01*
X176140773Y-76669345D01*
X176236011Y-76574107D01*
X176283630Y-76431250D01*
X176283630Y-76193154D01*
X176283630Y-77240773D02*
X176283630Y-77431250D01*
X176236011Y-77526488D01*
X176188392Y-77574107D01*
X176045535Y-77669345D01*
X175855059Y-77716964D01*
X175474107Y-77716964D01*
X175378869Y-77669345D01*
X175331250Y-77621726D01*
X175283630Y-77526488D01*
X175283630Y-77336011D01*
X175331250Y-77240773D01*
X175378869Y-77193154D01*
X175474107Y-77145535D01*
X175712202Y-77145535D01*
X175807440Y-77193154D01*
X175855059Y-77240773D01*
X175902678Y-77336011D01*
X175902678Y-77526488D01*
X175855059Y-77621726D01*
X175807440Y-77669345D01*
X175712202Y-77716964D01*
%TO.C,D8*%
X157233630Y-95305654D02*
X156233630Y-95305654D01*
X156233630Y-95543750D01*
X156281250Y-95686607D01*
X156376488Y-95781845D01*
X156471726Y-95829464D01*
X156662202Y-95877083D01*
X156805059Y-95877083D01*
X156995535Y-95829464D01*
X157090773Y-95781845D01*
X157186011Y-95686607D01*
X157233630Y-95543750D01*
X157233630Y-95305654D01*
X156662202Y-96448511D02*
X156614583Y-96353273D01*
X156566964Y-96305654D01*
X156471726Y-96258035D01*
X156424107Y-96258035D01*
X156328869Y-96305654D01*
X156281250Y-96353273D01*
X156233630Y-96448511D01*
X156233630Y-96638988D01*
X156281250Y-96734226D01*
X156328869Y-96781845D01*
X156424107Y-96829464D01*
X156471726Y-96829464D01*
X156566964Y-96781845D01*
X156614583Y-96734226D01*
X156662202Y-96638988D01*
X156662202Y-96448511D01*
X156709821Y-96353273D01*
X156757440Y-96305654D01*
X156852678Y-96258035D01*
X157043154Y-96258035D01*
X157138392Y-96305654D01*
X157186011Y-96353273D01*
X157233630Y-96448511D01*
X157233630Y-96638988D01*
X157186011Y-96734226D01*
X157138392Y-96781845D01*
X157043154Y-96829464D01*
X156852678Y-96829464D01*
X156757440Y-96781845D01*
X156709821Y-96734226D01*
X156662202Y-96638988D01*
%TO.C,D7*%
X158027380Y-76255654D02*
X157027380Y-76255654D01*
X157027380Y-76493750D01*
X157075000Y-76636607D01*
X157170238Y-76731845D01*
X157265476Y-76779464D01*
X157455952Y-76827083D01*
X157598809Y-76827083D01*
X157789285Y-76779464D01*
X157884523Y-76731845D01*
X157979761Y-76636607D01*
X158027380Y-76493750D01*
X158027380Y-76255654D01*
X157027380Y-77160416D02*
X157027380Y-77827083D01*
X158027380Y-77398511D01*
%TO.C,D6*%
X138183630Y-95305654D02*
X137183630Y-95305654D01*
X137183630Y-95543750D01*
X137231250Y-95686607D01*
X137326488Y-95781845D01*
X137421726Y-95829464D01*
X137612202Y-95877083D01*
X137755059Y-95877083D01*
X137945535Y-95829464D01*
X138040773Y-95781845D01*
X138136011Y-95686607D01*
X138183630Y-95543750D01*
X138183630Y-95305654D01*
X137183630Y-96734226D02*
X137183630Y-96543750D01*
X137231250Y-96448511D01*
X137278869Y-96400892D01*
X137421726Y-96305654D01*
X137612202Y-96258035D01*
X137993154Y-96258035D01*
X138088392Y-96305654D01*
X138136011Y-96353273D01*
X138183630Y-96448511D01*
X138183630Y-96638988D01*
X138136011Y-96734226D01*
X138088392Y-96781845D01*
X137993154Y-96829464D01*
X137755059Y-96829464D01*
X137659821Y-96781845D01*
X137612202Y-96734226D01*
X137564583Y-96638988D01*
X137564583Y-96448511D01*
X137612202Y-96353273D01*
X137659821Y-96305654D01*
X137755059Y-96258035D01*
%TO.C,D5*%
X138183630Y-76255654D02*
X137183630Y-76255654D01*
X137183630Y-76493750D01*
X137231250Y-76636607D01*
X137326488Y-76731845D01*
X137421726Y-76779464D01*
X137612202Y-76827083D01*
X137755059Y-76827083D01*
X137945535Y-76779464D01*
X138040773Y-76731845D01*
X138136011Y-76636607D01*
X138183630Y-76493750D01*
X138183630Y-76255654D01*
X137183630Y-77731845D02*
X137183630Y-77255654D01*
X137659821Y-77208035D01*
X137612202Y-77255654D01*
X137564583Y-77350892D01*
X137564583Y-77588988D01*
X137612202Y-77684226D01*
X137659821Y-77731845D01*
X137755059Y-77779464D01*
X137993154Y-77779464D01*
X138088392Y-77731845D01*
X138136011Y-77684226D01*
X138183630Y-77588988D01*
X138183630Y-77350892D01*
X138136011Y-77255654D01*
X138088392Y-77208035D01*
%TO.C,D4*%
X119133630Y-95305654D02*
X118133630Y-95305654D01*
X118133630Y-95543750D01*
X118181250Y-95686607D01*
X118276488Y-95781845D01*
X118371726Y-95829464D01*
X118562202Y-95877083D01*
X118705059Y-95877083D01*
X118895535Y-95829464D01*
X118990773Y-95781845D01*
X119086011Y-95686607D01*
X119133630Y-95543750D01*
X119133630Y-95305654D01*
X118466964Y-96734226D02*
X119133630Y-96734226D01*
X118086011Y-96496130D02*
X118800297Y-96258035D01*
X118800297Y-96877083D01*
%TO.C,D3*%
X119133630Y-76255654D02*
X118133630Y-76255654D01*
X118133630Y-76493750D01*
X118181250Y-76636607D01*
X118276488Y-76731845D01*
X118371726Y-76779464D01*
X118562202Y-76827083D01*
X118705059Y-76827083D01*
X118895535Y-76779464D01*
X118990773Y-76731845D01*
X119086011Y-76636607D01*
X119133630Y-76493750D01*
X119133630Y-76255654D01*
X118133630Y-77160416D02*
X118133630Y-77779464D01*
X118514583Y-77446130D01*
X118514583Y-77588988D01*
X118562202Y-77684226D01*
X118609821Y-77731845D01*
X118705059Y-77779464D01*
X118943154Y-77779464D01*
X119038392Y-77731845D01*
X119086011Y-77684226D01*
X119133630Y-77588988D01*
X119133630Y-77303273D01*
X119086011Y-77208035D01*
X119038392Y-77160416D01*
%TO.C,D2*%
X100083630Y-95305654D02*
X99083630Y-95305654D01*
X99083630Y-95543750D01*
X99131250Y-95686607D01*
X99226488Y-95781845D01*
X99321726Y-95829464D01*
X99512202Y-95877083D01*
X99655059Y-95877083D01*
X99845535Y-95829464D01*
X99940773Y-95781845D01*
X100036011Y-95686607D01*
X100083630Y-95543750D01*
X100083630Y-95305654D01*
X99178869Y-96258035D02*
X99131250Y-96305654D01*
X99083630Y-96400892D01*
X99083630Y-96638988D01*
X99131250Y-96734226D01*
X99178869Y-96781845D01*
X99274107Y-96829464D01*
X99369345Y-96829464D01*
X99512202Y-96781845D01*
X100083630Y-96210416D01*
X100083630Y-96829464D01*
%TO.C,D1*%
X100083630Y-76255654D02*
X99083630Y-76255654D01*
X99083630Y-76493750D01*
X99131250Y-76636607D01*
X99226488Y-76731845D01*
X99321726Y-76779464D01*
X99512202Y-76827083D01*
X99655059Y-76827083D01*
X99845535Y-76779464D01*
X99940773Y-76731845D01*
X100036011Y-76636607D01*
X100083630Y-76493750D01*
X100083630Y-76255654D01*
X100083630Y-77779464D02*
X100083630Y-77208035D01*
X100083630Y-77493750D02*
X99083630Y-77493750D01*
X99226488Y-77398511D01*
X99321726Y-77303273D01*
X99369345Y-77208035D01*
%TO.C,C9*%
X173487142Y-53173333D02*
X173534761Y-53125714D01*
X173582380Y-52982857D01*
X173582380Y-52887619D01*
X173534761Y-52744761D01*
X173439523Y-52649523D01*
X173344285Y-52601904D01*
X173153809Y-52554285D01*
X173010952Y-52554285D01*
X172820476Y-52601904D01*
X172725238Y-52649523D01*
X172630000Y-52744761D01*
X172582380Y-52887619D01*
X172582380Y-52982857D01*
X172630000Y-53125714D01*
X172677619Y-53173333D01*
X173582380Y-53649523D02*
X173582380Y-53840000D01*
X173534761Y-53935238D01*
X173487142Y-53982857D01*
X173344285Y-54078095D01*
X173153809Y-54125714D01*
X172772857Y-54125714D01*
X172677619Y-54078095D01*
X172630000Y-54030476D01*
X172582380Y-53935238D01*
X172582380Y-53744761D01*
X172630000Y-53649523D01*
X172677619Y-53601904D01*
X172772857Y-53554285D01*
X173010952Y-53554285D01*
X173106190Y-53601904D01*
X173153809Y-53649523D01*
X173201428Y-53744761D01*
X173201428Y-53935238D01*
X173153809Y-54030476D01*
X173106190Y-54078095D01*
X173010952Y-54125714D01*
%TO.C,C8*%
X173487142Y-48093333D02*
X173534761Y-48045714D01*
X173582380Y-47902857D01*
X173582380Y-47807619D01*
X173534761Y-47664761D01*
X173439523Y-47569523D01*
X173344285Y-47521904D01*
X173153809Y-47474285D01*
X173010952Y-47474285D01*
X172820476Y-47521904D01*
X172725238Y-47569523D01*
X172630000Y-47664761D01*
X172582380Y-47807619D01*
X172582380Y-47902857D01*
X172630000Y-48045714D01*
X172677619Y-48093333D01*
X173010952Y-48664761D02*
X172963333Y-48569523D01*
X172915714Y-48521904D01*
X172820476Y-48474285D01*
X172772857Y-48474285D01*
X172677619Y-48521904D01*
X172630000Y-48569523D01*
X172582380Y-48664761D01*
X172582380Y-48855238D01*
X172630000Y-48950476D01*
X172677619Y-48998095D01*
X172772857Y-49045714D01*
X172820476Y-49045714D01*
X172915714Y-48998095D01*
X172963333Y-48950476D01*
X173010952Y-48855238D01*
X173010952Y-48664761D01*
X173058571Y-48569523D01*
X173106190Y-48521904D01*
X173201428Y-48474285D01*
X173391904Y-48474285D01*
X173487142Y-48521904D01*
X173534761Y-48569523D01*
X173582380Y-48664761D01*
X173582380Y-48855238D01*
X173534761Y-48950476D01*
X173487142Y-48998095D01*
X173391904Y-49045714D01*
X173201428Y-49045714D01*
X173106190Y-48998095D01*
X173058571Y-48950476D01*
X173010952Y-48855238D01*
%TO.C,C7*%
X102369950Y-45777998D02*
X102437293Y-45777998D01*
X102571980Y-45710654D01*
X102639324Y-45643311D01*
X102706667Y-45508623D01*
X102706667Y-45373936D01*
X102672996Y-45272921D01*
X102571980Y-45104562D01*
X102470965Y-45003547D01*
X102302606Y-44902532D01*
X102201591Y-44868860D01*
X102066904Y-44868860D01*
X101932217Y-44936204D01*
X101864873Y-45003547D01*
X101797530Y-45138234D01*
X101797530Y-45205578D01*
X101494484Y-45373936D02*
X101023080Y-45845341D01*
X102033232Y-46249402D01*
%TO.C,C6*%
X96810892Y-40788333D02*
X96858511Y-40740714D01*
X96906130Y-40597857D01*
X96906130Y-40502619D01*
X96858511Y-40359761D01*
X96763273Y-40264523D01*
X96668035Y-40216904D01*
X96477559Y-40169285D01*
X96334702Y-40169285D01*
X96144226Y-40216904D01*
X96048988Y-40264523D01*
X95953750Y-40359761D01*
X95906130Y-40502619D01*
X95906130Y-40597857D01*
X95953750Y-40740714D01*
X96001369Y-40788333D01*
X95906130Y-41645476D02*
X95906130Y-41455000D01*
X95953750Y-41359761D01*
X96001369Y-41312142D01*
X96144226Y-41216904D01*
X96334702Y-41169285D01*
X96715654Y-41169285D01*
X96810892Y-41216904D01*
X96858511Y-41264523D01*
X96906130Y-41359761D01*
X96906130Y-41550238D01*
X96858511Y-41645476D01*
X96810892Y-41693095D01*
X96715654Y-41740714D01*
X96477559Y-41740714D01*
X96382321Y-41693095D01*
X96334702Y-41645476D01*
X96287083Y-41550238D01*
X96287083Y-41359761D01*
X96334702Y-41264523D01*
X96382321Y-41216904D01*
X96477559Y-41169285D01*
%TO.C,C5*%
X116652078Y-44978876D02*
X116719421Y-44978876D01*
X116854108Y-44911532D01*
X116921452Y-44844189D01*
X116988795Y-44709501D01*
X116988795Y-44574814D01*
X116955124Y-44473799D01*
X116854108Y-44305440D01*
X116753093Y-44204425D01*
X116584734Y-44103410D01*
X116483719Y-44069738D01*
X116349032Y-44069738D01*
X116214345Y-44137082D01*
X116147001Y-44204425D01*
X116079658Y-44339112D01*
X116079658Y-44406456D01*
X115372551Y-44978876D02*
X115709269Y-44642158D01*
X116079658Y-44945204D01*
X116012314Y-44945204D01*
X115911299Y-44978876D01*
X115742940Y-45147234D01*
X115709269Y-45248250D01*
X115709269Y-45315593D01*
X115742940Y-45416608D01*
X115911299Y-45584967D01*
X116012314Y-45618639D01*
X116079658Y-45618639D01*
X116180673Y-45584967D01*
X116349032Y-45416608D01*
X116382704Y-45315593D01*
X116382704Y-45248250D01*
%TO.C,C3*%
X99350892Y-40788333D02*
X99398511Y-40740714D01*
X99446130Y-40597857D01*
X99446130Y-40502619D01*
X99398511Y-40359761D01*
X99303273Y-40264523D01*
X99208035Y-40216904D01*
X99017559Y-40169285D01*
X98874702Y-40169285D01*
X98684226Y-40216904D01*
X98588988Y-40264523D01*
X98493750Y-40359761D01*
X98446130Y-40502619D01*
X98446130Y-40597857D01*
X98493750Y-40740714D01*
X98541369Y-40788333D01*
X98446130Y-41121666D02*
X98446130Y-41740714D01*
X98827083Y-41407380D01*
X98827083Y-41550238D01*
X98874702Y-41645476D01*
X98922321Y-41693095D01*
X99017559Y-41740714D01*
X99255654Y-41740714D01*
X99350892Y-41693095D01*
X99398511Y-41645476D01*
X99446130Y-41550238D01*
X99446130Y-41264523D01*
X99398511Y-41169285D01*
X99350892Y-41121666D01*
%TO.C,C2*%
X101573392Y-40788333D02*
X101621011Y-40740714D01*
X101668630Y-40597857D01*
X101668630Y-40502619D01*
X101621011Y-40359761D01*
X101525773Y-40264523D01*
X101430535Y-40216904D01*
X101240059Y-40169285D01*
X101097202Y-40169285D01*
X100906726Y-40216904D01*
X100811488Y-40264523D01*
X100716250Y-40359761D01*
X100668630Y-40502619D01*
X100668630Y-40597857D01*
X100716250Y-40740714D01*
X100763869Y-40788333D01*
X100763869Y-41169285D02*
X100716250Y-41216904D01*
X100668630Y-41312142D01*
X100668630Y-41550238D01*
X100716250Y-41645476D01*
X100763869Y-41693095D01*
X100859107Y-41740714D01*
X100954345Y-41740714D01*
X101097202Y-41693095D01*
X101668630Y-41121666D01*
X101668630Y-41740714D01*
%TD*%
M02*
