M48
; DRILL file {KiCad (5.1.9)-1} date 03/29/21 02:27:42
; FORMAT={-:-/ absolute / inch / decimal}
; #@! TF.CreationDate,2021-03-29T02:27:42-07:00
; #@! TF.GenerationSoftware,Kicad,Pcbnew,(5.1.9)-1
; #@! TF.FileFunction,Plated,1,2,PTH
FMAT,2
INCH
T1C0.0157
T2C0.0236
T3C0.0394
T4C0.0591
%
G90
G05
T1
X2.8438Y-2.4062
X3.0312Y-2.2812
X3.125Y-2.3857
X3.1875Y-1.6875
X3.25Y-2.4688
X3.3438Y-2.0938
X3.375Y-1.7812
X3.4375Y-1.8438
X3.4688Y-1.5625
X3.4688Y-1.9062
X3.5938Y-2.0
X3.8438Y-2.4688
X3.8937Y-1.825
X3.9375Y-3.0938
X3.9375Y-3.8438
X4.0312Y-1.5
X4.0312Y-2.1875
X4.0312Y-2.5625
X4.0938Y-1.5312
X4.1533Y-2.0608
X4.1862Y-1.7388
X4.1888Y-1.6996
X4.1908Y-1.7779
X4.2188Y-2.375
X4.25Y-2.0
X4.3125Y-2.2812
X4.3438Y-1.9062
X4.3438Y-2.25
X4.4062Y-2.0
X4.4062Y-2.4375
X4.4375Y-1.9688
X4.4375Y-3.0
X4.5Y-1.8438
X4.5Y-3.0938
X4.5187Y-2.0413
X4.5312Y-3.8438
X4.5523Y-2.0751
X4.5625Y-1.9062
X4.5625Y-2.375
X4.5938Y-1.6562
X4.5938Y-2.3438
X4.5938Y-2.4375
X4.5938Y-2.7188
X4.625Y-2.3125
X4.6432Y-2.2191
X4.6875Y-2.5938
X4.6875Y-3.0938
X4.6875Y-3.8438
X4.7188Y-1.7812
X4.75Y-2.25
X4.7812Y-2.5312
X4.8438Y-2.375
X4.875Y-2.2812
X4.9375Y-2.125
X4.9688Y-2.3438
X4.9688Y-4.3125
X5.0625Y-4.0312
X5.25Y-3.0938
X5.25Y-3.8438
X5.3125Y-3.1875
X5.375Y-2.5
X5.4375Y-3.8438
X5.4688Y-4.0
X5.7812Y-4.25
X6.0Y-3.8438
X6.0312Y-2.0938
X6.0312Y-2.3438
X6.0312Y-3.0938
X6.0625Y-2.4062
X6.0625Y-2.4688
X6.0938Y-1.875
X6.1875Y-3.0938
X6.1875Y-3.8438
X6.5312Y-2.0625
X6.5312Y-2.4375
X6.6562Y-2.1875
X6.6875Y-1.9062
X6.75Y-3.0938
X6.75Y-3.8438
X6.9062Y-3.8438
X6.9375Y-3.0938
X7.4375Y-2.375
X7.5312Y-3.0938
X7.5312Y-3.8438
T3
X5.2325Y-1.4577
X5.3325Y-1.4577
X5.4325Y-1.4577
X5.5325Y-1.4577
X6.9235Y-1.8391
X6.9235Y-1.9375
X6.9235Y-2.0359
X7.4943Y-1.8391
X7.4943Y-2.0359
T2
G00X3.2674Y-1.4579
M15
G01X3.2674Y-1.4343
M16
G05
G00X3.2674Y-1.6323
M15
G01X3.2674Y-1.589
M16
G05
G00X3.6076Y-1.4579
M15
G01X3.6076Y-1.4343
M16
G05
G00X3.6076Y-1.6323
M15
G01X3.6076Y-1.589
M16
G05
T4
G00X7.1932Y-1.717
M15
G01X7.2443Y-1.717
M16
G05
G00X7.1932Y-2.158
M15
G01X7.2443Y-2.158
M16
G05
T0
M30
