%TF.GenerationSoftware,KiCad,Pcbnew,(5.1.9)-1*%
%TF.CreationDate,2021-03-28T16:49:31-07:00*%
%TF.ProjectId,millipad,6d696c6c-6970-4616-942e-6b696361645f,rev?*%
%TF.SameCoordinates,Original*%
%TF.FileFunction,Copper,L1,Top*%
%TF.FilePolarity,Positive*%
%FSLAX46Y46*%
G04 Gerber Fmt 4.6, Leading zero omitted, Abs format (unit mm)*
G04 Created by KiCad (PCBNEW (5.1.9)-1) date 2021-03-28 16:49:31*
%MOMM*%
%LPD*%
G01*
G04 APERTURE LIST*
%TA.AperFunction,SMDPad,CuDef*%
%ADD10R,1.800000X1.100000*%
%TD*%
%TA.AperFunction,SMDPad,CuDef*%
%ADD11R,1.850000X0.500000*%
%TD*%
%TA.AperFunction,ComponentPad*%
%ADD12O,1.600000X2.000000*%
%TD*%
%TA.AperFunction,SMDPad,CuDef*%
%ADD13R,0.600000X2.450000*%
%TD*%
%TA.AperFunction,SMDPad,CuDef*%
%ADD14R,0.300000X2.450000*%
%TD*%
%TA.AperFunction,ComponentPad*%
%ADD15O,1.000000X2.100000*%
%TD*%
%TA.AperFunction,ComponentPad*%
%ADD16O,1.000000X1.600000*%
%TD*%
%TA.AperFunction,ComponentPad*%
%ADD17C,2.000000*%
%TD*%
%TA.AperFunction,ComponentPad*%
%ADD18R,3.200000X2.000000*%
%TD*%
%TA.AperFunction,ComponentPad*%
%ADD19R,2.000000X2.000000*%
%TD*%
%TA.AperFunction,ViaPad*%
%ADD20C,0.800000*%
%TD*%
%TA.AperFunction,Conductor*%
%ADD21C,0.381000*%
%TD*%
%TA.AperFunction,Conductor*%
%ADD22C,0.254000*%
%TD*%
G04 APERTURE END LIST*
D10*
%TO.P,SW4,4*%
%TO.N,N/C*%
X138187500Y-108212500D03*
%TO.P,SW4,3*%
X144387500Y-104512500D03*
%TO.P,SW4,2*%
%TO.N,COL3*%
X138187500Y-104512500D03*
%TO.P,SW4,1*%
%TO.N,Net-(D15-Pad2)*%
X144387500Y-108212500D03*
%TD*%
%TO.P,SW3,4*%
%TO.N,N/C*%
X128662500Y-108212500D03*
%TO.P,SW3,3*%
X134862500Y-104512500D03*
%TO.P,SW3,2*%
%TO.N,COL2*%
X128662500Y-104512500D03*
%TO.P,SW3,1*%
%TO.N,Net-(D14-Pad2)*%
X134862500Y-108212500D03*
%TD*%
D11*
%TO.P,J1,6*%
%TO.N,KEYBOARD_RESET*%
X73881250Y-61325000D03*
%TO.P,J1,5*%
%TO.N,B1_SCLK*%
X76931250Y-61325000D03*
%TO.P,J1,4*%
%TO.N,B2_MOSI*%
X73881250Y-60325000D03*
%TO.P,J1,3*%
%TO.N,B3_MISO*%
X76931250Y-60325000D03*
%TO.P,J1,2*%
%TO.N,KEYBOARD_VCC*%
X73881250Y-59325000D03*
%TO.P,J1,1*%
%TO.N,KEYBOARD_GND*%
X76931250Y-59325000D03*
%TD*%
D12*
%TO.P,Brd1,2*%
%TO.N,KEYBOARD_VCC*%
X135445000Y-37025000D03*
%TO.P,Brd1,1*%
%TO.N,KEYBOARD_GND*%
X132905000Y-37025000D03*
%TO.P,Brd1,3*%
%TO.N,SCL*%
X137985000Y-37025000D03*
%TO.P,Brd1,4*%
%TO.N,SDA*%
X140525000Y-37025000D03*
%TD*%
D13*
%TO.P,USB1,12*%
%TO.N,KEYBOARD_GND*%
X84087500Y-42326250D03*
%TO.P,USB1,1*%
X90537500Y-42326250D03*
%TO.P,USB1,11*%
%TO.N,VCC*%
X84862500Y-42326250D03*
%TO.P,USB1,2*%
X89762500Y-42326250D03*
D14*
%TO.P,USB1,3*%
%TO.N,Net-(USB1-Pad3)*%
X89062500Y-42326250D03*
%TO.P,USB1,10*%
%TO.N,Net-(R5-Pad1)*%
X85562500Y-42326250D03*
%TO.P,USB1,4*%
%TO.N,Net-(R6-Pad1)*%
X88562500Y-42326250D03*
%TO.P,USB1,9*%
%TO.N,Net-(USB1-Pad9)*%
X86062500Y-42326250D03*
%TO.P,USB1,5*%
%TO.N,D-*%
X88062500Y-42326250D03*
%TO.P,USB1,8*%
%TO.N,D+*%
X86562500Y-42326250D03*
%TO.P,USB1,7*%
%TO.N,D-*%
X87062500Y-42326250D03*
%TO.P,USB1,6*%
%TO.N,D+*%
X87562500Y-42326250D03*
D15*
%TO.P,USB1,13*%
%TO.N,KEYBOARD_GND*%
X91632500Y-40911250D03*
X82992500Y-40911250D03*
D16*
X91632500Y-36731250D03*
X82992500Y-36731250D03*
%TD*%
D17*
%TO.P,SW2,S1*%
%TO.N,COL6*%
X190356250Y-51712500D03*
%TO.P,SW2,S2*%
%TO.N,Net-(D13-Pad2)*%
X190356250Y-46712500D03*
D18*
%TO.P,SW2,MP*%
%TO.N,N/C*%
X183356250Y-54812500D03*
X183356250Y-43612500D03*
D17*
%TO.P,SW2,B*%
%TO.N,ENC_B*%
X175856250Y-51712500D03*
%TO.P,SW2,C*%
%TO.N,KEYBOARD_GND*%
X175856250Y-49212500D03*
D19*
%TO.P,SW2,A*%
%TO.N,ENC_A*%
X175856250Y-46712500D03*
%TD*%
D10*
%TO.P,SW1,4*%
%TO.N,N/C*%
X159460000Y-51380000D03*
%TO.P,SW1,3*%
X165660000Y-47680000D03*
%TO.P,SW1,2*%
%TO.N,KEYBOARD_RESET*%
X159460000Y-47680000D03*
%TO.P,SW1,1*%
%TO.N,KEYBOARD_GND*%
X165660000Y-51380000D03*
%TD*%
D20*
%TO.N,KEYBOARD_GND*%
X165893750Y-52387500D03*
X107156250Y-60325000D03*
X110331250Y-57150000D03*
X114300000Y-46831250D03*
X116681250Y-42068750D03*
X125412500Y-53975000D03*
X123825000Y-57943750D03*
X120650000Y-57150000D03*
X80962500Y-42862500D03*
X98901250Y-46355000D03*
X102393750Y-38100000D03*
%TO.N,KEYBOARD_VCC*%
X105494164Y-52343915D03*
X107950000Y-50800000D03*
X102393750Y-55562500D03*
X109537500Y-57943750D03*
X153987500Y-61118750D03*
X117937177Y-56364930D03*
X103981250Y-38893750D03*
%TO.N,Net-(C4-Pad1)*%
X119856250Y-45243750D03*
X115887500Y-48418750D03*
%TO.N,ENC_A*%
X114776226Y-51848038D03*
X169862500Y-48418750D03*
%TO.N,ENC_B*%
X115628705Y-52708663D03*
X169068750Y-55562500D03*
%TO.N,ROW0*%
X100012500Y-78581250D03*
X114300000Y-78581250D03*
X119062500Y-78581250D03*
X133350000Y-78581250D03*
X134937500Y-80962500D03*
X153193750Y-78581250D03*
X157162500Y-78581250D03*
X171450000Y-78581250D03*
X176212500Y-78581250D03*
X191293750Y-78581250D03*
%TO.N,ROW1*%
X191293750Y-97631250D03*
X175418750Y-97631250D03*
X171450000Y-97631250D03*
X157162500Y-97631250D03*
X152400000Y-97631250D03*
X138112500Y-97631250D03*
X133350000Y-97631250D03*
X119062500Y-97631250D03*
X115093750Y-97631250D03*
X100012500Y-97631250D03*
X116681250Y-69056250D03*
X112712500Y-76200000D03*
%TO.N,VCC*%
X91281250Y-50800000D03*
%TO.N,COL0*%
X82550000Y-62706250D03*
X97631250Y-62706250D03*
%TO.N,COL2*%
X119062500Y-65881250D03*
X102393750Y-65087500D03*
X128587500Y-102393750D03*
%TO.N,COL3*%
X136525000Y-63500000D03*
X115887500Y-60325000D03*
X138906250Y-101600000D03*
%TO.N,COL4*%
X153987500Y-62706250D03*
X116681250Y-59531250D03*
%TO.N,COL5*%
X165893750Y-61912500D03*
X117475000Y-58737500D03*
%TO.N,D-*%
X88106250Y-48418750D03*
%TO.N,D+*%
X87312500Y-46831250D03*
%TO.N,KEYBOARD_RESET*%
X154781250Y-47625000D03*
X110331250Y-48418750D03*
X153193750Y-53181250D03*
%TO.N,Net-(R4-Pad2)*%
X116681250Y-61912500D03*
X111918750Y-61912500D03*
%TO.N,Net-(R5-Pad1)*%
X85725000Y-45243750D03*
%TO.N,Net-(R6-Pad1)*%
X88106250Y-39687500D03*
%TO.N,COL6*%
X188912500Y-60325000D03*
X123031250Y-60325000D03*
%TO.N,SCL*%
X112712500Y-50006250D03*
%TO.N,SDA*%
X111918750Y-50800000D03*
%TO.N,KEYBOARD_VCC*%
X84931250Y-53181250D03*
%TO.N,KEYBOARD_GND*%
X76993750Y-57943750D03*
%TO.N,KEYBOARD_RESET*%
X121443750Y-64293750D03*
X126206250Y-59531250D03*
X153193750Y-59531250D03*
%TO.N,B1_SCLK*%
X106446468Y-45159782D03*
%TO.N,B2_MOSI*%
X106328986Y-44166705D03*
X79375000Y-60598000D03*
X72231250Y-61118750D03*
%TO.N,B3_MISO*%
X106394500Y-43168852D03*
%TO.N,Net-(D14-Pad2)*%
X126206250Y-109537500D03*
%TO.N,Net-(D15-Pad2)*%
X146843750Y-107950000D03*
%TD*%
D21*
%TO.N,KEYBOARD_GND*%
X165893750Y-51613750D02*
X165660000Y-51380000D01*
X165893750Y-52387500D02*
X165893750Y-51613750D01*
X110331250Y-58319942D02*
X110331250Y-57150000D01*
X108326192Y-60325000D02*
X110331250Y-58319942D01*
X107156250Y-60325000D02*
X108326192Y-60325000D01*
X116681250Y-44450000D02*
X116681250Y-42068750D01*
X114300000Y-46831250D02*
X116681250Y-44450000D01*
X163996000Y-53975000D02*
X125412500Y-53975000D01*
X165660000Y-52311000D02*
X163996000Y-53975000D01*
X165660000Y-51380000D02*
X165660000Y-52311000D01*
X121443750Y-57943750D02*
X120650000Y-57150000D01*
X123825000Y-57943750D02*
X121443750Y-57943750D01*
X82992500Y-41231250D02*
X84087500Y-42326250D01*
X82992500Y-40911250D02*
X82992500Y-41231250D01*
X91632500Y-41231250D02*
X90537500Y-42326250D01*
X91632500Y-40911250D02*
X91632500Y-41231250D01*
X82992500Y-36731250D02*
X82992500Y-40911250D01*
X82992500Y-36731250D02*
X91632500Y-36731250D01*
X91632500Y-40911250D02*
X91632500Y-36731250D01*
X81498750Y-42326250D02*
X80962500Y-42862500D01*
X84087500Y-42326250D02*
X81498750Y-42326250D01*
X94872500Y-42326250D02*
X98901250Y-46355000D01*
X90537500Y-42326250D02*
X94872500Y-42326250D01*
X103468750Y-37025000D02*
X102393750Y-38100000D01*
X132905000Y-37025000D02*
X103468750Y-37025000D01*
%TO.N,KEYBOARD_VCC*%
X106406085Y-52343915D02*
X107950000Y-50800000D01*
X105494164Y-52343915D02*
X106406085Y-52343915D01*
X102393750Y-55562500D02*
X107156250Y-55562500D01*
X107156250Y-55562500D02*
X109537500Y-57943750D01*
X153987500Y-61118750D02*
X121443750Y-61118750D01*
X121443750Y-59871503D02*
X117937177Y-56364930D01*
X121443750Y-61118750D02*
X121443750Y-59871503D01*
X133576250Y-38893750D02*
X103981250Y-38893750D01*
X135445000Y-37025000D02*
X133576250Y-38893750D01*
D22*
%TO.N,Net-(C4-Pad1)*%
X116681250Y-48418750D02*
X115887500Y-48418750D01*
X119856250Y-45243750D02*
X116681250Y-48418750D01*
%TO.N,ENC_A*%
X114776226Y-51848038D02*
X116141788Y-51848038D01*
X116141788Y-51848038D02*
X119062500Y-54768750D01*
X119062500Y-54768750D02*
X164588462Y-54768750D01*
X164588462Y-54768750D02*
X167481250Y-54768750D01*
X167481250Y-50800000D02*
X169862500Y-48418750D01*
X167481250Y-54768750D02*
X167481250Y-50800000D01*
%TO.N,ENC_B*%
X118482542Y-55562500D02*
X169068750Y-55562500D01*
X115628705Y-52708663D02*
X118482542Y-55562500D01*
%TO.N,ROW0*%
X100012500Y-78581250D02*
X114300000Y-78581250D01*
X119062500Y-78581250D02*
X133350000Y-78581250D01*
X134937500Y-80962500D02*
X149225000Y-80962500D01*
X150812500Y-80962500D02*
X153193750Y-78581250D01*
X149225000Y-80962500D02*
X150812500Y-80962500D01*
X157162500Y-78581250D02*
X171450000Y-78581250D01*
X176212500Y-78581250D02*
X191293750Y-78581250D01*
%TO.N,ROW1*%
X191293750Y-97631250D02*
X175418750Y-97631250D01*
X171450000Y-97631250D02*
X157162500Y-97631250D01*
X152400000Y-97631250D02*
X138112500Y-97631250D01*
X133350000Y-97631250D02*
X119062500Y-97631250D01*
X115093750Y-97631250D02*
X100012500Y-97631250D01*
X116681250Y-72231250D02*
X112712500Y-76200000D01*
X116681250Y-69056250D02*
X116681250Y-72231250D01*
D21*
%TO.N,VCC*%
X89762500Y-49281250D02*
X91281250Y-50800000D01*
X89762500Y-42326250D02*
X89762500Y-49281250D01*
X89762500Y-41000192D02*
X89762500Y-42326250D01*
X89486999Y-40724691D02*
X89762500Y-41000192D01*
X89486999Y-39898307D02*
X89486999Y-40724691D01*
X88485691Y-38896999D02*
X89486999Y-39898307D01*
X86965693Y-38896999D02*
X88485691Y-38896999D01*
X84862500Y-41000192D02*
X86965693Y-38896999D01*
X84862500Y-42326250D02*
X84862500Y-41000192D01*
D22*
%TO.N,COL0*%
X82550000Y-62706250D02*
X97631250Y-62706250D01*
%TO.N,COL2*%
X118268750Y-65087500D02*
X102393750Y-65087500D01*
X119062500Y-65881250D02*
X118268750Y-65087500D01*
X128587500Y-104437500D02*
X128662500Y-104512500D01*
X128587500Y-102393750D02*
X128587500Y-104437500D01*
%TO.N,COL3*%
X136525000Y-63500000D02*
X119856250Y-63500000D01*
X116681250Y-60325000D02*
X115887500Y-60325000D01*
X119856250Y-63500000D02*
X116681250Y-60325000D01*
X138187500Y-102318750D02*
X138187500Y-104512500D01*
X138906250Y-101600000D02*
X138187500Y-102318750D01*
%TO.N,COL4*%
X153987500Y-62706250D02*
X120650000Y-62706250D01*
X119856250Y-62706250D02*
X116681250Y-59531250D01*
X120650000Y-62706250D02*
X119856250Y-62706250D01*
%TO.N,COL5*%
X120650000Y-61912500D02*
X117475000Y-58737500D01*
X165893750Y-61912500D02*
X120650000Y-61912500D01*
%TO.N,D-*%
X88062500Y-48375000D02*
X88106250Y-48418750D01*
X87062500Y-44287500D02*
X88062500Y-45287500D01*
X87062500Y-42326250D02*
X87062500Y-44287500D01*
X88062500Y-45287500D02*
X88062500Y-48375000D01*
X88062500Y-42326250D02*
X88062500Y-45287500D01*
%TO.N,D+*%
X87562500Y-40862648D02*
X87562500Y-42326250D01*
X86650899Y-40774249D02*
X87474101Y-40774249D01*
X87474101Y-40774249D02*
X87562500Y-40862648D01*
X86562500Y-40862648D02*
X86650899Y-40774249D01*
X86562500Y-42326250D02*
X86562500Y-40862648D01*
X86562500Y-46081250D02*
X87312500Y-46831250D01*
X86562500Y-42326250D02*
X86562500Y-46081250D01*
%TO.N,KEYBOARD_RESET*%
X154836250Y-47680000D02*
X154781250Y-47625000D01*
X159460000Y-47680000D02*
X154836250Y-47680000D01*
X110331250Y-48418750D02*
X113506250Y-48418750D01*
X113506250Y-48418750D02*
X118268750Y-53181250D01*
X118268750Y-53181250D02*
X153193750Y-53181250D01*
%TO.N,Net-(R4-Pad2)*%
X116681250Y-61912500D02*
X111918750Y-61912500D01*
%TO.N,Net-(R5-Pad1)*%
X85562500Y-45081250D02*
X85725000Y-45243750D01*
X85562500Y-42326250D02*
X85562500Y-45081250D01*
%TO.N,Net-(R6-Pad1)*%
X88562500Y-40143750D02*
X88562500Y-42326250D01*
X88106250Y-39687500D02*
X88562500Y-40143750D01*
%TO.N,COL6*%
X188912500Y-60325000D02*
X123031250Y-60325000D01*
%TO.N,SCL*%
X137985000Y-37025000D02*
X137985000Y-38227500D01*
X135598740Y-39411260D02*
X114576240Y-39411260D01*
X137985000Y-37025000D02*
X135598740Y-39411260D01*
X112712500Y-51082212D02*
X112712500Y-50006250D01*
X112267711Y-51527001D02*
X112712500Y-51082212D01*
X111437999Y-51527001D02*
X112267711Y-51527001D01*
X109150239Y-49239241D02*
X111437999Y-51527001D01*
X109150239Y-44837261D02*
X109150239Y-49239241D01*
X114576240Y-39411260D02*
X109150239Y-44837261D01*
%TO.N,SDA*%
X109604249Y-49051184D02*
X109604249Y-45177001D01*
X111353065Y-50800000D02*
X109604249Y-49051184D01*
X111918750Y-50800000D02*
X111353065Y-50800000D01*
X109604249Y-45177001D02*
X114300000Y-40481250D01*
X137068750Y-40481250D02*
X140525000Y-37025000D01*
X114300000Y-40481250D02*
X137068750Y-40481250D01*
%TO.N,KEYBOARD_VCC*%
X80025000Y-53181250D02*
X73881250Y-59325000D01*
X84931250Y-53181250D02*
X80025000Y-53181250D01*
%TO.N,KEYBOARD_GND*%
X76993750Y-59262500D02*
X76931250Y-59325000D01*
X76993750Y-57943750D02*
X76993750Y-59262500D01*
%TO.N,KEYBOARD_RESET*%
X76850000Y-64293750D02*
X121443750Y-64293750D01*
X73881250Y-61325000D02*
X76850000Y-64293750D01*
X126206250Y-59531250D02*
X153193750Y-59531250D01*
%TO.N,B1_SCLK*%
X90281250Y-61325000D02*
X106446468Y-45159782D01*
X76931250Y-61325000D02*
X90281250Y-61325000D01*
%TO.N,B2_MOSI*%
X89932288Y-60598000D02*
X79375000Y-60598000D01*
X106363583Y-44166705D02*
X89932288Y-60598000D01*
X106328986Y-44166705D02*
X106363583Y-44166705D01*
X73025000Y-60325000D02*
X73881250Y-60325000D01*
X72231250Y-61118750D02*
X73025000Y-60325000D01*
%TO.N,B3_MISO*%
X106250877Y-43168852D02*
X106394500Y-43168852D01*
X89548730Y-59870999D02*
X106250877Y-43168852D01*
X79026039Y-59870999D02*
X89548730Y-59870999D01*
X78572038Y-60325000D02*
X79026039Y-59870999D01*
X76931250Y-60325000D02*
X78572038Y-60325000D01*
%TO.N,Net-(D14-Pad2)*%
X133537500Y-109537500D02*
X126206250Y-109537500D01*
X134862500Y-108212500D02*
X133537500Y-109537500D01*
%TO.N,Net-(D15-Pad2)*%
X146581250Y-108212500D02*
X146843750Y-107950000D01*
X144387500Y-108212500D02*
X146581250Y-108212500D01*
%TD*%
M02*
