%TF.GenerationSoftware,KiCad,Pcbnew,(5.1.9)-1*%
%TF.CreationDate,2021-03-22T08:17:26-07:00*%
%TF.ProjectId,millipad,6d696c6c-6970-4616-942e-6b696361645f,rev?*%
%TF.SameCoordinates,Original*%
%TF.FileFunction,Soldermask,Top*%
%TF.FilePolarity,Negative*%
%FSLAX46Y46*%
G04 Gerber Fmt 4.6, Leading zero omitted, Abs format (unit mm)*
G04 Created by KiCad (PCBNEW (5.1.9)-1) date 2021-03-22 08:17:26*
%MOMM*%
%LPD*%
G01*
G04 APERTURE LIST*
%ADD10C,2.700000*%
%ADD11R,0.600000X2.450000*%
%ADD12R,0.300000X2.450000*%
%ADD13C,0.650000*%
%ADD14C,2.000000*%
%ADD15R,3.200000X2.000000*%
%ADD16R,2.000000X2.000000*%
%ADD17R,1.800000X1.100000*%
%ADD18C,1.750000*%
%ADD19C,3.000000*%
%ADD20C,3.987800*%
G04 APERTURE END LIST*
D10*
%TO.C,H4*%
X74930000Y-99060000D03*
%TD*%
%TO.C,H3*%
X198120000Y-44450000D03*
%TD*%
%TO.C,H2*%
X74930000Y-44450000D03*
%TD*%
%TO.C,H1*%
X198120000Y-99060000D03*
%TD*%
D11*
%TO.C,USB1*%
X83770000Y-47088750D03*
X90220000Y-47088750D03*
X84545000Y-47088750D03*
X89445000Y-47088750D03*
D12*
X88745000Y-47088750D03*
X85245000Y-47088750D03*
X88245000Y-47088750D03*
X85745000Y-47088750D03*
X87745000Y-47088750D03*
X86245000Y-47088750D03*
X86745000Y-47088750D03*
X87245000Y-47088750D03*
D13*
X84105000Y-45143750D03*
X89885000Y-45143750D03*
%TD*%
D14*
%TO.C,SW2*%
X190356250Y-53300000D03*
X190356250Y-48300000D03*
D15*
X183356250Y-56400000D03*
X183356250Y-45200000D03*
D14*
X175856250Y-53300000D03*
X175856250Y-50800000D03*
D16*
X175856250Y-48300000D03*
%TD*%
D17*
%TO.C,SW1*%
X159460000Y-51380000D03*
X165660000Y-47680000D03*
X159460000Y-47680000D03*
X165660000Y-51380000D03*
%TD*%
D18*
%TO.C,MX12*%
X189230000Y-92075000D03*
X179070000Y-92075000D03*
D19*
X180340000Y-89535000D03*
D20*
X184150000Y-92075000D03*
D19*
X186690000Y-86995000D03*
%TD*%
D18*
%TO.C,MX11*%
X189230000Y-73025000D03*
X179070000Y-73025000D03*
D19*
X180340000Y-70485000D03*
D20*
X184150000Y-73025000D03*
D19*
X186690000Y-67945000D03*
%TD*%
D18*
%TO.C,MX10*%
X170180000Y-92075000D03*
X160020000Y-92075000D03*
D19*
X161290000Y-89535000D03*
D20*
X165100000Y-92075000D03*
D19*
X167640000Y-86995000D03*
%TD*%
D18*
%TO.C,MX9*%
X170180000Y-73025000D03*
X160020000Y-73025000D03*
D19*
X161290000Y-70485000D03*
D20*
X165100000Y-73025000D03*
D19*
X167640000Y-67945000D03*
%TD*%
D18*
%TO.C,MX8*%
X151130000Y-92075000D03*
X140970000Y-92075000D03*
D19*
X142240000Y-89535000D03*
D20*
X146050000Y-92075000D03*
D19*
X148590000Y-86995000D03*
%TD*%
D18*
%TO.C,MX7*%
X151130000Y-73025000D03*
X140970000Y-73025000D03*
D19*
X142240000Y-70485000D03*
D20*
X146050000Y-73025000D03*
D19*
X148590000Y-67945000D03*
%TD*%
D18*
%TO.C,MX6*%
X132080000Y-92075000D03*
X121920000Y-92075000D03*
D19*
X123190000Y-89535000D03*
D20*
X127000000Y-92075000D03*
D19*
X129540000Y-86995000D03*
%TD*%
D18*
%TO.C,MX5*%
X132080000Y-73025000D03*
X121920000Y-73025000D03*
D19*
X123190000Y-70485000D03*
D20*
X127000000Y-73025000D03*
D19*
X129540000Y-67945000D03*
%TD*%
D18*
%TO.C,MX4*%
X113030000Y-92075000D03*
X102870000Y-92075000D03*
D19*
X104140000Y-89535000D03*
D20*
X107950000Y-92075000D03*
D19*
X110490000Y-86995000D03*
%TD*%
D18*
%TO.C,MX3*%
X113030000Y-73025000D03*
X102870000Y-73025000D03*
D19*
X104140000Y-70485000D03*
D20*
X107950000Y-73025000D03*
D19*
X110490000Y-67945000D03*
%TD*%
D18*
%TO.C,MX2*%
X93980000Y-92075000D03*
X83820000Y-92075000D03*
D19*
X85090000Y-89535000D03*
D20*
X88900000Y-92075000D03*
D19*
X91440000Y-86995000D03*
%TD*%
D18*
%TO.C,MX1*%
X93980000Y-73025000D03*
X83820000Y-73025000D03*
D19*
X85090000Y-70485000D03*
D20*
X88900000Y-73025000D03*
D19*
X91440000Y-67945000D03*
%TD*%
M02*
