%TF.GenerationSoftware,KiCad,Pcbnew,(5.1.9)-1*%
%TF.CreationDate,2021-03-22T08:17:26-07:00*%
%TF.ProjectId,millipad,6d696c6c-6970-4616-942e-6b696361645f,rev?*%
%TF.SameCoordinates,Original*%
%TF.FileFunction,Copper,L2,Bot*%
%TF.FilePolarity,Positive*%
%FSLAX46Y46*%
G04 Gerber Fmt 4.6, Leading zero omitted, Abs format (unit mm)*
G04 Created by KiCad (PCBNEW (5.1.9)-1) date 2021-03-22 08:17:26*
%MOMM*%
%LPD*%
G01*
G04 APERTURE LIST*
%TA.AperFunction,SMDPad,CuDef*%
%ADD10C,0.100000*%
%TD*%
%TA.AperFunction,ComponentPad*%
%ADD11O,1.000000X2.100000*%
%TD*%
%TA.AperFunction,ComponentPad*%
%ADD12O,1.000000X1.600000*%
%TD*%
%TA.AperFunction,SMDPad,CuDef*%
%ADD13R,0.482600X1.168400*%
%TD*%
%TA.AperFunction,SMDPad,CuDef*%
%ADD14R,0.889000X1.168400*%
%TD*%
%TA.AperFunction,ComponentPad*%
%ADD15C,2.000000*%
%TD*%
%TA.AperFunction,ComponentPad*%
%ADD16R,3.200000X2.000000*%
%TD*%
%TA.AperFunction,ComponentPad*%
%ADD17R,2.000000X2.000000*%
%TD*%
%TA.AperFunction,SMDPad,CuDef*%
%ADD18R,2.550000X2.500000*%
%TD*%
%TA.AperFunction,SMDPad,CuDef*%
%ADD19R,1.200000X0.900000*%
%TD*%
%TA.AperFunction,ViaPad*%
%ADD20C,0.800000*%
%TD*%
%TA.AperFunction,Conductor*%
%ADD21C,0.381000*%
%TD*%
%TA.AperFunction,Conductor*%
%ADD22C,0.254000*%
%TD*%
G04 APERTURE END LIST*
%TO.P,C1,2*%
%TO.N,GND*%
%TA.AperFunction,SMDPad,CuDef*%
G36*
G01*
X120651250Y-45376250D02*
X121601250Y-45376250D01*
G75*
G02*
X121851250Y-45626250I0J-250000D01*
G01*
X121851250Y-46126250D01*
G75*
G02*
X121601250Y-46376250I-250000J0D01*
G01*
X120651250Y-46376250D01*
G75*
G02*
X120401250Y-46126250I0J250000D01*
G01*
X120401250Y-45626250D01*
G75*
G02*
X120651250Y-45376250I250000J0D01*
G01*
G37*
%TD.AperFunction*%
%TO.P,C1,1*%
%TO.N,+5V*%
%TA.AperFunction,SMDPad,CuDef*%
G36*
G01*
X120651250Y-43476250D02*
X121601250Y-43476250D01*
G75*
G02*
X121851250Y-43726250I0J-250000D01*
G01*
X121851250Y-44226250D01*
G75*
G02*
X121601250Y-44476250I-250000J0D01*
G01*
X120651250Y-44476250D01*
G75*
G02*
X120401250Y-44226250I0J250000D01*
G01*
X120401250Y-43726250D01*
G75*
G02*
X120651250Y-43476250I250000J0D01*
G01*
G37*
%TD.AperFunction*%
%TD*%
%TA.AperFunction,SMDPad,CuDef*%
D10*
%TO.P,Y1,4*%
%TO.N,GND*%
G36*
X149472488Y-42945653D02*
G01*
X150321016Y-43794181D01*
X149331066Y-44784131D01*
X148482538Y-43935603D01*
X149472488Y-42945653D01*
G37*
%TD.AperFunction*%
%TA.AperFunction,SMDPad,CuDef*%
%TO.P,Y1,3*%
%TO.N,Net-(C5-Pad1)*%
G36*
X147916853Y-44501288D02*
G01*
X148765381Y-45349816D01*
X147775431Y-46339766D01*
X146926903Y-45491238D01*
X147916853Y-44501288D01*
G37*
%TD.AperFunction*%
%TA.AperFunction,SMDPad,CuDef*%
%TO.P,Y1,2*%
%TO.N,GND*%
G36*
X149118934Y-45703369D02*
G01*
X149967462Y-46551897D01*
X148977512Y-47541847D01*
X148128984Y-46693319D01*
X149118934Y-45703369D01*
G37*
%TD.AperFunction*%
%TA.AperFunction,SMDPad,CuDef*%
%TO.P,Y1,1*%
%TO.N,Net-(C4-Pad1)*%
G36*
X150674569Y-44147734D02*
G01*
X151523097Y-44996262D01*
X150533147Y-45986212D01*
X149684619Y-45137684D01*
X150674569Y-44147734D01*
G37*
%TD.AperFunction*%
%TD*%
D11*
%TO.P,USB1,13*%
%TO.N,GND*%
X91315000Y-45673750D03*
X82675000Y-45673750D03*
D12*
X91315000Y-41493750D03*
X82675000Y-41493750D03*
%TD*%
D13*
%TO.P,U2,4*%
%TO.N,+5V*%
X88696799Y-59436000D03*
%TO.P,U2,3*%
%TO.N,D-*%
X90596801Y-59436000D03*
%TO.P,U2,2*%
%TO.N,D+*%
X90596800Y-57404000D03*
D14*
%TO.P,U2,1*%
%TO.N,GND*%
X88900000Y-57404000D03*
%TD*%
%TA.AperFunction,SMDPad,CuDef*%
D10*
%TO.P,U1,44*%
%TO.N,+5V*%
G36*
X133176940Y-54452298D02*
G01*
X133565848Y-54841206D01*
X132505188Y-55901866D01*
X132116280Y-55512958D01*
X133176940Y-54452298D01*
G37*
%TD.AperFunction*%
%TA.AperFunction,SMDPad,CuDef*%
%TO.P,U1,43*%
%TO.N,GND*%
G36*
X133742626Y-55017983D02*
G01*
X134131534Y-55406891D01*
X133070874Y-56467551D01*
X132681966Y-56078643D01*
X133742626Y-55017983D01*
G37*
%TD.AperFunction*%
%TA.AperFunction,SMDPad,CuDef*%
%TO.P,U1,42*%
%TO.N,Net-(U1-Pad42)*%
G36*
X134308311Y-55583668D02*
G01*
X134697219Y-55972576D01*
X133636559Y-57033236D01*
X133247651Y-56644328D01*
X134308311Y-55583668D01*
G37*
%TD.AperFunction*%
%TA.AperFunction,SMDPad,CuDef*%
%TO.P,U1,41*%
%TO.N,COL0*%
G36*
X134873996Y-56149354D02*
G01*
X135262904Y-56538262D01*
X134202244Y-57598922D01*
X133813336Y-57210014D01*
X134873996Y-56149354D01*
G37*
%TD.AperFunction*%
%TA.AperFunction,SMDPad,CuDef*%
%TO.P,U1,40*%
%TO.N,COL1*%
G36*
X135439682Y-56715039D02*
G01*
X135828590Y-57103947D01*
X134767930Y-58164607D01*
X134379022Y-57775699D01*
X135439682Y-56715039D01*
G37*
%TD.AperFunction*%
%TA.AperFunction,SMDPad,CuDef*%
%TO.P,U1,39*%
%TO.N,COL2*%
G36*
X136005367Y-57280725D02*
G01*
X136394275Y-57669633D01*
X135333615Y-58730293D01*
X134944707Y-58341385D01*
X136005367Y-57280725D01*
G37*
%TD.AperFunction*%
%TA.AperFunction,SMDPad,CuDef*%
%TO.P,U1,38*%
%TO.N,Net-(U1-Pad38)*%
G36*
X136571053Y-57846410D02*
G01*
X136959961Y-58235318D01*
X135899301Y-59295978D01*
X135510393Y-58907070D01*
X136571053Y-57846410D01*
G37*
%TD.AperFunction*%
%TA.AperFunction,SMDPad,CuDef*%
%TO.P,U1,37*%
%TO.N,Net-(U1-Pad37)*%
G36*
X137136738Y-58412096D02*
G01*
X137525646Y-58801004D01*
X136464986Y-59861664D01*
X136076078Y-59472756D01*
X137136738Y-58412096D01*
G37*
%TD.AperFunction*%
%TA.AperFunction,SMDPad,CuDef*%
%TO.P,U1,36*%
%TO.N,Net-(U1-Pad36)*%
G36*
X137702424Y-58977781D02*
G01*
X138091332Y-59366689D01*
X137030672Y-60427349D01*
X136641764Y-60038441D01*
X137702424Y-58977781D01*
G37*
%TD.AperFunction*%
%TA.AperFunction,SMDPad,CuDef*%
%TO.P,U1,35*%
%TO.N,GND*%
G36*
X138268109Y-59543466D02*
G01*
X138657017Y-59932374D01*
X137596357Y-60993034D01*
X137207449Y-60604126D01*
X138268109Y-59543466D01*
G37*
%TD.AperFunction*%
%TA.AperFunction,SMDPad,CuDef*%
%TO.P,U1,34*%
%TO.N,+5V*%
G36*
X138833794Y-60109152D02*
G01*
X139222702Y-60498060D01*
X138162042Y-61558720D01*
X137773134Y-61169812D01*
X138833794Y-60109152D01*
G37*
%TD.AperFunction*%
%TA.AperFunction,SMDPad,CuDef*%
%TO.P,U1,33*%
%TO.N,Net-(R4-Pad2)*%
G36*
X140177298Y-60498060D02*
G01*
X140566206Y-60109152D01*
X141626866Y-61169812D01*
X141237958Y-61558720D01*
X140177298Y-60498060D01*
G37*
%TD.AperFunction*%
%TA.AperFunction,SMDPad,CuDef*%
%TO.P,U1,32*%
%TO.N,ROW1*%
G36*
X140742983Y-59932374D02*
G01*
X141131891Y-59543466D01*
X142192551Y-60604126D01*
X141803643Y-60993034D01*
X140742983Y-59932374D01*
G37*
%TD.AperFunction*%
%TA.AperFunction,SMDPad,CuDef*%
%TO.P,U1,31*%
%TO.N,ROW0*%
G36*
X141308668Y-59366689D02*
G01*
X141697576Y-58977781D01*
X142758236Y-60038441D01*
X142369328Y-60427349D01*
X141308668Y-59366689D01*
G37*
%TD.AperFunction*%
%TA.AperFunction,SMDPad,CuDef*%
%TO.P,U1,30*%
%TO.N,Net-(U1-Pad30)*%
G36*
X141874354Y-58801004D02*
G01*
X142263262Y-58412096D01*
X143323922Y-59472756D01*
X142935014Y-59861664D01*
X141874354Y-58801004D01*
G37*
%TD.AperFunction*%
%TA.AperFunction,SMDPad,CuDef*%
%TO.P,U1,29*%
%TO.N,Net-(U1-Pad29)*%
G36*
X142440039Y-58235318D02*
G01*
X142828947Y-57846410D01*
X143889607Y-58907070D01*
X143500699Y-59295978D01*
X142440039Y-58235318D01*
G37*
%TD.AperFunction*%
%TA.AperFunction,SMDPad,CuDef*%
%TO.P,U1,28*%
%TO.N,Net-(U1-Pad28)*%
G36*
X143005725Y-57669633D02*
G01*
X143394633Y-57280725D01*
X144455293Y-58341385D01*
X144066385Y-58730293D01*
X143005725Y-57669633D01*
G37*
%TD.AperFunction*%
%TA.AperFunction,SMDPad,CuDef*%
%TO.P,U1,27*%
%TO.N,COL3*%
G36*
X143571410Y-57103947D02*
G01*
X143960318Y-56715039D01*
X145020978Y-57775699D01*
X144632070Y-58164607D01*
X143571410Y-57103947D01*
G37*
%TD.AperFunction*%
%TA.AperFunction,SMDPad,CuDef*%
%TO.P,U1,26*%
%TO.N,COL4*%
G36*
X144137096Y-56538262D02*
G01*
X144526004Y-56149354D01*
X145586664Y-57210014D01*
X145197756Y-57598922D01*
X144137096Y-56538262D01*
G37*
%TD.AperFunction*%
%TA.AperFunction,SMDPad,CuDef*%
%TO.P,U1,25*%
%TO.N,COL5*%
G36*
X144702781Y-55972576D02*
G01*
X145091689Y-55583668D01*
X146152349Y-56644328D01*
X145763441Y-57033236D01*
X144702781Y-55972576D01*
G37*
%TD.AperFunction*%
%TA.AperFunction,SMDPad,CuDef*%
%TO.P,U1,24*%
%TO.N,+5V*%
G36*
X145268466Y-55406891D02*
G01*
X145657374Y-55017983D01*
X146718034Y-56078643D01*
X146329126Y-56467551D01*
X145268466Y-55406891D01*
G37*
%TD.AperFunction*%
%TA.AperFunction,SMDPad,CuDef*%
%TO.P,U1,23*%
%TO.N,GND*%
G36*
X145834152Y-54841206D02*
G01*
X146223060Y-54452298D01*
X147283720Y-55512958D01*
X146894812Y-55901866D01*
X145834152Y-54841206D01*
G37*
%TD.AperFunction*%
%TA.AperFunction,SMDPad,CuDef*%
%TO.P,U1,22*%
%TO.N,COL6*%
G36*
X146894812Y-52048134D02*
G01*
X147283720Y-52437042D01*
X146223060Y-53497702D01*
X145834152Y-53108794D01*
X146894812Y-52048134D01*
G37*
%TD.AperFunction*%
%TA.AperFunction,SMDPad,CuDef*%
%TO.P,U1,21*%
%TO.N,ENC_B*%
G36*
X146329126Y-51482449D02*
G01*
X146718034Y-51871357D01*
X145657374Y-52932017D01*
X145268466Y-52543109D01*
X146329126Y-51482449D01*
G37*
%TD.AperFunction*%
%TA.AperFunction,SMDPad,CuDef*%
%TO.P,U1,20*%
%TO.N,ENC_A*%
G36*
X145763441Y-50916764D02*
G01*
X146152349Y-51305672D01*
X145091689Y-52366332D01*
X144702781Y-51977424D01*
X145763441Y-50916764D01*
G37*
%TD.AperFunction*%
%TA.AperFunction,SMDPad,CuDef*%
%TO.P,U1,19*%
%TO.N,Net-(U1-Pad19)*%
G36*
X145197756Y-50351078D02*
G01*
X145586664Y-50739986D01*
X144526004Y-51800646D01*
X144137096Y-51411738D01*
X145197756Y-50351078D01*
G37*
%TD.AperFunction*%
%TA.AperFunction,SMDPad,CuDef*%
%TO.P,U1,18*%
%TO.N,Net-(U1-Pad18)*%
G36*
X144632070Y-49785393D02*
G01*
X145020978Y-50174301D01*
X143960318Y-51234961D01*
X143571410Y-50846053D01*
X144632070Y-49785393D01*
G37*
%TD.AperFunction*%
%TA.AperFunction,SMDPad,CuDef*%
%TO.P,U1,17*%
%TO.N,Net-(C4-Pad1)*%
G36*
X144066385Y-49219707D02*
G01*
X144455293Y-49608615D01*
X143394633Y-50669275D01*
X143005725Y-50280367D01*
X144066385Y-49219707D01*
G37*
%TD.AperFunction*%
%TA.AperFunction,SMDPad,CuDef*%
%TO.P,U1,16*%
%TO.N,Net-(C5-Pad1)*%
G36*
X143500699Y-48654022D02*
G01*
X143889607Y-49042930D01*
X142828947Y-50103590D01*
X142440039Y-49714682D01*
X143500699Y-48654022D01*
G37*
%TD.AperFunction*%
%TA.AperFunction,SMDPad,CuDef*%
%TO.P,U1,15*%
%TO.N,GND*%
G36*
X142935014Y-48088336D02*
G01*
X143323922Y-48477244D01*
X142263262Y-49537904D01*
X141874354Y-49148996D01*
X142935014Y-48088336D01*
G37*
%TD.AperFunction*%
%TA.AperFunction,SMDPad,CuDef*%
%TO.P,U1,14*%
%TO.N,+5V*%
G36*
X142369328Y-47522651D02*
G01*
X142758236Y-47911559D01*
X141697576Y-48972219D01*
X141308668Y-48583311D01*
X142369328Y-47522651D01*
G37*
%TD.AperFunction*%
%TA.AperFunction,SMDPad,CuDef*%
%TO.P,U1,13*%
%TO.N,Net-(R3-Pad2)*%
G36*
X141803643Y-46956966D02*
G01*
X142192551Y-47345874D01*
X141131891Y-48406534D01*
X140742983Y-48017626D01*
X141803643Y-46956966D01*
G37*
%TD.AperFunction*%
%TA.AperFunction,SMDPad,CuDef*%
%TO.P,U1,12*%
%TO.N,Net-(U1-Pad12)*%
G36*
X141237958Y-46391280D02*
G01*
X141626866Y-46780188D01*
X140566206Y-47840848D01*
X140177298Y-47451940D01*
X141237958Y-46391280D01*
G37*
%TD.AperFunction*%
%TA.AperFunction,SMDPad,CuDef*%
%TO.P,U1,11*%
%TO.N,Net-(U1-Pad11)*%
G36*
X137773134Y-46780188D02*
G01*
X138162042Y-46391280D01*
X139222702Y-47451940D01*
X138833794Y-47840848D01*
X137773134Y-46780188D01*
G37*
%TD.AperFunction*%
%TA.AperFunction,SMDPad,CuDef*%
%TO.P,U1,10*%
%TO.N,Net-(U1-Pad10)*%
G36*
X137207449Y-47345874D02*
G01*
X137596357Y-46956966D01*
X138657017Y-48017626D01*
X138268109Y-48406534D01*
X137207449Y-47345874D01*
G37*
%TD.AperFunction*%
%TA.AperFunction,SMDPad,CuDef*%
%TO.P,U1,9*%
%TO.N,Net-(U1-Pad9)*%
G36*
X136641764Y-47911559D02*
G01*
X137030672Y-47522651D01*
X138091332Y-48583311D01*
X137702424Y-48972219D01*
X136641764Y-47911559D01*
G37*
%TD.AperFunction*%
%TA.AperFunction,SMDPad,CuDef*%
%TO.P,U1,8*%
%TO.N,Net-(U1-Pad8)*%
G36*
X136076078Y-48477244D02*
G01*
X136464986Y-48088336D01*
X137525646Y-49148996D01*
X137136738Y-49537904D01*
X136076078Y-48477244D01*
G37*
%TD.AperFunction*%
%TA.AperFunction,SMDPad,CuDef*%
%TO.P,U1,7*%
%TO.N,+5V*%
G36*
X135510393Y-49042930D02*
G01*
X135899301Y-48654022D01*
X136959961Y-49714682D01*
X136571053Y-50103590D01*
X135510393Y-49042930D01*
G37*
%TD.AperFunction*%
%TA.AperFunction,SMDPad,CuDef*%
%TO.P,U1,6*%
%TO.N,Net-(C7-Pad1)*%
G36*
X134944707Y-49608615D02*
G01*
X135333615Y-49219707D01*
X136394275Y-50280367D01*
X136005367Y-50669275D01*
X134944707Y-49608615D01*
G37*
%TD.AperFunction*%
%TA.AperFunction,SMDPad,CuDef*%
%TO.P,U1,5*%
%TO.N,GND*%
G36*
X134379022Y-50174301D02*
G01*
X134767930Y-49785393D01*
X135828590Y-50846053D01*
X135439682Y-51234961D01*
X134379022Y-50174301D01*
G37*
%TD.AperFunction*%
%TA.AperFunction,SMDPad,CuDef*%
%TO.P,U1,4*%
%TO.N,Net-(R2-Pad1)*%
G36*
X133813336Y-50739986D02*
G01*
X134202244Y-50351078D01*
X135262904Y-51411738D01*
X134873996Y-51800646D01*
X133813336Y-50739986D01*
G37*
%TD.AperFunction*%
%TA.AperFunction,SMDPad,CuDef*%
%TO.P,U1,3*%
%TO.N,Net-(R1-Pad1)*%
G36*
X133247651Y-51305672D02*
G01*
X133636559Y-50916764D01*
X134697219Y-51977424D01*
X134308311Y-52366332D01*
X133247651Y-51305672D01*
G37*
%TD.AperFunction*%
%TA.AperFunction,SMDPad,CuDef*%
%TO.P,U1,2*%
%TO.N,+5V*%
G36*
X132681966Y-51871357D02*
G01*
X133070874Y-51482449D01*
X134131534Y-52543109D01*
X133742626Y-52932017D01*
X132681966Y-51871357D01*
G37*
%TD.AperFunction*%
%TA.AperFunction,SMDPad,CuDef*%
%TO.P,U1,1*%
%TO.N,Net-(U1-Pad1)*%
G36*
X132116280Y-52437042D02*
G01*
X132505188Y-52048134D01*
X133565848Y-53108794D01*
X133176940Y-53497702D01*
X132116280Y-52437042D01*
G37*
%TD.AperFunction*%
%TD*%
D15*
%TO.P,SW2,S1*%
%TO.N,COL6*%
X190356250Y-53300000D03*
%TO.P,SW2,S2*%
%TO.N,Net-(D13-Pad2)*%
X190356250Y-48300000D03*
D16*
%TO.P,SW2,MP*%
%TO.N,N/C*%
X183356250Y-56400000D03*
X183356250Y-45200000D03*
D15*
%TO.P,SW2,B*%
%TO.N,ENC_B*%
X175856250Y-53300000D03*
%TO.P,SW2,C*%
%TO.N,GND*%
X175856250Y-50800000D03*
D17*
%TO.P,SW2,A*%
%TO.N,ENC_A*%
X175856250Y-48300000D03*
%TD*%
%TO.P,R6,2*%
%TO.N,GND*%
%TA.AperFunction,SMDPad,CuDef*%
G36*
G01*
X84481249Y-59137500D02*
X85381251Y-59137500D01*
G75*
G02*
X85631250Y-59387499I0J-249999D01*
G01*
X85631250Y-59912501D01*
G75*
G02*
X85381251Y-60162500I-249999J0D01*
G01*
X84481249Y-60162500D01*
G75*
G02*
X84231250Y-59912501I0J249999D01*
G01*
X84231250Y-59387499D01*
G75*
G02*
X84481249Y-59137500I249999J0D01*
G01*
G37*
%TD.AperFunction*%
%TO.P,R6,1*%
%TO.N,Net-(R6-Pad1)*%
%TA.AperFunction,SMDPad,CuDef*%
G36*
G01*
X84481249Y-57312500D02*
X85381251Y-57312500D01*
G75*
G02*
X85631250Y-57562499I0J-249999D01*
G01*
X85631250Y-58087501D01*
G75*
G02*
X85381251Y-58337500I-249999J0D01*
G01*
X84481249Y-58337500D01*
G75*
G02*
X84231250Y-58087501I0J249999D01*
G01*
X84231250Y-57562499D01*
G75*
G02*
X84481249Y-57312500I249999J0D01*
G01*
G37*
%TD.AperFunction*%
%TD*%
%TO.P,R5,2*%
%TO.N,GND*%
%TA.AperFunction,SMDPad,CuDef*%
G36*
G01*
X82099999Y-59137500D02*
X83000001Y-59137500D01*
G75*
G02*
X83250000Y-59387499I0J-249999D01*
G01*
X83250000Y-59912501D01*
G75*
G02*
X83000001Y-60162500I-249999J0D01*
G01*
X82099999Y-60162500D01*
G75*
G02*
X81850000Y-59912501I0J249999D01*
G01*
X81850000Y-59387499D01*
G75*
G02*
X82099999Y-59137500I249999J0D01*
G01*
G37*
%TD.AperFunction*%
%TO.P,R5,1*%
%TO.N,Net-(R5-Pad1)*%
%TA.AperFunction,SMDPad,CuDef*%
G36*
G01*
X82099999Y-57312500D02*
X83000001Y-57312500D01*
G75*
G02*
X83250000Y-57562499I0J-249999D01*
G01*
X83250000Y-58087501D01*
G75*
G02*
X83000001Y-58337500I-249999J0D01*
G01*
X82099999Y-58337500D01*
G75*
G02*
X81850000Y-58087501I0J249999D01*
G01*
X81850000Y-57562499D01*
G75*
G02*
X82099999Y-57312500I249999J0D01*
G01*
G37*
%TD.AperFunction*%
%TD*%
%TO.P,R4,2*%
%TO.N,Net-(R4-Pad2)*%
%TA.AperFunction,SMDPad,CuDef*%
G36*
G01*
X147988958Y-61282144D02*
X148625356Y-61918542D01*
G75*
G02*
X148625356Y-62272094I-176776J-176776D01*
G01*
X148254124Y-62643326D01*
G75*
G02*
X147900572Y-62643326I-176776J176776D01*
G01*
X147264174Y-62006928D01*
G75*
G02*
X147264174Y-61653376I176776J176776D01*
G01*
X147635406Y-61282144D01*
G75*
G02*
X147988958Y-61282144I176776J-176776D01*
G01*
G37*
%TD.AperFunction*%
%TO.P,R4,1*%
%TO.N,GND*%
%TA.AperFunction,SMDPad,CuDef*%
G36*
G01*
X149279428Y-59991674D02*
X149915826Y-60628072D01*
G75*
G02*
X149915826Y-60981624I-176776J-176776D01*
G01*
X149544594Y-61352856D01*
G75*
G02*
X149191042Y-61352856I-176776J176776D01*
G01*
X148554644Y-60716458D01*
G75*
G02*
X148554644Y-60362906I176776J176776D01*
G01*
X148925876Y-59991674D01*
G75*
G02*
X149279428Y-59991674I176776J-176776D01*
G01*
G37*
%TD.AperFunction*%
%TD*%
%TO.P,R3,2*%
%TO.N,Net-(R3-Pad2)*%
%TA.AperFunction,SMDPad,CuDef*%
G36*
G01*
X155390001Y-53852500D02*
X154489999Y-53852500D01*
G75*
G02*
X154240000Y-53602501I0J249999D01*
G01*
X154240000Y-53077499D01*
G75*
G02*
X154489999Y-52827500I249999J0D01*
G01*
X155390001Y-52827500D01*
G75*
G02*
X155640000Y-53077499I0J-249999D01*
G01*
X155640000Y-53602501D01*
G75*
G02*
X155390001Y-53852500I-249999J0D01*
G01*
G37*
%TD.AperFunction*%
%TO.P,R3,1*%
%TO.N,+5V*%
%TA.AperFunction,SMDPad,CuDef*%
G36*
G01*
X155390001Y-55677500D02*
X154489999Y-55677500D01*
G75*
G02*
X154240000Y-55427501I0J249999D01*
G01*
X154240000Y-54902499D01*
G75*
G02*
X154489999Y-54652500I249999J0D01*
G01*
X155390001Y-54652500D01*
G75*
G02*
X155640000Y-54902499I0J-249999D01*
G01*
X155640000Y-55427501D01*
G75*
G02*
X155390001Y-55677500I-249999J0D01*
G01*
G37*
%TD.AperFunction*%
%TD*%
%TO.P,R2,2*%
%TO.N,D+*%
%TA.AperFunction,SMDPad,CuDef*%
G36*
G01*
X92468750Y-54318749D02*
X92468750Y-55218751D01*
G75*
G02*
X92218751Y-55468750I-249999J0D01*
G01*
X91693749Y-55468750D01*
G75*
G02*
X91443750Y-55218751I0J249999D01*
G01*
X91443750Y-54318749D01*
G75*
G02*
X91693749Y-54068750I249999J0D01*
G01*
X92218751Y-54068750D01*
G75*
G02*
X92468750Y-54318749I0J-249999D01*
G01*
G37*
%TD.AperFunction*%
%TO.P,R2,1*%
%TO.N,Net-(R2-Pad1)*%
%TA.AperFunction,SMDPad,CuDef*%
G36*
G01*
X94293750Y-54318749D02*
X94293750Y-55218751D01*
G75*
G02*
X94043751Y-55468750I-249999J0D01*
G01*
X93518749Y-55468750D01*
G75*
G02*
X93268750Y-55218751I0J249999D01*
G01*
X93268750Y-54318749D01*
G75*
G02*
X93518749Y-54068750I249999J0D01*
G01*
X94043751Y-54068750D01*
G75*
G02*
X94293750Y-54318749I0J-249999D01*
G01*
G37*
%TD.AperFunction*%
%TD*%
%TO.P,R1,2*%
%TO.N,D-*%
%TA.AperFunction,SMDPad,CuDef*%
G36*
G01*
X92468750Y-51937499D02*
X92468750Y-52837501D01*
G75*
G02*
X92218751Y-53087500I-249999J0D01*
G01*
X91693749Y-53087500D01*
G75*
G02*
X91443750Y-52837501I0J249999D01*
G01*
X91443750Y-51937499D01*
G75*
G02*
X91693749Y-51687500I249999J0D01*
G01*
X92218751Y-51687500D01*
G75*
G02*
X92468750Y-51937499I0J-249999D01*
G01*
G37*
%TD.AperFunction*%
%TO.P,R1,1*%
%TO.N,Net-(R1-Pad1)*%
%TA.AperFunction,SMDPad,CuDef*%
G36*
G01*
X94293750Y-51937499D02*
X94293750Y-52837501D01*
G75*
G02*
X94043751Y-53087500I-249999J0D01*
G01*
X93518749Y-53087500D01*
G75*
G02*
X93268750Y-52837501I0J249999D01*
G01*
X93268750Y-51937499D01*
G75*
G02*
X93518749Y-51687500I249999J0D01*
G01*
X94043751Y-51687500D01*
G75*
G02*
X94293750Y-51937499I0J-249999D01*
G01*
G37*
%TD.AperFunction*%
%TD*%
D18*
%TO.P,MX12,2*%
%TO.N,Net-(D12-Pad2)*%
X189992000Y-86995000D03*
%TO.P,MX12,1*%
%TO.N,COL5*%
X177065000Y-89535000D03*
%TD*%
%TO.P,MX11,2*%
%TO.N,Net-(D11-Pad2)*%
X189992000Y-67945000D03*
%TO.P,MX11,1*%
%TO.N,COL5*%
X177065000Y-70485000D03*
%TD*%
%TO.P,MX10,2*%
%TO.N,Net-(D10-Pad2)*%
X170942000Y-86995000D03*
%TO.P,MX10,1*%
%TO.N,COL4*%
X158015000Y-89535000D03*
%TD*%
%TO.P,MX9,2*%
%TO.N,Net-(D9-Pad2)*%
X170942000Y-67945000D03*
%TO.P,MX9,1*%
%TO.N,COL4*%
X158015000Y-70485000D03*
%TD*%
%TO.P,MX8,2*%
%TO.N,Net-(D8-Pad2)*%
X151892000Y-86995000D03*
%TO.P,MX8,1*%
%TO.N,COL3*%
X138965000Y-89535000D03*
%TD*%
%TO.P,MX7,2*%
%TO.N,Net-(D7-Pad2)*%
X151892000Y-67945000D03*
%TO.P,MX7,1*%
%TO.N,COL3*%
X138965000Y-70485000D03*
%TD*%
%TO.P,MX6,2*%
%TO.N,Net-(D6-Pad2)*%
X132842000Y-86995000D03*
%TO.P,MX6,1*%
%TO.N,COL2*%
X119915000Y-89535000D03*
%TD*%
%TO.P,MX5,2*%
%TO.N,Net-(D5-Pad2)*%
X132842000Y-67945000D03*
%TO.P,MX5,1*%
%TO.N,COL2*%
X119915000Y-70485000D03*
%TD*%
%TO.P,MX4,2*%
%TO.N,Net-(D4-Pad2)*%
X113792000Y-86995000D03*
%TO.P,MX4,1*%
%TO.N,COL1*%
X100865000Y-89535000D03*
%TD*%
%TO.P,MX3,2*%
%TO.N,Net-(D3-Pad2)*%
X113792000Y-67945000D03*
%TO.P,MX3,1*%
%TO.N,COL1*%
X100865000Y-70485000D03*
%TD*%
%TO.P,MX2,2*%
%TO.N,Net-(D2-Pad2)*%
X94742000Y-86995000D03*
%TO.P,MX2,1*%
%TO.N,COL0*%
X81815000Y-89535000D03*
%TD*%
%TO.P,MX1,2*%
%TO.N,Net-(D1-Pad2)*%
X94742000Y-67945000D03*
%TO.P,MX1,1*%
%TO.N,COL0*%
X81815000Y-70485000D03*
%TD*%
%TO.P,F1,2*%
%TO.N,VCC*%
%TA.AperFunction,SMDPad,CuDef*%
G36*
G01*
X95875000Y-57962500D02*
X94625000Y-57962500D01*
G75*
G02*
X94375000Y-57712500I0J250000D01*
G01*
X94375000Y-56962500D01*
G75*
G02*
X94625000Y-56712500I250000J0D01*
G01*
X95875000Y-56712500D01*
G75*
G02*
X96125000Y-56962500I0J-250000D01*
G01*
X96125000Y-57712500D01*
G75*
G02*
X95875000Y-57962500I-250000J0D01*
G01*
G37*
%TD.AperFunction*%
%TO.P,F1,1*%
%TO.N,+5V*%
%TA.AperFunction,SMDPad,CuDef*%
G36*
G01*
X95875000Y-60762500D02*
X94625000Y-60762500D01*
G75*
G02*
X94375000Y-60512500I0J250000D01*
G01*
X94375000Y-59762500D01*
G75*
G02*
X94625000Y-59512500I250000J0D01*
G01*
X95875000Y-59512500D01*
G75*
G02*
X96125000Y-59762500I0J-250000D01*
G01*
X96125000Y-60512500D01*
G75*
G02*
X95875000Y-60762500I-250000J0D01*
G01*
G37*
%TD.AperFunction*%
%TD*%
D19*
%TO.P,D13,2*%
%TO.N,Net-(D13-Pad2)*%
X196056250Y-57881250D03*
%TO.P,D13,1*%
%TO.N,ROW0*%
X196056250Y-61181250D03*
%TD*%
%TO.P,D12,2*%
%TO.N,Net-(D12-Pad2)*%
X192881250Y-94393750D03*
%TO.P,D12,1*%
%TO.N,ROW1*%
X192881250Y-97693750D03*
%TD*%
%TO.P,D11,2*%
%TO.N,Net-(D11-Pad2)*%
X192881250Y-75406250D03*
%TO.P,D11,1*%
%TO.N,ROW0*%
X192881250Y-78706250D03*
%TD*%
%TO.P,D10,2*%
%TO.N,Net-(D10-Pad2)*%
X173831250Y-94393750D03*
%TO.P,D10,1*%
%TO.N,ROW1*%
X173831250Y-97693750D03*
%TD*%
%TO.P,D9,2*%
%TO.N,Net-(D9-Pad2)*%
X173831250Y-75281250D03*
%TO.P,D9,1*%
%TO.N,ROW0*%
X173831250Y-78581250D03*
%TD*%
%TO.P,D8,2*%
%TO.N,Net-(D8-Pad2)*%
X154781250Y-94393750D03*
%TO.P,D8,1*%
%TO.N,ROW1*%
X154781250Y-97693750D03*
%TD*%
%TO.P,D7,2*%
%TO.N,Net-(D7-Pad2)*%
X155575000Y-75343750D03*
%TO.P,D7,1*%
%TO.N,ROW0*%
X155575000Y-78643750D03*
%TD*%
%TO.P,D6,2*%
%TO.N,Net-(D6-Pad2)*%
X135731250Y-94393750D03*
%TO.P,D6,1*%
%TO.N,ROW1*%
X135731250Y-97693750D03*
%TD*%
%TO.P,D5,2*%
%TO.N,Net-(D5-Pad2)*%
X135731250Y-75343750D03*
%TO.P,D5,1*%
%TO.N,ROW0*%
X135731250Y-78643750D03*
%TD*%
%TO.P,D4,2*%
%TO.N,Net-(D4-Pad2)*%
X116681250Y-94393750D03*
%TO.P,D4,1*%
%TO.N,ROW1*%
X116681250Y-97693750D03*
%TD*%
%TO.P,D3,2*%
%TO.N,Net-(D3-Pad2)*%
X116681250Y-75343750D03*
%TO.P,D3,1*%
%TO.N,ROW0*%
X116681250Y-78643750D03*
%TD*%
%TO.P,D2,2*%
%TO.N,Net-(D2-Pad2)*%
X97631250Y-94393750D03*
%TO.P,D2,1*%
%TO.N,ROW1*%
X97631250Y-97693750D03*
%TD*%
%TO.P,D1,2*%
%TO.N,Net-(D1-Pad2)*%
X97631250Y-75343750D03*
%TO.P,D1,1*%
%TO.N,ROW0*%
X97631250Y-78643750D03*
%TD*%
%TO.P,C9,2*%
%TO.N,GND*%
%TA.AperFunction,SMDPad,CuDef*%
G36*
G01*
X171925000Y-52890000D02*
X170975000Y-52890000D01*
G75*
G02*
X170725000Y-52640000I0J250000D01*
G01*
X170725000Y-52140000D01*
G75*
G02*
X170975000Y-51890000I250000J0D01*
G01*
X171925000Y-51890000D01*
G75*
G02*
X172175000Y-52140000I0J-250000D01*
G01*
X172175000Y-52640000D01*
G75*
G02*
X171925000Y-52890000I-250000J0D01*
G01*
G37*
%TD.AperFunction*%
%TO.P,C9,1*%
%TO.N,ENC_B*%
%TA.AperFunction,SMDPad,CuDef*%
G36*
G01*
X171925000Y-54790000D02*
X170975000Y-54790000D01*
G75*
G02*
X170725000Y-54540000I0J250000D01*
G01*
X170725000Y-54040000D01*
G75*
G02*
X170975000Y-53790000I250000J0D01*
G01*
X171925000Y-53790000D01*
G75*
G02*
X172175000Y-54040000I0J-250000D01*
G01*
X172175000Y-54540000D01*
G75*
G02*
X171925000Y-54790000I-250000J0D01*
G01*
G37*
%TD.AperFunction*%
%TD*%
%TO.P,C8,2*%
%TO.N,ENC_A*%
%TA.AperFunction,SMDPad,CuDef*%
G36*
G01*
X171925000Y-47810000D02*
X170975000Y-47810000D01*
G75*
G02*
X170725000Y-47560000I0J250000D01*
G01*
X170725000Y-47060000D01*
G75*
G02*
X170975000Y-46810000I250000J0D01*
G01*
X171925000Y-46810000D01*
G75*
G02*
X172175000Y-47060000I0J-250000D01*
G01*
X172175000Y-47560000D01*
G75*
G02*
X171925000Y-47810000I-250000J0D01*
G01*
G37*
%TD.AperFunction*%
%TO.P,C8,1*%
%TO.N,GND*%
%TA.AperFunction,SMDPad,CuDef*%
G36*
G01*
X171925000Y-49710000D02*
X170975000Y-49710000D01*
G75*
G02*
X170725000Y-49460000I0J250000D01*
G01*
X170725000Y-48960000D01*
G75*
G02*
X170975000Y-48710000I250000J0D01*
G01*
X171925000Y-48710000D01*
G75*
G02*
X172175000Y-48960000I0J-250000D01*
G01*
X172175000Y-49460000D01*
G75*
G02*
X171925000Y-49710000I-250000J0D01*
G01*
G37*
%TD.AperFunction*%
%TD*%
%TO.P,C7,2*%
%TO.N,GND*%
%TA.AperFunction,SMDPad,CuDef*%
G36*
G01*
X139200000Y-43337500D02*
X139200000Y-42387500D01*
G75*
G02*
X139450000Y-42137500I250000J0D01*
G01*
X139950000Y-42137500D01*
G75*
G02*
X140200000Y-42387500I0J-250000D01*
G01*
X140200000Y-43337500D01*
G75*
G02*
X139950000Y-43587500I-250000J0D01*
G01*
X139450000Y-43587500D01*
G75*
G02*
X139200000Y-43337500I0J250000D01*
G01*
G37*
%TD.AperFunction*%
%TO.P,C7,1*%
%TO.N,Net-(C7-Pad1)*%
%TA.AperFunction,SMDPad,CuDef*%
G36*
G01*
X137300000Y-43337500D02*
X137300000Y-42387500D01*
G75*
G02*
X137550000Y-42137500I250000J0D01*
G01*
X138050000Y-42137500D01*
G75*
G02*
X138300000Y-42387500I0J-250000D01*
G01*
X138300000Y-43337500D01*
G75*
G02*
X138050000Y-43587500I-250000J0D01*
G01*
X137550000Y-43587500D01*
G75*
G02*
X137300000Y-43337500I0J250000D01*
G01*
G37*
%TD.AperFunction*%
%TD*%
%TO.P,C6,2*%
%TO.N,GND*%
%TA.AperFunction,SMDPad,CuDef*%
G36*
G01*
X127795000Y-45220000D02*
X128745000Y-45220000D01*
G75*
G02*
X128995000Y-45470000I0J-250000D01*
G01*
X128995000Y-45970000D01*
G75*
G02*
X128745000Y-46220000I-250000J0D01*
G01*
X127795000Y-46220000D01*
G75*
G02*
X127545000Y-45970000I0J250000D01*
G01*
X127545000Y-45470000D01*
G75*
G02*
X127795000Y-45220000I250000J0D01*
G01*
G37*
%TD.AperFunction*%
%TO.P,C6,1*%
%TO.N,+5V*%
%TA.AperFunction,SMDPad,CuDef*%
G36*
G01*
X127795000Y-43320000D02*
X128745000Y-43320000D01*
G75*
G02*
X128995000Y-43570000I0J-250000D01*
G01*
X128995000Y-44070000D01*
G75*
G02*
X128745000Y-44320000I-250000J0D01*
G01*
X127795000Y-44320000D01*
G75*
G02*
X127545000Y-44070000I0J250000D01*
G01*
X127545000Y-43570000D01*
G75*
G02*
X127795000Y-43320000I250000J0D01*
G01*
G37*
%TD.AperFunction*%
%TD*%
%TO.P,C5,2*%
%TO.N,GND*%
%TA.AperFunction,SMDPad,CuDef*%
G36*
G01*
X147497823Y-42880178D02*
X146826072Y-42208427D01*
G75*
G02*
X146826072Y-41854873I176777J176777D01*
G01*
X147179625Y-41501320D01*
G75*
G02*
X147533179Y-41501320I176777J-176777D01*
G01*
X148204930Y-42173071D01*
G75*
G02*
X148204930Y-42526625I-176777J-176777D01*
G01*
X147851377Y-42880178D01*
G75*
G02*
X147497823Y-42880178I-176777J176777D01*
G01*
G37*
%TD.AperFunction*%
%TO.P,C5,1*%
%TO.N,Net-(C5-Pad1)*%
%TA.AperFunction,SMDPad,CuDef*%
G36*
G01*
X146154321Y-44223680D02*
X145482570Y-43551929D01*
G75*
G02*
X145482570Y-43198375I176777J176777D01*
G01*
X145836123Y-42844822D01*
G75*
G02*
X146189677Y-42844822I176777J-176777D01*
G01*
X146861428Y-43516573D01*
G75*
G02*
X146861428Y-43870127I-176777J-176777D01*
G01*
X146507875Y-44223680D01*
G75*
G02*
X146154321Y-44223680I-176777J176777D01*
G01*
G37*
%TD.AperFunction*%
%TD*%
%TO.P,C4,2*%
%TO.N,GND*%
%TA.AperFunction,SMDPad,CuDef*%
G36*
G01*
X150952177Y-47607322D02*
X151623928Y-48279073D01*
G75*
G02*
X151623928Y-48632627I-176777J-176777D01*
G01*
X151270375Y-48986180D01*
G75*
G02*
X150916821Y-48986180I-176777J176777D01*
G01*
X150245070Y-48314429D01*
G75*
G02*
X150245070Y-47960875I176777J176777D01*
G01*
X150598623Y-47607322D01*
G75*
G02*
X150952177Y-47607322I176777J-176777D01*
G01*
G37*
%TD.AperFunction*%
%TO.P,C4,1*%
%TO.N,Net-(C4-Pad1)*%
%TA.AperFunction,SMDPad,CuDef*%
G36*
G01*
X152295679Y-46263820D02*
X152967430Y-46935571D01*
G75*
G02*
X152967430Y-47289125I-176777J-176777D01*
G01*
X152613877Y-47642678D01*
G75*
G02*
X152260323Y-47642678I-176777J176777D01*
G01*
X151588572Y-46970927D01*
G75*
G02*
X151588572Y-46617373I176777J176777D01*
G01*
X151942125Y-46263820D01*
G75*
G02*
X152295679Y-46263820I176777J-176777D01*
G01*
G37*
%TD.AperFunction*%
%TD*%
%TO.P,C3,2*%
%TO.N,GND*%
%TA.AperFunction,SMDPad,CuDef*%
G36*
G01*
X125255000Y-45220000D02*
X126205000Y-45220000D01*
G75*
G02*
X126455000Y-45470000I0J-250000D01*
G01*
X126455000Y-45970000D01*
G75*
G02*
X126205000Y-46220000I-250000J0D01*
G01*
X125255000Y-46220000D01*
G75*
G02*
X125005000Y-45970000I0J250000D01*
G01*
X125005000Y-45470000D01*
G75*
G02*
X125255000Y-45220000I250000J0D01*
G01*
G37*
%TD.AperFunction*%
%TO.P,C3,1*%
%TO.N,+5V*%
%TA.AperFunction,SMDPad,CuDef*%
G36*
G01*
X125255000Y-43320000D02*
X126205000Y-43320000D01*
G75*
G02*
X126455000Y-43570000I0J-250000D01*
G01*
X126455000Y-44070000D01*
G75*
G02*
X126205000Y-44320000I-250000J0D01*
G01*
X125255000Y-44320000D01*
G75*
G02*
X125005000Y-44070000I0J250000D01*
G01*
X125005000Y-43570000D01*
G75*
G02*
X125255000Y-43320000I250000J0D01*
G01*
G37*
%TD.AperFunction*%
%TD*%
%TO.P,C2,2*%
%TO.N,GND*%
%TA.AperFunction,SMDPad,CuDef*%
G36*
G01*
X123032500Y-45220000D02*
X123982500Y-45220000D01*
G75*
G02*
X124232500Y-45470000I0J-250000D01*
G01*
X124232500Y-45970000D01*
G75*
G02*
X123982500Y-46220000I-250000J0D01*
G01*
X123032500Y-46220000D01*
G75*
G02*
X122782500Y-45970000I0J250000D01*
G01*
X122782500Y-45470000D01*
G75*
G02*
X123032500Y-45220000I250000J0D01*
G01*
G37*
%TD.AperFunction*%
%TO.P,C2,1*%
%TO.N,+5V*%
%TA.AperFunction,SMDPad,CuDef*%
G36*
G01*
X123032500Y-43320000D02*
X123982500Y-43320000D01*
G75*
G02*
X124232500Y-43570000I0J-250000D01*
G01*
X124232500Y-44070000D01*
G75*
G02*
X123982500Y-44320000I-250000J0D01*
G01*
X123032500Y-44320000D01*
G75*
G02*
X122782500Y-44070000I0J250000D01*
G01*
X122782500Y-43570000D01*
G75*
G02*
X123032500Y-43320000I250000J0D01*
G01*
G37*
%TD.AperFunction*%
%TD*%
D20*
%TO.N,GND*%
X165893750Y-52387500D03*
X163512500Y-50800000D03*
X136259781Y-51534783D03*
X141287500Y-50800000D03*
X136525000Y-61118750D03*
X139700000Y-57943750D03*
X80962500Y-58737500D03*
%TO.N,+5V*%
X96837500Y-60325000D03*
X117475000Y-46831250D03*
X134862914Y-53137665D03*
X137318750Y-51593750D03*
X147525709Y-57261791D03*
X153193750Y-56356250D03*
X131762500Y-56356250D03*
X138906250Y-58737500D03*
%TO.N,Net-(C4-Pad1)*%
X152400000Y-45243750D03*
X145476569Y-48432816D03*
%TO.N,Net-(C5-Pad1)*%
X146843750Y-46037500D03*
X144462500Y-48418750D03*
%TO.N,Net-(C7-Pad1)*%
X133350000Y-44450000D03*
X132152659Y-46441093D03*
%TO.N,ENC_A*%
X155575000Y-48418750D03*
X147637500Y-50006250D03*
%TO.N,ROW0*%
X100012500Y-78581250D03*
X114300000Y-78581250D03*
X119062500Y-78581250D03*
X133350000Y-78581250D03*
X134937500Y-80962500D03*
X153193750Y-78581250D03*
X157162500Y-78581250D03*
X171450000Y-78581250D03*
X176212500Y-78581250D03*
X191293750Y-78581250D03*
%TO.N,ROW1*%
X191293750Y-97631250D03*
X175418750Y-97631250D03*
X171450000Y-97631250D03*
X157162500Y-97631250D03*
X152400000Y-97631250D03*
X138112500Y-97631250D03*
X133350000Y-97631250D03*
X119062500Y-97631250D03*
X115093750Y-97631250D03*
X100012500Y-97631250D03*
%TO.N,VCC*%
X84137500Y-53975000D03*
X88900000Y-55562500D03*
%TO.N,COL3*%
X139700000Y-68262500D03*
X146843750Y-60325000D03*
%TO.N,COL4*%
X150025735Y-59531250D03*
X147637500Y-59531250D03*
%TO.N,COL5*%
X147651566Y-58517181D03*
X150025735Y-58531247D03*
%TO.N,D-*%
X88106250Y-52387500D03*
X90487500Y-53975000D03*
X92075000Y-58943753D03*
%TO.N,D+*%
X88151151Y-53695715D03*
X92956058Y-56268942D03*
X92075000Y-57943750D03*
%TO.N,Net-(R2-Pad1)*%
X107156250Y-54768750D03*
X131762500Y-48418750D03*
%TO.N,Net-(R3-Pad2)*%
X154781250Y-51593750D03*
X142875000Y-46037500D03*
%TO.N,Net-(R4-Pad2)*%
X143551558Y-63382808D03*
X140406129Y-61824879D03*
%TO.N,Net-(R5-Pad1)*%
X83343750Y-56356250D03*
%TO.N,Net-(R6-Pad1)*%
X86518750Y-56356250D03*
%TO.N,COL6*%
X188118750Y-53975000D03*
X148431250Y-51593750D03*
%TD*%
D21*
%TO.N,GND*%
X82550000Y-59650000D02*
X84931250Y-59650000D01*
X86654000Y-59650000D02*
X88900000Y-57404000D01*
X84931250Y-59650000D02*
X86654000Y-59650000D01*
X123351250Y-45876250D02*
X123507500Y-45720000D01*
X121126250Y-45876250D02*
X123351250Y-45876250D01*
X123507500Y-45720000D02*
X125730000Y-45720000D01*
X125730000Y-45720000D02*
X128270000Y-45720000D01*
X130313629Y-45720000D02*
X135103806Y-50510177D01*
X128270000Y-45720000D02*
X130313629Y-45720000D01*
X147727634Y-42190749D02*
X149401777Y-43864892D01*
X147515501Y-42190749D02*
X147727634Y-42190749D01*
X150722366Y-48296751D02*
X149048223Y-46622608D01*
X150934499Y-48296751D02*
X150722366Y-48296751D01*
X144294675Y-47117583D02*
X142599138Y-48813120D01*
X148553248Y-47117583D02*
X144294675Y-47117583D01*
X149048223Y-46622608D02*
X148553248Y-47117583D01*
X144294675Y-43834005D02*
X144294675Y-47117583D01*
X145937931Y-42190749D02*
X144294675Y-43834005D01*
X147515501Y-42190749D02*
X145937931Y-42190749D01*
X165896250Y-52390000D02*
X165893750Y-52387500D01*
X171450000Y-52390000D02*
X165896250Y-52390000D01*
X163512500Y-50800000D02*
X161925000Y-49212500D01*
X151850248Y-49212500D02*
X150934499Y-48296751D01*
X161925000Y-49212500D02*
X151850248Y-49212500D01*
X135653414Y-53496103D02*
X133406750Y-55742767D01*
X135653414Y-51059785D02*
X135653414Y-53496103D01*
X135103806Y-50510177D02*
X135653414Y-51059785D01*
X142049529Y-49362729D02*
X142599138Y-48813120D01*
X142049529Y-50667675D02*
X142049529Y-49362729D01*
X146558936Y-55177082D02*
X142049529Y-50667675D01*
X135235175Y-50510177D02*
X136259781Y-51534783D01*
X135103806Y-50510177D02*
X135235175Y-50510177D01*
X141287500Y-50800000D02*
X142081250Y-50800000D01*
X149235235Y-57853381D02*
X149235235Y-60672265D01*
X146558936Y-55177082D02*
X149235235Y-57853381D01*
X137081733Y-61118750D02*
X136525000Y-61118750D01*
X137932233Y-60268250D02*
X137081733Y-61118750D01*
X135653414Y-53897164D02*
X135653414Y-53496103D01*
X139700000Y-57943750D02*
X135653414Y-53897164D01*
X173040000Y-50800000D02*
X171450000Y-49210000D01*
X175856250Y-50800000D02*
X173040000Y-50800000D01*
X171450000Y-52390000D02*
X171450000Y-49210000D01*
X140671505Y-43834005D02*
X139700000Y-42862500D01*
X144294675Y-43834005D02*
X140671505Y-43834005D01*
X91315000Y-45673750D02*
X91315000Y-46003750D01*
X81637500Y-58737500D02*
X82550000Y-59650000D01*
X80962500Y-58737500D02*
X81637500Y-58737500D01*
%TO.N,+5V*%
X94976799Y-60410701D02*
X95250000Y-60137500D01*
X89671500Y-60410701D02*
X94976799Y-60410701D01*
X88696799Y-59436000D02*
X89671500Y-60410701D01*
X96650000Y-60137500D02*
X96837500Y-60325000D01*
X95250000Y-60137500D02*
X96650000Y-60137500D01*
X120330000Y-43976250D02*
X121126250Y-43976250D01*
X117475000Y-46831250D02*
X120330000Y-43976250D01*
X123351250Y-43976250D02*
X123507500Y-43820000D01*
X121126250Y-43976250D02*
X123351250Y-43976250D01*
X123507500Y-43820000D02*
X125730000Y-43820000D01*
X125730000Y-43820000D02*
X128270000Y-43820000D01*
X130676371Y-43820000D02*
X136235177Y-49378806D01*
X128270000Y-43820000D02*
X130676371Y-43820000D01*
X133956358Y-54061788D02*
X132841064Y-55177082D01*
X133956358Y-52756841D02*
X133956358Y-54061788D01*
X133406750Y-52207233D02*
X133956358Y-52756841D01*
X134337182Y-53137665D02*
X134862914Y-53137665D01*
X133406750Y-52207233D02*
X134337182Y-53137665D01*
X137318750Y-50462379D02*
X136235177Y-49378806D01*
X137318750Y-51593750D02*
X137318750Y-50462379D01*
X138687137Y-51593750D02*
X142033452Y-48247435D01*
X137318750Y-51593750D02*
X138687137Y-51593750D01*
X145993250Y-55742767D02*
X141844233Y-51593750D01*
X141844233Y-51593750D02*
X138687137Y-51593750D01*
X146006685Y-55742767D02*
X147525709Y-57261791D01*
X145993250Y-55742767D02*
X146006685Y-55742767D01*
X153748750Y-56356250D02*
X154940000Y-55165000D01*
X153193750Y-56356250D02*
X153748750Y-56356250D01*
X132841064Y-55277686D02*
X131762500Y-56356250D01*
X132841064Y-55177082D02*
X132841064Y-55277686D01*
X139306249Y-60025605D02*
X138497918Y-60833936D01*
X139306249Y-59137499D02*
X139306249Y-60025605D01*
X138906250Y-58737500D02*
X139306249Y-59137499D01*
D22*
%TO.N,Net-(C4-Pad1)*%
X150603858Y-45279106D02*
X150603858Y-45066973D01*
X152278001Y-46953249D02*
X150603858Y-45279106D01*
X152223223Y-45066973D02*
X152400000Y-45243750D01*
X150603858Y-45066973D02*
X152223223Y-45066973D01*
X143964894Y-49944491D02*
X143730509Y-49944491D01*
X145476569Y-48432816D02*
X143964894Y-49944491D01*
%TO.N,Net-(C5-Pad1)*%
X147846142Y-45208394D02*
X147846142Y-45420527D01*
X146171999Y-43534251D02*
X147846142Y-45208394D01*
X147460723Y-45420527D02*
X146843750Y-46037500D01*
X147846142Y-45420527D02*
X147460723Y-45420527D01*
X144124879Y-48418750D02*
X143164823Y-49378806D01*
X144462500Y-48418750D02*
X144124879Y-48418750D01*
%TO.N,Net-(C7-Pad1)*%
X135656057Y-49944491D02*
X135669491Y-49944491D01*
X132152659Y-46441093D02*
X135656057Y-49944491D01*
X134937500Y-42862500D02*
X133350000Y-44450000D01*
X137800000Y-42862500D02*
X134937500Y-42862500D01*
%TO.N,ENC_A*%
X172440000Y-48300000D02*
X171450000Y-47310000D01*
X175856250Y-48300000D02*
X172440000Y-48300000D01*
X156683750Y-47310000D02*
X155575000Y-48418750D01*
X171450000Y-47310000D02*
X156683750Y-47310000D01*
X147062863Y-50006250D02*
X145427565Y-51641548D01*
X147637500Y-50006250D02*
X147062863Y-50006250D01*
%TO.N,ENC_B*%
X172440000Y-53300000D02*
X171450000Y-54290000D01*
X175856250Y-53300000D02*
X172440000Y-53300000D01*
X147333734Y-50866749D02*
X145993250Y-52207233D01*
X155130211Y-50866749D02*
X147333734Y-50866749D01*
X158553462Y-54290000D02*
X155130211Y-50866749D01*
X171450000Y-54290000D02*
X158553462Y-54290000D01*
%TO.N,Net-(D1-Pad2)*%
X97631250Y-70834250D02*
X97631250Y-75343750D01*
X94742000Y-67945000D02*
X97631250Y-70834250D01*
%TO.N,ROW0*%
X142519561Y-60188674D02*
X142033452Y-59702565D01*
X142519561Y-64578523D02*
X142519561Y-60188674D01*
X148370901Y-70429863D02*
X142519561Y-64578523D01*
X148370901Y-72293651D02*
X148370901Y-70429863D01*
X154721000Y-78643750D02*
X148370901Y-72293651D01*
X155575000Y-78643750D02*
X154721000Y-78643750D01*
X99950000Y-78643750D02*
X100012500Y-78581250D01*
X97631250Y-78643750D02*
X99950000Y-78643750D01*
X116618750Y-78581250D02*
X116681250Y-78643750D01*
X114300000Y-78581250D02*
X116618750Y-78581250D01*
X119000000Y-78643750D02*
X119062500Y-78581250D01*
X116681250Y-78643750D02*
X119000000Y-78643750D01*
X135668750Y-78581250D02*
X135731250Y-78643750D01*
X133350000Y-78581250D02*
X135668750Y-78581250D01*
X135731250Y-80168750D02*
X134937500Y-80962500D01*
X135731250Y-78643750D02*
X135731250Y-80168750D01*
X155512500Y-78581250D02*
X155575000Y-78643750D01*
X153193750Y-78581250D02*
X155512500Y-78581250D01*
X157100000Y-78643750D02*
X157162500Y-78581250D01*
X155575000Y-78643750D02*
X157100000Y-78643750D01*
X171450000Y-78581250D02*
X173831250Y-78581250D01*
X173831250Y-78581250D02*
X176212500Y-78581250D01*
X192756250Y-78581250D02*
X192881250Y-78706250D01*
X191293750Y-78581250D02*
X192756250Y-78581250D01*
X196056250Y-75531250D02*
X196056250Y-61181250D01*
X192881250Y-78706250D02*
X196056250Y-75531250D01*
%TO.N,Net-(D2-Pad2)*%
X97631250Y-89884250D02*
X97631250Y-94393750D01*
X94742000Y-86995000D02*
X97631250Y-89884250D01*
%TO.N,ROW1*%
X141953876Y-60754359D02*
X141467767Y-60268250D01*
X141953876Y-61305266D02*
X141953876Y-60754359D01*
X137362999Y-65896143D02*
X141953876Y-61305266D01*
X137362999Y-96062001D02*
X137362999Y-65896143D01*
X135731250Y-97693750D02*
X137362999Y-96062001D01*
X191356250Y-97693750D02*
X191293750Y-97631250D01*
X192881250Y-97693750D02*
X191356250Y-97693750D01*
X173893750Y-97631250D02*
X173831250Y-97693750D01*
X175418750Y-97631250D02*
X173893750Y-97631250D01*
X171512500Y-97693750D02*
X171450000Y-97631250D01*
X173831250Y-97693750D02*
X171512500Y-97693750D01*
X154843750Y-97631250D02*
X154781250Y-97693750D01*
X157162500Y-97631250D02*
X154843750Y-97631250D01*
X152462500Y-97693750D02*
X152400000Y-97631250D01*
X154781250Y-97693750D02*
X152462500Y-97693750D01*
X135793750Y-97631250D02*
X135731250Y-97693750D01*
X138112500Y-97631250D02*
X135793750Y-97631250D01*
X133412500Y-97693750D02*
X133350000Y-97631250D01*
X135731250Y-97693750D02*
X133412500Y-97693750D01*
X116743750Y-97631250D02*
X116681250Y-97693750D01*
X119062500Y-97631250D02*
X116743750Y-97631250D01*
X115156250Y-97693750D02*
X115093750Y-97631250D01*
X116681250Y-97693750D02*
X115156250Y-97693750D01*
X97693750Y-97631250D02*
X97631250Y-97693750D01*
X100012500Y-97631250D02*
X97693750Y-97631250D01*
%TO.N,Net-(D3-Pad2)*%
X116681250Y-70834250D02*
X116681250Y-75343750D01*
X113792000Y-67945000D02*
X116681250Y-70834250D01*
%TO.N,Net-(D4-Pad2)*%
X116681250Y-89884250D02*
X116681250Y-94393750D01*
X113792000Y-86995000D02*
X116681250Y-89884250D01*
%TO.N,Net-(D5-Pad2)*%
X135731250Y-70834250D02*
X135731250Y-75343750D01*
X132842000Y-67945000D02*
X135731250Y-70834250D01*
%TO.N,Net-(D6-Pad2)*%
X135731250Y-89884250D02*
X135731250Y-94393750D01*
X132842000Y-86995000D02*
X135731250Y-89884250D01*
%TO.N,Net-(D7-Pad2)*%
X151892000Y-67945000D02*
X152876250Y-67945000D01*
X155575000Y-70643750D02*
X155575000Y-75343750D01*
X152876250Y-67945000D02*
X155575000Y-70643750D01*
%TO.N,Net-(D8-Pad2)*%
X154781250Y-89884250D02*
X154781250Y-94393750D01*
X151892000Y-86995000D02*
X154781250Y-89884250D01*
%TO.N,Net-(D9-Pad2)*%
X170942000Y-67945000D02*
X171132500Y-67945000D01*
X173831250Y-70643750D02*
X173831250Y-75281250D01*
X171132500Y-67945000D02*
X173831250Y-70643750D01*
%TO.N,Net-(D10-Pad2)*%
X173831250Y-89884250D02*
X173831250Y-94393750D01*
X170942000Y-86995000D02*
X173831250Y-89884250D01*
%TO.N,Net-(D11-Pad2)*%
X192881250Y-70834250D02*
X192881250Y-75406250D01*
X189992000Y-67945000D02*
X192881250Y-70834250D01*
%TO.N,Net-(D12-Pad2)*%
X192881250Y-89884250D02*
X192881250Y-94393750D01*
X189992000Y-86995000D02*
X192881250Y-89884250D01*
%TO.N,Net-(D13-Pad2)*%
X196056250Y-54000000D02*
X196056250Y-57881250D01*
X190356250Y-48300000D02*
X196056250Y-54000000D01*
D21*
%TO.N,VCC*%
X87312500Y-53975000D02*
X88900000Y-55562500D01*
X84137500Y-53975000D02*
X87312500Y-53975000D01*
X92906680Y-57337500D02*
X95250000Y-57337500D01*
X91131680Y-55562500D02*
X92906680Y-57337500D01*
X88900000Y-55562500D02*
X91131680Y-55562500D01*
D22*
%TO.N,COL0*%
X81815000Y-70485000D02*
X81815000Y-89535000D01*
X81815000Y-70485000D02*
X90387500Y-61912500D01*
X133468508Y-57943750D02*
X134538120Y-56874138D01*
X131120434Y-57943750D02*
X133468508Y-57943750D01*
X127151684Y-61912500D02*
X131120434Y-57943750D01*
X90387500Y-61912500D02*
X127151684Y-61912500D01*
%TO.N,COL1*%
X100865000Y-70485000D02*
X100865000Y-89535000D01*
X100865000Y-70485000D02*
X108643750Y-62706250D01*
X108643750Y-62706250D02*
X127000000Y-62706250D01*
X127000000Y-62706250D02*
X130968750Y-58737500D01*
X133806129Y-58737500D02*
X135103806Y-57439823D01*
X130968750Y-58737500D02*
X133806129Y-58737500D01*
%TO.N,COL2*%
X119915000Y-70485000D02*
X119915000Y-89535000D01*
X119915000Y-70485000D02*
X130868750Y-59531250D01*
X134143750Y-59531250D02*
X135669491Y-58005509D01*
X130868750Y-59531250D02*
X134143750Y-59531250D01*
%TO.N,COL3*%
X138965000Y-70485000D02*
X138965000Y-89535000D01*
X138965000Y-68997500D02*
X139700000Y-68262500D01*
X138965000Y-70485000D02*
X138965000Y-68997500D01*
X146843750Y-59987379D02*
X144296194Y-57439823D01*
X146843750Y-60325000D02*
X146843750Y-59987379D01*
%TO.N,COL4*%
X158015000Y-70485000D02*
X158015000Y-89535000D01*
X158015000Y-67520515D02*
X150025735Y-59531250D01*
X158015000Y-70485000D02*
X158015000Y-67520515D01*
X144980388Y-56874138D02*
X144861880Y-56874138D01*
X147637500Y-59531250D02*
X144980388Y-56874138D01*
%TO.N,COL5*%
X177065000Y-70485000D02*
X177065000Y-89535000D01*
X145442837Y-56308452D02*
X147651566Y-58517181D01*
X145427565Y-56308452D02*
X145442837Y-56308452D01*
X150591420Y-58531247D02*
X156353923Y-64293750D01*
X150025735Y-58531247D02*
X150591420Y-58531247D01*
X170873750Y-64293750D02*
X177065000Y-70485000D01*
X156353923Y-64293750D02*
X170873750Y-64293750D01*
%TO.N,D-*%
X88106250Y-52387500D02*
X91956250Y-52387500D01*
X91956250Y-52506250D02*
X90487500Y-53975000D01*
X91956250Y-52387500D02*
X91956250Y-52506250D01*
X91089048Y-58943753D02*
X90596801Y-59436000D01*
X92075000Y-58943753D02*
X91089048Y-58943753D01*
%TO.N,Net-(R1-Pad1)*%
X131543387Y-49212500D02*
X133972435Y-51641548D01*
X126206250Y-52387500D02*
X129381250Y-49212500D01*
X129381250Y-49212500D02*
X131543387Y-49212500D01*
X93781250Y-52387500D02*
X126206250Y-52387500D01*
%TO.N,D+*%
X89224186Y-54768750D02*
X91956250Y-54768750D01*
X88151151Y-53695715D02*
X89224186Y-54768750D01*
X91956250Y-55269134D02*
X92956058Y-56268942D01*
X91956250Y-54768750D02*
X91956250Y-55269134D01*
X91136550Y-57943750D02*
X90596800Y-57404000D01*
X92075000Y-57943750D02*
X91136550Y-57943750D01*
%TO.N,Net-(R2-Pad1)*%
X93781250Y-54768750D02*
X107156250Y-54768750D01*
X134419612Y-51075862D02*
X134538120Y-51075862D01*
X131762500Y-48418750D02*
X134419612Y-51075862D01*
%TO.N,Net-(R3-Pad2)*%
X154781250Y-53181250D02*
X154940000Y-53340000D01*
X154781250Y-51593750D02*
X154781250Y-53181250D01*
X142875000Y-46274517D02*
X141467767Y-47681750D01*
X142875000Y-46037500D02*
X142875000Y-46274517D01*
%TO.N,Net-(R4-Pad2)*%
X144971631Y-61962735D02*
X143551558Y-63382808D01*
X147944765Y-61962735D02*
X144971631Y-61962735D01*
X140406129Y-61329889D02*
X140902082Y-60833936D01*
X140406129Y-61824879D02*
X140406129Y-61329889D01*
%TO.N,Net-(R5-Pad1)*%
X82550000Y-57150000D02*
X83343750Y-56356250D01*
X82550000Y-57825000D02*
X82550000Y-57150000D01*
%TO.N,Net-(R6-Pad1)*%
X85050000Y-57825000D02*
X86518750Y-56356250D01*
X84931250Y-57825000D02*
X85050000Y-57825000D01*
%TO.N,COL6*%
X188793750Y-53300000D02*
X188118750Y-53975000D01*
X190356250Y-53300000D02*
X188793750Y-53300000D01*
X147738104Y-51593750D02*
X146558936Y-52772918D01*
X148431250Y-51593750D02*
X147738104Y-51593750D01*
%TD*%
M02*
