%TF.GenerationSoftware,KiCad,Pcbnew,(5.1.9)-1*%
%TF.CreationDate,2021-03-22T08:17:26-07:00*%
%TF.ProjectId,millipad,6d696c6c-6970-4616-942e-6b696361645f,rev?*%
%TF.SameCoordinates,Original*%
%TF.FileFunction,Paste,Bot*%
%TF.FilePolarity,Positive*%
%FSLAX46Y46*%
G04 Gerber Fmt 4.6, Leading zero omitted, Abs format (unit mm)*
G04 Created by KiCad (PCBNEW (5.1.9)-1) date 2021-03-22 08:17:26*
%MOMM*%
%LPD*%
G01*
G04 APERTURE LIST*
%ADD10C,0.100000*%
%ADD11R,0.482600X1.168400*%
%ADD12R,0.889000X1.168400*%
%ADD13R,2.550000X2.500000*%
%ADD14R,1.200000X0.900000*%
G04 APERTURE END LIST*
%TO.C,C1*%
G36*
G01*
X120651250Y-45376250D02*
X121601250Y-45376250D01*
G75*
G02*
X121851250Y-45626250I0J-250000D01*
G01*
X121851250Y-46126250D01*
G75*
G02*
X121601250Y-46376250I-250000J0D01*
G01*
X120651250Y-46376250D01*
G75*
G02*
X120401250Y-46126250I0J250000D01*
G01*
X120401250Y-45626250D01*
G75*
G02*
X120651250Y-45376250I250000J0D01*
G01*
G37*
G36*
G01*
X120651250Y-43476250D02*
X121601250Y-43476250D01*
G75*
G02*
X121851250Y-43726250I0J-250000D01*
G01*
X121851250Y-44226250D01*
G75*
G02*
X121601250Y-44476250I-250000J0D01*
G01*
X120651250Y-44476250D01*
G75*
G02*
X120401250Y-44226250I0J250000D01*
G01*
X120401250Y-43726250D01*
G75*
G02*
X120651250Y-43476250I250000J0D01*
G01*
G37*
%TD*%
D10*
%TO.C,Y1*%
G36*
X149472488Y-42945653D02*
G01*
X150321016Y-43794181D01*
X149331066Y-44784131D01*
X148482538Y-43935603D01*
X149472488Y-42945653D01*
G37*
G36*
X147916853Y-44501288D02*
G01*
X148765381Y-45349816D01*
X147775431Y-46339766D01*
X146926903Y-45491238D01*
X147916853Y-44501288D01*
G37*
G36*
X149118934Y-45703369D02*
G01*
X149967462Y-46551897D01*
X148977512Y-47541847D01*
X148128984Y-46693319D01*
X149118934Y-45703369D01*
G37*
G36*
X150674569Y-44147734D02*
G01*
X151523097Y-44996262D01*
X150533147Y-45986212D01*
X149684619Y-45137684D01*
X150674569Y-44147734D01*
G37*
%TD*%
D11*
%TO.C,U2*%
X88696799Y-59436000D03*
X90596801Y-59436000D03*
X90596800Y-57404000D03*
D12*
X88900000Y-57404000D03*
%TD*%
D10*
%TO.C,U1*%
G36*
X133176940Y-54452298D02*
G01*
X133565848Y-54841206D01*
X132505188Y-55901866D01*
X132116280Y-55512958D01*
X133176940Y-54452298D01*
G37*
G36*
X133742626Y-55017983D02*
G01*
X134131534Y-55406891D01*
X133070874Y-56467551D01*
X132681966Y-56078643D01*
X133742626Y-55017983D01*
G37*
G36*
X134308311Y-55583668D02*
G01*
X134697219Y-55972576D01*
X133636559Y-57033236D01*
X133247651Y-56644328D01*
X134308311Y-55583668D01*
G37*
G36*
X134873996Y-56149354D02*
G01*
X135262904Y-56538262D01*
X134202244Y-57598922D01*
X133813336Y-57210014D01*
X134873996Y-56149354D01*
G37*
G36*
X135439682Y-56715039D02*
G01*
X135828590Y-57103947D01*
X134767930Y-58164607D01*
X134379022Y-57775699D01*
X135439682Y-56715039D01*
G37*
G36*
X136005367Y-57280725D02*
G01*
X136394275Y-57669633D01*
X135333615Y-58730293D01*
X134944707Y-58341385D01*
X136005367Y-57280725D01*
G37*
G36*
X136571053Y-57846410D02*
G01*
X136959961Y-58235318D01*
X135899301Y-59295978D01*
X135510393Y-58907070D01*
X136571053Y-57846410D01*
G37*
G36*
X137136738Y-58412096D02*
G01*
X137525646Y-58801004D01*
X136464986Y-59861664D01*
X136076078Y-59472756D01*
X137136738Y-58412096D01*
G37*
G36*
X137702424Y-58977781D02*
G01*
X138091332Y-59366689D01*
X137030672Y-60427349D01*
X136641764Y-60038441D01*
X137702424Y-58977781D01*
G37*
G36*
X138268109Y-59543466D02*
G01*
X138657017Y-59932374D01*
X137596357Y-60993034D01*
X137207449Y-60604126D01*
X138268109Y-59543466D01*
G37*
G36*
X138833794Y-60109152D02*
G01*
X139222702Y-60498060D01*
X138162042Y-61558720D01*
X137773134Y-61169812D01*
X138833794Y-60109152D01*
G37*
G36*
X140177298Y-60498060D02*
G01*
X140566206Y-60109152D01*
X141626866Y-61169812D01*
X141237958Y-61558720D01*
X140177298Y-60498060D01*
G37*
G36*
X140742983Y-59932374D02*
G01*
X141131891Y-59543466D01*
X142192551Y-60604126D01*
X141803643Y-60993034D01*
X140742983Y-59932374D01*
G37*
G36*
X141308668Y-59366689D02*
G01*
X141697576Y-58977781D01*
X142758236Y-60038441D01*
X142369328Y-60427349D01*
X141308668Y-59366689D01*
G37*
G36*
X141874354Y-58801004D02*
G01*
X142263262Y-58412096D01*
X143323922Y-59472756D01*
X142935014Y-59861664D01*
X141874354Y-58801004D01*
G37*
G36*
X142440039Y-58235318D02*
G01*
X142828947Y-57846410D01*
X143889607Y-58907070D01*
X143500699Y-59295978D01*
X142440039Y-58235318D01*
G37*
G36*
X143005725Y-57669633D02*
G01*
X143394633Y-57280725D01*
X144455293Y-58341385D01*
X144066385Y-58730293D01*
X143005725Y-57669633D01*
G37*
G36*
X143571410Y-57103947D02*
G01*
X143960318Y-56715039D01*
X145020978Y-57775699D01*
X144632070Y-58164607D01*
X143571410Y-57103947D01*
G37*
G36*
X144137096Y-56538262D02*
G01*
X144526004Y-56149354D01*
X145586664Y-57210014D01*
X145197756Y-57598922D01*
X144137096Y-56538262D01*
G37*
G36*
X144702781Y-55972576D02*
G01*
X145091689Y-55583668D01*
X146152349Y-56644328D01*
X145763441Y-57033236D01*
X144702781Y-55972576D01*
G37*
G36*
X145268466Y-55406891D02*
G01*
X145657374Y-55017983D01*
X146718034Y-56078643D01*
X146329126Y-56467551D01*
X145268466Y-55406891D01*
G37*
G36*
X145834152Y-54841206D02*
G01*
X146223060Y-54452298D01*
X147283720Y-55512958D01*
X146894812Y-55901866D01*
X145834152Y-54841206D01*
G37*
G36*
X146894812Y-52048134D02*
G01*
X147283720Y-52437042D01*
X146223060Y-53497702D01*
X145834152Y-53108794D01*
X146894812Y-52048134D01*
G37*
G36*
X146329126Y-51482449D02*
G01*
X146718034Y-51871357D01*
X145657374Y-52932017D01*
X145268466Y-52543109D01*
X146329126Y-51482449D01*
G37*
G36*
X145763441Y-50916764D02*
G01*
X146152349Y-51305672D01*
X145091689Y-52366332D01*
X144702781Y-51977424D01*
X145763441Y-50916764D01*
G37*
G36*
X145197756Y-50351078D02*
G01*
X145586664Y-50739986D01*
X144526004Y-51800646D01*
X144137096Y-51411738D01*
X145197756Y-50351078D01*
G37*
G36*
X144632070Y-49785393D02*
G01*
X145020978Y-50174301D01*
X143960318Y-51234961D01*
X143571410Y-50846053D01*
X144632070Y-49785393D01*
G37*
G36*
X144066385Y-49219707D02*
G01*
X144455293Y-49608615D01*
X143394633Y-50669275D01*
X143005725Y-50280367D01*
X144066385Y-49219707D01*
G37*
G36*
X143500699Y-48654022D02*
G01*
X143889607Y-49042930D01*
X142828947Y-50103590D01*
X142440039Y-49714682D01*
X143500699Y-48654022D01*
G37*
G36*
X142935014Y-48088336D02*
G01*
X143323922Y-48477244D01*
X142263262Y-49537904D01*
X141874354Y-49148996D01*
X142935014Y-48088336D01*
G37*
G36*
X142369328Y-47522651D02*
G01*
X142758236Y-47911559D01*
X141697576Y-48972219D01*
X141308668Y-48583311D01*
X142369328Y-47522651D01*
G37*
G36*
X141803643Y-46956966D02*
G01*
X142192551Y-47345874D01*
X141131891Y-48406534D01*
X140742983Y-48017626D01*
X141803643Y-46956966D01*
G37*
G36*
X141237958Y-46391280D02*
G01*
X141626866Y-46780188D01*
X140566206Y-47840848D01*
X140177298Y-47451940D01*
X141237958Y-46391280D01*
G37*
G36*
X137773134Y-46780188D02*
G01*
X138162042Y-46391280D01*
X139222702Y-47451940D01*
X138833794Y-47840848D01*
X137773134Y-46780188D01*
G37*
G36*
X137207449Y-47345874D02*
G01*
X137596357Y-46956966D01*
X138657017Y-48017626D01*
X138268109Y-48406534D01*
X137207449Y-47345874D01*
G37*
G36*
X136641764Y-47911559D02*
G01*
X137030672Y-47522651D01*
X138091332Y-48583311D01*
X137702424Y-48972219D01*
X136641764Y-47911559D01*
G37*
G36*
X136076078Y-48477244D02*
G01*
X136464986Y-48088336D01*
X137525646Y-49148996D01*
X137136738Y-49537904D01*
X136076078Y-48477244D01*
G37*
G36*
X135510393Y-49042930D02*
G01*
X135899301Y-48654022D01*
X136959961Y-49714682D01*
X136571053Y-50103590D01*
X135510393Y-49042930D01*
G37*
G36*
X134944707Y-49608615D02*
G01*
X135333615Y-49219707D01*
X136394275Y-50280367D01*
X136005367Y-50669275D01*
X134944707Y-49608615D01*
G37*
G36*
X134379022Y-50174301D02*
G01*
X134767930Y-49785393D01*
X135828590Y-50846053D01*
X135439682Y-51234961D01*
X134379022Y-50174301D01*
G37*
G36*
X133813336Y-50739986D02*
G01*
X134202244Y-50351078D01*
X135262904Y-51411738D01*
X134873996Y-51800646D01*
X133813336Y-50739986D01*
G37*
G36*
X133247651Y-51305672D02*
G01*
X133636559Y-50916764D01*
X134697219Y-51977424D01*
X134308311Y-52366332D01*
X133247651Y-51305672D01*
G37*
G36*
X132681966Y-51871357D02*
G01*
X133070874Y-51482449D01*
X134131534Y-52543109D01*
X133742626Y-52932017D01*
X132681966Y-51871357D01*
G37*
G36*
X132116280Y-52437042D02*
G01*
X132505188Y-52048134D01*
X133565848Y-53108794D01*
X133176940Y-53497702D01*
X132116280Y-52437042D01*
G37*
%TD*%
%TO.C,R6*%
G36*
G01*
X84481249Y-59137500D02*
X85381251Y-59137500D01*
G75*
G02*
X85631250Y-59387499I0J-249999D01*
G01*
X85631250Y-59912501D01*
G75*
G02*
X85381251Y-60162500I-249999J0D01*
G01*
X84481249Y-60162500D01*
G75*
G02*
X84231250Y-59912501I0J249999D01*
G01*
X84231250Y-59387499D01*
G75*
G02*
X84481249Y-59137500I249999J0D01*
G01*
G37*
G36*
G01*
X84481249Y-57312500D02*
X85381251Y-57312500D01*
G75*
G02*
X85631250Y-57562499I0J-249999D01*
G01*
X85631250Y-58087501D01*
G75*
G02*
X85381251Y-58337500I-249999J0D01*
G01*
X84481249Y-58337500D01*
G75*
G02*
X84231250Y-58087501I0J249999D01*
G01*
X84231250Y-57562499D01*
G75*
G02*
X84481249Y-57312500I249999J0D01*
G01*
G37*
%TD*%
%TO.C,R5*%
G36*
G01*
X82099999Y-59137500D02*
X83000001Y-59137500D01*
G75*
G02*
X83250000Y-59387499I0J-249999D01*
G01*
X83250000Y-59912501D01*
G75*
G02*
X83000001Y-60162500I-249999J0D01*
G01*
X82099999Y-60162500D01*
G75*
G02*
X81850000Y-59912501I0J249999D01*
G01*
X81850000Y-59387499D01*
G75*
G02*
X82099999Y-59137500I249999J0D01*
G01*
G37*
G36*
G01*
X82099999Y-57312500D02*
X83000001Y-57312500D01*
G75*
G02*
X83250000Y-57562499I0J-249999D01*
G01*
X83250000Y-58087501D01*
G75*
G02*
X83000001Y-58337500I-249999J0D01*
G01*
X82099999Y-58337500D01*
G75*
G02*
X81850000Y-58087501I0J249999D01*
G01*
X81850000Y-57562499D01*
G75*
G02*
X82099999Y-57312500I249999J0D01*
G01*
G37*
%TD*%
%TO.C,R4*%
G36*
G01*
X147988958Y-61282144D02*
X148625356Y-61918542D01*
G75*
G02*
X148625356Y-62272094I-176776J-176776D01*
G01*
X148254124Y-62643326D01*
G75*
G02*
X147900572Y-62643326I-176776J176776D01*
G01*
X147264174Y-62006928D01*
G75*
G02*
X147264174Y-61653376I176776J176776D01*
G01*
X147635406Y-61282144D01*
G75*
G02*
X147988958Y-61282144I176776J-176776D01*
G01*
G37*
G36*
G01*
X149279428Y-59991674D02*
X149915826Y-60628072D01*
G75*
G02*
X149915826Y-60981624I-176776J-176776D01*
G01*
X149544594Y-61352856D01*
G75*
G02*
X149191042Y-61352856I-176776J176776D01*
G01*
X148554644Y-60716458D01*
G75*
G02*
X148554644Y-60362906I176776J176776D01*
G01*
X148925876Y-59991674D01*
G75*
G02*
X149279428Y-59991674I176776J-176776D01*
G01*
G37*
%TD*%
%TO.C,R3*%
G36*
G01*
X155390001Y-53852500D02*
X154489999Y-53852500D01*
G75*
G02*
X154240000Y-53602501I0J249999D01*
G01*
X154240000Y-53077499D01*
G75*
G02*
X154489999Y-52827500I249999J0D01*
G01*
X155390001Y-52827500D01*
G75*
G02*
X155640000Y-53077499I0J-249999D01*
G01*
X155640000Y-53602501D01*
G75*
G02*
X155390001Y-53852500I-249999J0D01*
G01*
G37*
G36*
G01*
X155390001Y-55677500D02*
X154489999Y-55677500D01*
G75*
G02*
X154240000Y-55427501I0J249999D01*
G01*
X154240000Y-54902499D01*
G75*
G02*
X154489999Y-54652500I249999J0D01*
G01*
X155390001Y-54652500D01*
G75*
G02*
X155640000Y-54902499I0J-249999D01*
G01*
X155640000Y-55427501D01*
G75*
G02*
X155390001Y-55677500I-249999J0D01*
G01*
G37*
%TD*%
%TO.C,R2*%
G36*
G01*
X92468750Y-54318749D02*
X92468750Y-55218751D01*
G75*
G02*
X92218751Y-55468750I-249999J0D01*
G01*
X91693749Y-55468750D01*
G75*
G02*
X91443750Y-55218751I0J249999D01*
G01*
X91443750Y-54318749D01*
G75*
G02*
X91693749Y-54068750I249999J0D01*
G01*
X92218751Y-54068750D01*
G75*
G02*
X92468750Y-54318749I0J-249999D01*
G01*
G37*
G36*
G01*
X94293750Y-54318749D02*
X94293750Y-55218751D01*
G75*
G02*
X94043751Y-55468750I-249999J0D01*
G01*
X93518749Y-55468750D01*
G75*
G02*
X93268750Y-55218751I0J249999D01*
G01*
X93268750Y-54318749D01*
G75*
G02*
X93518749Y-54068750I249999J0D01*
G01*
X94043751Y-54068750D01*
G75*
G02*
X94293750Y-54318749I0J-249999D01*
G01*
G37*
%TD*%
%TO.C,R1*%
G36*
G01*
X92468750Y-51937499D02*
X92468750Y-52837501D01*
G75*
G02*
X92218751Y-53087500I-249999J0D01*
G01*
X91693749Y-53087500D01*
G75*
G02*
X91443750Y-52837501I0J249999D01*
G01*
X91443750Y-51937499D01*
G75*
G02*
X91693749Y-51687500I249999J0D01*
G01*
X92218751Y-51687500D01*
G75*
G02*
X92468750Y-51937499I0J-249999D01*
G01*
G37*
G36*
G01*
X94293750Y-51937499D02*
X94293750Y-52837501D01*
G75*
G02*
X94043751Y-53087500I-249999J0D01*
G01*
X93518749Y-53087500D01*
G75*
G02*
X93268750Y-52837501I0J249999D01*
G01*
X93268750Y-51937499D01*
G75*
G02*
X93518749Y-51687500I249999J0D01*
G01*
X94043751Y-51687500D01*
G75*
G02*
X94293750Y-51937499I0J-249999D01*
G01*
G37*
%TD*%
D13*
%TO.C,MX12*%
X189992000Y-86995000D03*
X177065000Y-89535000D03*
%TD*%
%TO.C,MX11*%
X189992000Y-67945000D03*
X177065000Y-70485000D03*
%TD*%
%TO.C,MX10*%
X170942000Y-86995000D03*
X158015000Y-89535000D03*
%TD*%
%TO.C,MX9*%
X170942000Y-67945000D03*
X158015000Y-70485000D03*
%TD*%
%TO.C,MX8*%
X151892000Y-86995000D03*
X138965000Y-89535000D03*
%TD*%
%TO.C,MX7*%
X151892000Y-67945000D03*
X138965000Y-70485000D03*
%TD*%
%TO.C,MX6*%
X132842000Y-86995000D03*
X119915000Y-89535000D03*
%TD*%
%TO.C,MX5*%
X132842000Y-67945000D03*
X119915000Y-70485000D03*
%TD*%
%TO.C,MX4*%
X113792000Y-86995000D03*
X100865000Y-89535000D03*
%TD*%
%TO.C,MX3*%
X113792000Y-67945000D03*
X100865000Y-70485000D03*
%TD*%
%TO.C,MX2*%
X94742000Y-86995000D03*
X81815000Y-89535000D03*
%TD*%
%TO.C,MX1*%
X94742000Y-67945000D03*
X81815000Y-70485000D03*
%TD*%
%TO.C,F1*%
G36*
G01*
X95875000Y-57962500D02*
X94625000Y-57962500D01*
G75*
G02*
X94375000Y-57712500I0J250000D01*
G01*
X94375000Y-56962500D01*
G75*
G02*
X94625000Y-56712500I250000J0D01*
G01*
X95875000Y-56712500D01*
G75*
G02*
X96125000Y-56962500I0J-250000D01*
G01*
X96125000Y-57712500D01*
G75*
G02*
X95875000Y-57962500I-250000J0D01*
G01*
G37*
G36*
G01*
X95875000Y-60762500D02*
X94625000Y-60762500D01*
G75*
G02*
X94375000Y-60512500I0J250000D01*
G01*
X94375000Y-59762500D01*
G75*
G02*
X94625000Y-59512500I250000J0D01*
G01*
X95875000Y-59512500D01*
G75*
G02*
X96125000Y-59762500I0J-250000D01*
G01*
X96125000Y-60512500D01*
G75*
G02*
X95875000Y-60762500I-250000J0D01*
G01*
G37*
%TD*%
D14*
%TO.C,D13*%
X196056250Y-57881250D03*
X196056250Y-61181250D03*
%TD*%
%TO.C,D12*%
X192881250Y-94393750D03*
X192881250Y-97693750D03*
%TD*%
%TO.C,D11*%
X192881250Y-75406250D03*
X192881250Y-78706250D03*
%TD*%
%TO.C,D10*%
X173831250Y-94393750D03*
X173831250Y-97693750D03*
%TD*%
%TO.C,D9*%
X173831250Y-75281250D03*
X173831250Y-78581250D03*
%TD*%
%TO.C,D8*%
X154781250Y-94393750D03*
X154781250Y-97693750D03*
%TD*%
%TO.C,D7*%
X155575000Y-75343750D03*
X155575000Y-78643750D03*
%TD*%
%TO.C,D6*%
X135731250Y-94393750D03*
X135731250Y-97693750D03*
%TD*%
%TO.C,D5*%
X135731250Y-75343750D03*
X135731250Y-78643750D03*
%TD*%
%TO.C,D4*%
X116681250Y-94393750D03*
X116681250Y-97693750D03*
%TD*%
%TO.C,D3*%
X116681250Y-75343750D03*
X116681250Y-78643750D03*
%TD*%
%TO.C,D2*%
X97631250Y-94393750D03*
X97631250Y-97693750D03*
%TD*%
%TO.C,D1*%
X97631250Y-75343750D03*
X97631250Y-78643750D03*
%TD*%
%TO.C,C9*%
G36*
G01*
X171925000Y-52890000D02*
X170975000Y-52890000D01*
G75*
G02*
X170725000Y-52640000I0J250000D01*
G01*
X170725000Y-52140000D01*
G75*
G02*
X170975000Y-51890000I250000J0D01*
G01*
X171925000Y-51890000D01*
G75*
G02*
X172175000Y-52140000I0J-250000D01*
G01*
X172175000Y-52640000D01*
G75*
G02*
X171925000Y-52890000I-250000J0D01*
G01*
G37*
G36*
G01*
X171925000Y-54790000D02*
X170975000Y-54790000D01*
G75*
G02*
X170725000Y-54540000I0J250000D01*
G01*
X170725000Y-54040000D01*
G75*
G02*
X170975000Y-53790000I250000J0D01*
G01*
X171925000Y-53790000D01*
G75*
G02*
X172175000Y-54040000I0J-250000D01*
G01*
X172175000Y-54540000D01*
G75*
G02*
X171925000Y-54790000I-250000J0D01*
G01*
G37*
%TD*%
%TO.C,C8*%
G36*
G01*
X171925000Y-47810000D02*
X170975000Y-47810000D01*
G75*
G02*
X170725000Y-47560000I0J250000D01*
G01*
X170725000Y-47060000D01*
G75*
G02*
X170975000Y-46810000I250000J0D01*
G01*
X171925000Y-46810000D01*
G75*
G02*
X172175000Y-47060000I0J-250000D01*
G01*
X172175000Y-47560000D01*
G75*
G02*
X171925000Y-47810000I-250000J0D01*
G01*
G37*
G36*
G01*
X171925000Y-49710000D02*
X170975000Y-49710000D01*
G75*
G02*
X170725000Y-49460000I0J250000D01*
G01*
X170725000Y-48960000D01*
G75*
G02*
X170975000Y-48710000I250000J0D01*
G01*
X171925000Y-48710000D01*
G75*
G02*
X172175000Y-48960000I0J-250000D01*
G01*
X172175000Y-49460000D01*
G75*
G02*
X171925000Y-49710000I-250000J0D01*
G01*
G37*
%TD*%
%TO.C,C7*%
G36*
G01*
X139200000Y-43337500D02*
X139200000Y-42387500D01*
G75*
G02*
X139450000Y-42137500I250000J0D01*
G01*
X139950000Y-42137500D01*
G75*
G02*
X140200000Y-42387500I0J-250000D01*
G01*
X140200000Y-43337500D01*
G75*
G02*
X139950000Y-43587500I-250000J0D01*
G01*
X139450000Y-43587500D01*
G75*
G02*
X139200000Y-43337500I0J250000D01*
G01*
G37*
G36*
G01*
X137300000Y-43337500D02*
X137300000Y-42387500D01*
G75*
G02*
X137550000Y-42137500I250000J0D01*
G01*
X138050000Y-42137500D01*
G75*
G02*
X138300000Y-42387500I0J-250000D01*
G01*
X138300000Y-43337500D01*
G75*
G02*
X138050000Y-43587500I-250000J0D01*
G01*
X137550000Y-43587500D01*
G75*
G02*
X137300000Y-43337500I0J250000D01*
G01*
G37*
%TD*%
%TO.C,C6*%
G36*
G01*
X127795000Y-45220000D02*
X128745000Y-45220000D01*
G75*
G02*
X128995000Y-45470000I0J-250000D01*
G01*
X128995000Y-45970000D01*
G75*
G02*
X128745000Y-46220000I-250000J0D01*
G01*
X127795000Y-46220000D01*
G75*
G02*
X127545000Y-45970000I0J250000D01*
G01*
X127545000Y-45470000D01*
G75*
G02*
X127795000Y-45220000I250000J0D01*
G01*
G37*
G36*
G01*
X127795000Y-43320000D02*
X128745000Y-43320000D01*
G75*
G02*
X128995000Y-43570000I0J-250000D01*
G01*
X128995000Y-44070000D01*
G75*
G02*
X128745000Y-44320000I-250000J0D01*
G01*
X127795000Y-44320000D01*
G75*
G02*
X127545000Y-44070000I0J250000D01*
G01*
X127545000Y-43570000D01*
G75*
G02*
X127795000Y-43320000I250000J0D01*
G01*
G37*
%TD*%
%TO.C,C5*%
G36*
G01*
X147497823Y-42880178D02*
X146826072Y-42208427D01*
G75*
G02*
X146826072Y-41854873I176777J176777D01*
G01*
X147179625Y-41501320D01*
G75*
G02*
X147533179Y-41501320I176777J-176777D01*
G01*
X148204930Y-42173071D01*
G75*
G02*
X148204930Y-42526625I-176777J-176777D01*
G01*
X147851377Y-42880178D01*
G75*
G02*
X147497823Y-42880178I-176777J176777D01*
G01*
G37*
G36*
G01*
X146154321Y-44223680D02*
X145482570Y-43551929D01*
G75*
G02*
X145482570Y-43198375I176777J176777D01*
G01*
X145836123Y-42844822D01*
G75*
G02*
X146189677Y-42844822I176777J-176777D01*
G01*
X146861428Y-43516573D01*
G75*
G02*
X146861428Y-43870127I-176777J-176777D01*
G01*
X146507875Y-44223680D01*
G75*
G02*
X146154321Y-44223680I-176777J176777D01*
G01*
G37*
%TD*%
%TO.C,C4*%
G36*
G01*
X150952177Y-47607322D02*
X151623928Y-48279073D01*
G75*
G02*
X151623928Y-48632627I-176777J-176777D01*
G01*
X151270375Y-48986180D01*
G75*
G02*
X150916821Y-48986180I-176777J176777D01*
G01*
X150245070Y-48314429D01*
G75*
G02*
X150245070Y-47960875I176777J176777D01*
G01*
X150598623Y-47607322D01*
G75*
G02*
X150952177Y-47607322I176777J-176777D01*
G01*
G37*
G36*
G01*
X152295679Y-46263820D02*
X152967430Y-46935571D01*
G75*
G02*
X152967430Y-47289125I-176777J-176777D01*
G01*
X152613877Y-47642678D01*
G75*
G02*
X152260323Y-47642678I-176777J176777D01*
G01*
X151588572Y-46970927D01*
G75*
G02*
X151588572Y-46617373I176777J176777D01*
G01*
X151942125Y-46263820D01*
G75*
G02*
X152295679Y-46263820I176777J-176777D01*
G01*
G37*
%TD*%
%TO.C,C3*%
G36*
G01*
X125255000Y-45220000D02*
X126205000Y-45220000D01*
G75*
G02*
X126455000Y-45470000I0J-250000D01*
G01*
X126455000Y-45970000D01*
G75*
G02*
X126205000Y-46220000I-250000J0D01*
G01*
X125255000Y-46220000D01*
G75*
G02*
X125005000Y-45970000I0J250000D01*
G01*
X125005000Y-45470000D01*
G75*
G02*
X125255000Y-45220000I250000J0D01*
G01*
G37*
G36*
G01*
X125255000Y-43320000D02*
X126205000Y-43320000D01*
G75*
G02*
X126455000Y-43570000I0J-250000D01*
G01*
X126455000Y-44070000D01*
G75*
G02*
X126205000Y-44320000I-250000J0D01*
G01*
X125255000Y-44320000D01*
G75*
G02*
X125005000Y-44070000I0J250000D01*
G01*
X125005000Y-43570000D01*
G75*
G02*
X125255000Y-43320000I250000J0D01*
G01*
G37*
%TD*%
%TO.C,C2*%
G36*
G01*
X123032500Y-45220000D02*
X123982500Y-45220000D01*
G75*
G02*
X124232500Y-45470000I0J-250000D01*
G01*
X124232500Y-45970000D01*
G75*
G02*
X123982500Y-46220000I-250000J0D01*
G01*
X123032500Y-46220000D01*
G75*
G02*
X122782500Y-45970000I0J250000D01*
G01*
X122782500Y-45470000D01*
G75*
G02*
X123032500Y-45220000I250000J0D01*
G01*
G37*
G36*
G01*
X123032500Y-43320000D02*
X123982500Y-43320000D01*
G75*
G02*
X124232500Y-43570000I0J-250000D01*
G01*
X124232500Y-44070000D01*
G75*
G02*
X123982500Y-44320000I-250000J0D01*
G01*
X123032500Y-44320000D01*
G75*
G02*
X122782500Y-44070000I0J250000D01*
G01*
X122782500Y-43570000D01*
G75*
G02*
X123032500Y-43320000I250000J0D01*
G01*
G37*
%TD*%
M02*
